<svg width="78" height="74" fill="none" xmlns="http://www.w3.org/2000/svg"><g clip-path="url(#clip0_52_9472)"><path d="M21.465 71.612a.63.63 0 01-.421.26l10.984-1.614a.63.63 0 01-.48-.128.686.686 0 01-.255-.442l-1.419-9.647a13.15 13.15 0 00-1.74-4.855 12.7 12.7 0 00-3.449-3.754l-7.61-5.46a4.071 4.071 0 00-2.532-.763 4.01 4.01 0 00-2.446.969 1.098 1.098 0 00-.273.36 1.147 1.147 0 00-.036.9c.054.146.137.278.242.389l8.53 8.96a.696.696 0 01.157.465.674.674 0 01-.19.448.624.624 0 01-.88.018l-8.529-8.954a2.513 2.513 0 01-.532-.854 2.546 2.546 0 01.08-1.978c.144-.304.349-.573.6-.79a5.312 5.312 0 011.031-.695L5.874 29.399a1.793 1.793 0 00-.88-.92 1.666 1.666 0 00-1.238-.078 1.712 1.712 0 00-.958.807 1.847 1.847 0 00-.183 1.273l4.018 18.755a10.477 10.477 0 003.028 5.43l10.873 10.315a.685.685 0 01.207.408l.842 5.726a.685.685 0 01-.117.497z" fill="#E8B78A"/><g filter="url(#filter0_i_52_9472)"><rect width="16.378" height="4.968" rx="2" transform="rotate(-9.462 424.432 -70.704) skewX(.009)" fill="#2D4BA1"/></g><path d="M56.535 71.612a.63.63 0 00.421.26l-10.984-1.614a.63.63 0 00.48-.128.686.686 0 00.255-.442l1.419-9.647a13.15 13.15 0 011.74-4.855 12.7 12.7 0 013.449-3.754l7.61-5.46a4.071 4.071 0 012.532-.763 4.01 4.01 0 012.446.969c.114.099.207.221.273.36a1.147 1.147 0 01.036.9 1.145 1.145 0 01-.242.389l-8.53 8.96a.695.695 0 00-.157.465c.006.17.074.33.19.448a.624.624 0 00.88.018l8.529-8.954a2.563 2.563 0 00.693-1.854 2.516 2.516 0 00-.241-.978 2.405 2.405 0 00-.6-.79 5.312 5.312 0 00-1.031-.695l6.423-15.048c.175-.409.488-.737.88-.92a1.666 1.666 0 011.238-.078c.406.135.747.422.958.807.211.384.276.838.183 1.273l-4.018 18.755a10.476 10.476 0 01-3.029 5.43L57.466 64.982a.685.685 0 00-.207.408l-.842 5.726a.685.685 0 00.117.497z" fill="#E8B78A"/><g filter="url(#filter1_i_52_9472)"><rect width="16.378" height="4.968" rx="2" transform="matrix(-.9864 -.1644 -.16455 .98637 60.602 68.814)" fill="#2D4BA1"/></g><path d="M35.456 50.018a5.307 5.307 0 01-5.306-5.304v-1.768a1.767 1.767 0 013.02-1.25c.331.332.517.781.517 1.25v1.768a1.767 1.767 0 003.02 1.25c.332-.331.518-.781.518-1.25V23.499a1.768 1.768 0 013.537 0v21.215a5.302 5.302 0 01-5.306 5.304zm3.538-40.662a1.77 1.77 0 01-1.77-1.768V2.284a1.767 1.767 0 013.02-1.25c.332.332.518.781.518 1.25v5.304a1.767 1.767 0 01-1.768 1.768z" fill="#182A66"/><g filter="url(#filter2_i_52_9472)"><path d="M38.994 5.82a23 23 0 00-16.26 6.732A22.977 22.977 0 0016 28.802a1.767 1.767 0 001.769 1.769h.23a1.77 1.77 0 001.768-1.326 5.304 5.304 0 015.13-3.946 5.308 5.308 0 015.13 3.946 1.768 1.768 0 001.768 1.326h.46a1.77 1.77 0 001.768-1.326 5.303 5.303 0 015.13-3.946 5.308 5.308 0 015.13 3.946 1.768 1.768 0 001.768 1.326h.46a1.77 1.77 0 001.769-1.326 5.303 5.303 0 015.129-3.946 5.308 5.308 0 015.13 3.946 1.768 1.768 0 001.768 1.326h-.088a1.769 1.769 0 001.768-1.768 22.978 22.978 0 00-6.734-16.252 23 23 0 00-16.26-6.731z" fill="#70CA74"/></g></g><defs><filter id="filter0_i_52_9472" x="17.7" y="66.422" width="16.37" height="6.99" filterUnits="userSpaceOnUse" color-interpolation-filters="sRGB"><feFlood flood-opacity="0" result="BackgroundImageFix"/><feBlend in="SourceGraphic" in2="BackgroundImageFix" result="shape"/><feColorMatrix in="SourceAlpha" values="0 0 0 0 0 0 0 0 0 0 0 0 0 0 0 0 0 0 127 0" result="hardAlpha"/><feOffset dx="-3" dy="-5"/><feComposite in2="hardAlpha" operator="arithmetic" k2="-1" k3="1"/><feColorMatrix values="0 0 0 0 0 0 0 0 0 0 0 0 0 0 0 0 0 0 0.25 0"/><feBlend in2="shape" result="effect1_innerShadow_52_9472"/></filter><filter id="filter1_i_52_9472" x="43.93" y="66.422" width="16.37" height="6.99" filterUnits="userSpaceOnUse" color-interpolation-filters="sRGB"><feFlood flood-opacity="0" result="BackgroundImageFix"/><feBlend in="SourceGraphic" in2="BackgroundImageFix" result="shape"/><feColorMatrix in="SourceAlpha" values="0 0 0 0 0 0 0 0 0 0 0 0 0 0 0 0 0 0 127 0" result="hardAlpha"/><feOffset dx="5" dy="-4"/><feComposite in2="hardAlpha" operator="arithmetic" k2="-1" k3="1"/><feColorMatrix values="0 0 0 0 0 0 0 0 0 0 0 0 0 0 0 0 0 0 0.25 0"/><feBlend in2="shape" result="effect1_innerShadow_52_9472"/></filter><filter id="filter2_i_52_9472" x="16" y="5.82" width="45.987" height="24.752" filterUnits="userSpaceOnUse" color-interpolation-filters="sRGB"><feFlood flood-opacity="0" result="BackgroundImageFix"/><feBlend in="SourceGraphic" in2="BackgroundImageFix" result="shape"/><feColorMatrix in="SourceAlpha" values="0 0 0 0 0 0 0 0 0 0 0 0 0 0 0 0 0 0 127 0" result="hardAlpha"/><feOffset dy="2"/><feComposite in2="hardAlpha" operator="arithmetic" k2="-1" k3="1"/><feColorMatrix values="0 0 0 0 0.410278 0 0 0 0 0.615385 0 0 0 0 0.389349 0 0 0 1 0"/><feBlend in2="shape" result="effect1_innerShadow_52_9472"/></filter><clipPath id="clip0_52_9472"><path fill="#fff" d="M0 0h78v74H0z"/></clipPath></defs></svg>