<svg width="68" height="70" fill="none" xmlns="http://www.w3.org/2000/svg"><path d="M61.856 16.601a1.934 1.934 0 00-2.364.694 1.951 1.951 0 001.207 3.004 1.934 1.934 0 001.998-.808 1.953 1.953 0 00-.84-2.89z" fill="#96A4D3"/><path fill-rule="evenodd" clip-rule="evenodd" d="M34.422.382a3.709 3.709 0 013.803 1.631 3.747 3.747 0 01-.046 4.15 3.709 3.709 0 01-5.732.504 3.741 3.741 0 01-.982-3.38A3.743 3.743 0 0133.074.924c.41-.269.868-.453 1.348-.543zM58.82 44.626a4.235 4.235 0 00-1.668-1.651l.97-.536a4.144 4.144 0 001.97-2.47 4.161 4.161 0 00-.341-3.146 4.057 4.057 0 00-1.782-1.708l.783-.433a4.135 4.135 0 001.987-2.474 4.16 4.16 0 00-.341-3.16 4.14 4.14 0 00-2.463-1.97 4.122 4.122 0 00-3.132.341l-.8.49a4.148 4.148 0 00-1.851-3.822 4.108 4.108 0 00-4.23-.165l-4.103 2.279a4.725 4.725 0 00-5.027-2.695l.448-.922a4.768 4.768 0 00-.713-5.23 4.716 4.716 0 00-5.086-1.34 4.739 4.739 0 00-2.711 2.412l-.454.94a4.79 4.79 0 00-2.026-1.903 4.721 4.721 0 00-3.613-.212 4.744 4.744 0 00-2.707 2.41l-9.839 20.21c-.223.33-.424.674-.601 1.03l-.567 1.19-.057-.147a84.502 84.502 0 01-.769-2.137l-.133-.38c-.925-2.712-2.695-4.056-4.483-4.312a4.489 4.489 0 00-2.331.273 4.757 4.757 0 00-1.918 1.418c-1.248 1.527-1.748 3.987-.54 6.932v.051c.25.733.563 1.758.93 2.961 1.53 5.005 4 13.089 6.662 16.023 4.085 4.5 14.667 8.726 20.358 6.71a13.112 13.112 0 007.438-6.67l.567-1.207a12455.71 12455.71 0 0020.545-11.352 4.144 4.144 0 001.965-2.472 4.16 4.16 0 00-.342-3.144l.005-.011zM44.243 28.035l.914-.502c1.216-.666 2.44-1.337 3.66-2.016a2.262 2.262 0 011.702-.188 2.227 2.227 0 011.344 1.077c.283.523.35 1.136.188 1.708a2.247 2.247 0 01-1.073 1.345l-4.652 2.568-.062-.037a5.19 5.19 0 00-.403-.225 4.695 4.695 0 00-2.656-.438l.568-1.14a4.8 4.8 0 00.47-2.152zm3.518 5.433l7.944-4.385a2.262 2.262 0 012.48.22c.23.185.42.414.56.674a2.287 2.287 0 01-.212 2.493 2.206 2.206 0 01-.672.566l-10.032 5.542.216-.456a4.713 4.713 0 00.21-3.623 4.776 4.776 0 00-.494-1.03zm-1.435 8.208l8.743-4.83a2.228 2.228 0 011.702-.188 2.212 2.212 0 011.345 1.077 2.287 2.287 0 01-.885 3.058L45.435 47.31l.902 1.675 7.807-4.312a2.262 2.262 0 012.485.216c.23.186.422.416.562.678a2.287 2.287 0 01-.213 2.493 2.217 2.217 0 01-.672.566L38.093 58.667l4.116-8.496 4.117-8.495zM34.15 61.862a10.948 10.948 0 01-6.241 5.588c-4.851 1.708-14.593-2.313-18.065-6.135C7.468 58.7 4.88 50.141 3.484 45.53a93.038 93.038 0 00-.755-2.436.871.871 0 00-.046-.148c-.88-2.13-.607-3.804.205-4.784.284-.35.653-.618 1.072-.78.39-.161.814-.215 1.231-.154 1.061.16 2.14 1.048 2.769 2.882l.094.27c.182.526.5 1.445.83 2.316.298.848.678 1.665 1.136 2.437.105.183.263.33.453.422h.948l2.082-3.714c2.126-4.445 4.269-8.84 6.423-13.255a3163.92 3163.92 0 003.932-8.081 2.59 2.59 0 011.48-1.31 2.528 2.528 0 011.97.114c.613.3 1.082.833 1.304 1.48a2.555 2.555 0 01-.113 1.977l-6.746 13.932 1.997.98 8.913-18.392c.222-.463.576-.85 1.017-1.11a2.562 2.562 0 012.866.18c.406.312.71.74.872 1.226a2.565 2.565 0 01-.12 1.97l-8.913 18.393 2.043.996 6.769-13.96a2.578 2.578 0 012.974-1.363c.492.13.935.404 1.272.786a2.596 2.596 0 01.395 2.844l-6.775 13.955 1.935.945 4.471-9.233a2.578 2.578 0 011.48-1.31 2.526 2.526 0 011.97.114 2.6 2.6 0 011.305 1.486 2.612 2.612 0 01-.114 1.977l-11.96 24.68zm33.169-34.687a2.102 2.102 0 00-3.532 1.636 2.118 2.118 0 001.377 1.9 2.098 2.098 0 002.274-.552 2.103 2.103 0 00.367-2.319 2.101 2.101 0 00-.486-.665zm-1.583.734a.819.819 0 01.843.357.828.828 0 01-.38 1.22.82.82 0 01-1.116-.614.828.828 0 01.653-.963zM25.463 7.143a2.097 2.097 0 012.14.94 2.12 2.12 0 01-.998 3.105 2.097 2.097 0 01-2.283-.491 2.117 2.117 0 011.141-3.554zm.239 1.27a.814.814 0 01.835.358.822.822 0 01-.38 1.21.814.814 0 01-1.108-.611.828.828 0 01.653-.957zm9.078-6.266a1.934 1.934 0 011.982.85 1.953 1.953 0 01-.9 2.872 1.933 1.933 0 01-2.11-.442 1.95 1.95 0 011.028-3.28z" fill="#142245"/><path d="M55.07 36.846l-8.744 4.83-4.117 8.495-4.116 8.496 18.213-10.042a2.217 2.217 0 001.072-1.35 2.287 2.287 0 00-.187-1.709 2.21 2.21 0 00-1.345-1.082 2.262 2.262 0 00-1.702.188l-7.807 4.312-.902-1.675 11.796-6.516a2.287 2.287 0 00.885-3.059 2.22 2.22 0 00-1.345-1.076 2.226 2.226 0 00-1.702.188zm.635-7.763l-7.944 4.386c.205.322.371.668.494 1.03a4.717 4.717 0 01-.21 3.623l-.216.456 10.032-5.542a2.206 2.206 0 001.072-1.35 2.287 2.287 0 00-.187-1.71 2.222 2.222 0 00-1.34-1.076 2.26 2.26 0 00-1.701.183zm-10.548-1.549l-.913.5a4.8 4.8 0 01-.471 2.154l-.568 1.139a4.695 4.695 0 012.656.438c.142.07.271.147.403.225l.062.037 4.652-2.568a2.236 2.236 0 001.073-1.345 2.286 2.286 0 00-.188-1.708 2.237 2.237 0 00-1.344-1.077 2.262 2.262 0 00-1.702.188c-1.22.679-2.444 1.35-3.66 2.017z" fill="#142245"/><path d="M48.38 0c.658 3.033 2.017 5.248 3.143 7.085.989 1.613 1.799 2.935 1.799 4.261 0 2.836-1.232 5.696-4.937 5.696s-4.941-2.848-4.941-5.696c0-1.333.81-2.656 1.8-4.27C46.366 5.24 47.721 3.03 48.38 0z" fill="#75C7F2"/></svg>