<svg width="45" height="60" fill="none" xmlns="http://www.w3.org/2000/svg"><path d="M41.236 0H3.494C1.849 0 .107 1.548.107 3.194v38.71L19.268 60h21.968c1.645 0 3.387-1.548 3.387-3.194V3.194C44.623 1.548 42.88 0 41.236 0z" fill="#0EE0B8"/><path d="M41.236 0H3.494C1.849 0 .107 1.548.107 3.194v38.71L19.268 60h21.968c1.645 0 3.387-1.548 3.387-3.194V3.194C44.623 1.548 42.88 0 41.236 0z" fill="#A3ED54"/><path d="M44.623 46.452V3.194C44.623 1.548 42.88 0 41.236 0H3.494C1.849 0 .397 1.355.397 2.903" fill="#D0DBFB"/><path d="M44.623 46.452V3.194C44.623 1.548 42.88 0 41.236 0h-23.71" fill="#8DD819"/><path d="M16.558 42.58V57c0 .194.194.387.194.58l2.323 2.227c.193 0 .387.193.58.193H34.85L16.945 42.58h-.387z" fill="#94E239"/><path d="M16.558 42.484V57c0 .194.194.387.194.58l2.323 2.227c.193 0 .387.193.58.193h7.742l-8.806-14.613-2.033-2.903z" fill="#8DD819"/><path d="M19.268 60h.194V44.806c0-1.645-1.452-3.193-3.097-3.193l-16.258.194L19.268 60z" fill="#fff"/><path d="M.107 41.806l19.12 18.156a.138.138 0 00.235-.1V44.516" fill="#142245"/><path d="M2.042 41.806V3.194C2.042 1.548 3.203 0 4.752 0H3.494C1.849 0 .107 1.548.107 3.194v38.71l1.935-.098z" fill="#142245"/><path d="M21.59 20.323H8.623c-.774 0-1.355.677-1.355 1.451s.58 1.452 1.355 1.452H21.59c.775 0 1.355-.678 1.355-1.452 0-.774-.58-1.451-1.355-1.451zm7.936 3.967c.29.29.58.387.968.387.387 0 .677-.193.968-.387l6.677-6.677c.58-.58.58-1.452 0-1.936-.58-.58-1.452-.58-1.936 0l-5.71 5.71-2.902-2.903c-.581-.58-1.452-.58-1.936 0-.58.58-.58 1.451 0 1.935l3.871 3.871zm-7.936 6.678H8.623c-.774 0-1.355.677-1.355 1.451 0 .775.58 1.452 1.355 1.452H21.59c.775 0 1.355-.678 1.355-1.452 0-.774-.58-1.451-1.355-1.451zm14.71-4.742l-5.806 5.71-2.903-2.904c-.581-.58-1.452-.58-1.936 0-.58.58-.58 1.452 0 1.936l3.871 3.87c.29.291.58.388.968.388.387 0 .677-.194.968-.387l6.677-6.678c.58-.58.58-1.451 0-1.935a1.188 1.188 0 00-1.839 0z" fill="#8DD819"/><path d="M21.01 19.355H8.042c-.774 0-1.355.677-1.355 1.451 0 .775.581 1.452 1.355 1.452H21.01c.774 0 1.355-.677 1.355-1.451.097-.775-.58-1.452-1.355-1.452z" fill="#fff"/><path d="M28.945 23.226c.29.29.581.387.968.387s.678-.194.968-.387l6.677-6.678c.581-.58.581-1.451 0-1.935-.58-.58-1.451-.58-1.935 0l-5.71 5.71-2.903-2.904c-.58-.58-1.452-.58-1.936 0-.58.581-.58 1.452 0 1.936l3.871 3.87z" fill="#05297E"/><path d="M21.01 30H8.042c-.774 0-1.355.677-1.355 1.452 0 .774.581 1.451 1.355 1.451H21.01c.774 0 1.355-.677 1.355-1.451 0-.775-.58-1.452-1.355-1.452z" fill="#fff"/><path d="M35.72 25.161l-5.71 5.71-2.903-2.903c-.581-.58-1.452-.58-1.936 0-.58.58-.58 1.451 0 1.935l3.871 3.871c.29.29.58.387.968.387.387 0 .677-.193.968-.387l6.677-6.677c.58-.58.58-1.452 0-1.936-.58-.58-1.452-.58-1.935 0z" fill="#05297E"/></svg>