<svg width="85" height="57" viewBox="0 0 85 57" fill="none" xmlns="http://www.w3.org/2000/svg">
<path d="M49.8761 17.5827C55.5013 17.5827 60.5746 19.9473 64.1596 23.7374C62.2748 25.6973 61.1157 28.3617 61.1157 31.2973C61.1157 32.7414 61.3966 34.1198 61.906 35.3811C61.5854 35.4862 61.2901 35.6651 61.0471 35.9086C60.6412 36.3155 60.4133 36.8676 60.4133 37.443V53.9055C57.3671 55.8442 53.7529 56.9681 49.8761 56.9681C40.2082 56.9681 32.1701 49.9848 30.5181 40.7817C37.7473 37.8701 42.8513 30.7854 42.8513 22.5059C42.8513 21.309 42.7441 20.137 42.5398 18.999C44.8069 18.086 47.2827 17.5827 49.8761 17.5827Z" fill="#223B71"/>
<path d="M19.6694 0C30.5326 0 39.3389 8.81671 39.3389 19.6927C39.3389 30.5686 30.5326 39.3853 19.6694 39.3853C8.80631 39.3853 0 30.5686 0 19.6927C0 8.81671 8.80631 0 19.6694 0Z" fill="#223B71"/>
<path d="M83.737 56.9681H63.7835C63.4485 56.9681 63.1273 56.8345 62.8905 56.5967C62.6536 56.3589 62.5206 56.0364 62.5206 55.7001V36.9895C62.5206 36.6532 62.6536 36.3307 62.8905 36.0929C63.1273 35.8551 63.4485 35.7215 63.7835 35.7215H83.737C84.072 35.7215 84.3932 35.8551 84.63 36.0929C84.8669 36.3307 84.9999 36.6532 84.9999 36.9895V55.7001C84.9999 56.0364 84.8669 56.3589 84.63 56.5967C84.3932 56.8345 84.072 56.9681 83.737 56.9681ZM65.0463 54.4321H82.4742V38.2575H65.0463V54.4321Z" fill="#0EA0DC"/>
<path d="M65.0463 54.4321H82.4742V38.2575H65.0463V54.4321Z" fill="#0EA0DC"/>
<path d="M73.3458 22.5059C75.6782 22.5059 77.9164 23.4303 79.5737 25.0782C81.2311 26.7261 82.1736 28.9644 82.1964 31.3063V34.0696H79.6706V31.3063C79.6514 29.6347 78.9766 28.038 77.7925 26.8628C76.6085 25.6876 75.0107 25.0286 73.3458 25.0285C71.6808 25.0285 70.0829 25.6876 68.8988 26.8628C67.7148 28.038 67.0399 29.6347 67.0207 31.3063V34.0696H64.495V31.3063C64.5177 28.9644 65.4603 26.7261 67.1176 25.0782C68.775 23.4303 71.0133 22.5059 73.3458 22.5059Z" fill="#0EA0DC"/>
<path d="M78.471 42.7034L78.4886 42.7142L78.8753 43.0755L72.8431 48.7161C72.8353 48.7234 72.8189 48.7317 72.7952 48.7318C72.7836 48.7318 72.7738 48.7298 72.7659 48.7269L72.7484 48.7161L69.347 45.5941L69.7308 45.2298C69.7383 45.2226 69.7539 45.2134 69.7776 45.2132C69.7897 45.2131 69.7999 45.215 69.8079 45.2181L69.8255 45.2288L72.4505 47.638L72.7913 47.9515L73.1292 47.6351L75.762 45.1751L78.3939 42.7142C78.4017 42.7069 78.418 42.6985 78.4417 42.6985C78.4534 42.6986 78.4632 42.7004 78.471 42.7034Z" fill="white" stroke="white"/>
<path d="M19.3713 30.7206C18.8841 30.7206 18.4892 30.3257 18.4892 29.8385V28.1121C18.4892 27.9844 18.6424 27.919 18.7346 28.0074C18.8305 28.0991 18.763 28.2592 18.6305 28.2517C17.6747 28.1976 16.766 28.0378 15.9041 27.7723C15.2534 27.5586 14.6614 27.2896 14.128 26.9654C13.6832 26.695 13.5366 26.1357 13.7239 25.6501C14.0063 24.9181 14.9116 24.6589 15.6106 25.0152C15.6632 25.042 15.716 25.0683 15.7692 25.0941C16.3087 25.3342 16.8707 25.5217 17.4552 25.6568C18.0546 25.7768 18.6915 25.8368 19.3659 25.8368C20.4599 25.8368 21.2617 25.6418 21.7712 25.2517C22.2807 24.8616 22.5355 24.3739 22.5355 23.7888C22.5355 23.2636 22.3631 22.8435 22.0185 22.5285C21.6738 22.2134 21.0593 21.9583 20.1752 21.7633L17.7923 21.2456C16.4436 20.9455 15.4245 20.4504 14.7352 19.7602C14.0608 19.055 13.7236 18.1248 13.7236 16.9695C13.7236 16.0843 13.9409 15.2966 14.3755 14.6064C14.8101 13.9012 15.417 13.3385 16.1963 12.9184C16.8871 12.5461 17.6838 12.3092 18.5865 12.208C18.6897 12.1964 18.739 12.3258 18.6559 12.3882C18.5873 12.4397 18.4892 12.3907 18.4892 12.3049V10.6224C18.4892 10.1006 18.9122 9.67758 19.434 9.67758H19.7983C20.3168 9.67758 20.7371 10.0979 20.7371 10.6164V12.2852C20.7371 12.3787 20.6301 12.4317 20.5558 12.375C20.4675 12.3076 20.5191 12.1697 20.6297 12.1803C21.3584 12.2501 22.0761 12.4136 22.7828 12.6709C23.372 12.8816 23.8911 13.1589 24.34 13.5027C24.6849 13.7669 24.7706 14.236 24.6109 14.64C24.3258 15.361 23.3928 15.5705 22.6964 15.2297C22.4927 15.13 22.2817 15.0423 22.0634 14.9665C21.3291 14.6964 20.5273 14.5614 19.6581 14.5614C18.729 14.5614 17.9797 14.7789 17.4102 15.214C16.8557 15.6341 16.5785 16.1893 16.5785 16.8795C16.5785 17.3896 16.7508 17.8022 17.0955 18.1173C17.4402 18.4324 17.9947 18.6724 18.759 18.8375L21.1418 19.3551C22.5805 19.6702 23.6445 20.1728 24.3338 20.863C25.0382 21.5382 25.3904 22.4384 25.3904 23.5637C25.3904 24.434 25.1731 25.2067 24.7385 25.8818C24.3039 26.542 23.7044 27.0747 22.9401 27.4798C22.2707 27.8282 21.4997 28.063 20.627 28.184C20.5159 28.1994 20.4489 28.0688 20.5241 27.9856C20.5992 27.9025 20.7371 27.9556 20.7371 28.0676V29.8949C20.7371 30.3509 20.3675 30.7206 19.9115 30.7206H19.3713Z" fill="white"/>
<path d="M50.2804 49.0067C49.7933 49.0067 49.3983 48.6117 49.3983 48.1245V46.3982C49.3983 46.2704 49.5515 46.2051 49.6437 46.2934C49.7396 46.3852 49.6721 46.5453 49.5396 46.5378C48.5839 46.4837 47.6751 46.3239 46.8132 46.0584C46.1626 45.8446 45.5705 45.5757 45.0371 45.2514C44.5923 44.9811 44.4457 44.4218 44.633 43.9362C44.9154 43.2041 45.8207 42.945 46.5197 43.3012C46.5723 43.328 46.6251 43.3543 46.6783 43.3802C47.2178 43.6202 47.7798 43.8078 48.3643 43.9428C48.9637 44.0629 49.6006 44.1229 50.275 44.1229C51.369 44.1229 52.1708 43.9278 52.6803 43.5377C53.1898 43.1476 53.4446 42.66 53.4446 42.0748C53.4446 41.5497 53.2723 41.1296 52.9276 40.8145C52.5829 40.4994 51.9685 40.2444 51.0843 40.0493L48.7015 39.5317C47.3527 39.2316 46.3336 38.7365 45.6443 38.0463C44.9699 37.3411 44.6327 36.4109 44.6327 35.2555C44.6327 34.3703 44.85 33.5826 45.2846 32.8924C45.7192 32.1872 46.3261 31.6246 47.1054 31.2045C47.7962 30.8321 48.5929 30.5953 49.4956 30.494C49.5988 30.4825 49.6481 30.6118 49.565 30.6742C49.4964 30.7258 49.3983 30.6768 49.3983 30.5909V28.9084C49.3983 28.3866 49.8213 27.9636 50.3431 27.9636H50.7074C51.2259 27.9636 51.6463 28.384 51.6463 28.9025V30.5713C51.6463 30.6647 51.5392 30.7177 51.4649 30.661C51.3766 30.5937 51.4282 30.4557 51.5388 30.4663C52.2675 30.5361 52.9852 30.6996 53.6919 30.9569C54.2812 31.1676 54.8002 31.4449 55.2491 31.7888C55.594 32.053 55.6797 32.5221 55.52 32.9261C55.2349 33.6471 54.3019 33.8566 53.6056 33.5158C53.4018 33.4161 53.1908 33.3283 52.9725 33.2525C52.2382 32.9825 51.4364 32.8474 50.5672 32.8474C49.6381 32.8474 48.8888 33.065 48.3193 33.5001C47.7648 33.9202 47.4876 34.4753 47.4876 35.1655C47.4876 35.6757 47.6599 36.0883 48.0046 36.4033C48.3493 36.7184 48.9038 36.9585 49.6681 37.1235L52.0509 37.6412C53.4896 37.9563 54.5536 38.4589 55.2429 39.1491C55.9473 39.8242 56.2995 40.7245 56.2995 41.8498C56.2995 42.72 56.0822 43.4927 55.6476 44.1679C55.213 44.8281 54.6135 45.3607 53.8492 45.7658C53.1799 46.1143 52.4088 46.349 51.5361 46.47C51.425 46.4854 51.358 46.3549 51.4332 46.2716C51.5083 46.1886 51.6463 46.2417 51.6463 46.3536V48.181C51.6463 48.637 51.2766 49.0067 50.8206 49.0067H50.2804Z" fill="white"/>
</svg>
