<svg width="70" height="66" fill="none" xmlns="http://www.w3.org/2000/svg"><g clip-path="url(#clip0_52_9485)" stroke="#142245" stroke-width="2"><path d="M18.177 17.77c-2.566-1.143-5.629-2.26-8.322-3.176a213.793 213.793 0 00-4.95-1.612c-.643-.202-1.173-.365-1.547-.481l-.437-.137-.099-.033c-.691-.334-.96-.638-1.1-.894-.168-.306-.232-.664-.329-1.32a1.882 1.882 0 01-.012-.424h0a1.747 1.747 0 011.885-1.597h0c1.273.12 3.912 1.103 7.306 3.353 2.302 1.526 4.908 3.607 7.605 6.32zm39.035 35.985a.61.61 0 01.213 1.014l-.062.047h0c-3.753 2.43-8.56 4.203-13.345 4.913-14.1 2.095-26.949-3.961-32.427-14.945l-.013-.026-.014-.025a19.41 19.41 0 01-2.376-6.829c-.491-3.336.836-6.643 3.166-9.634 2.239-2.875 5.333-5.36 8.334-7.145l.014.012c.037.028.078.057.115.082.076.052.18.121.3.2.222.147.524.345.894.595 4.01 4.872 8.007 11.18 11.323 19.173l.321.785c.278.688.632 1.32 1.18 1.735.6.455 1.285.543 1.969.442 1.55-.23 2.608-1.691 2.381-3.233-.75-5.094-3.83-9.576-7.11-13.062-3.23-3.433-6.744-5.995-8.704-7.334-.25-.302-.501-.6-.752-.89a24.196 24.196 0 012.764-1.992c1.534-.953 3.087-1.685 4.175-1.847 2.55-.378 5.921.835 9.09 3.165 3.14 2.309 5.882 5.573 7.208 8.967v-.001c1.09 2.794 1.489 5.588 1.336 8.262l-.038.534c-.584 6.882 2.874 13.976 9.728 16.9l.329.136v.001z" fill="#95F094"/><path d="M60.97 25.504a66.729 66.729 0 013.689 4.906c1.111 1.638 2.209 3.44 3.024 5.188C68.508 37.364 69 38.98 69 40.273a8.088 8.088 0 01-2.078 5.416l-.276.29a8.011 8.011 0 01-5.675 2.36 8.011 8.011 0 01-5.39-2.084l-.287-.277a8.085 8.085 0 01-2.354-5.705c0-1.292.493-2.909 1.318-4.675.815-1.748 1.912-3.55 3.024-5.188a66.756 66.756 0 013.688-4.906z" fill="#8CD6FD"/></g><defs><clipPath id="clip0_52_9485"><path fill="#fff" d="M0 0h70v66H0z"/></clipPath></defs></svg>