<svg width="47" height="31" viewBox="0 0 47 31" fill="none" xmlns="http://www.w3.org/2000/svg">
<g clip-path="url(#clip0_35_16728)">
<path d="M42.9714 1.11224H4.02855C1.98904 1.11224 0.335693 2.61986 0.335693 4.47959V26.5204C0.335693 28.3801 1.98904 29.8878 4.02855 29.8878H42.9714C45.0109 29.8878 46.6643 28.3801 46.6643 26.5204V4.47959C46.6643 2.61986 45.0109 1.11224 42.9714 1.11224Z" fill="white" stroke="#D9D9D9" stroke-width="0.857143"/>
<path fill-rule="evenodd" clip-rule="evenodd" d="M12.8647 11.0222C12.4702 11.4531 11.839 11.793 11.2078 11.7444C11.1289 11.1618 11.4379 10.5428 11.7995 10.1604C12.194 9.71742 12.8844 9.40187 13.4433 9.37756C13.509 9.98448 13.2526 10.5792 12.8647 11.0222ZM13.4366 11.8597C12.8806 11.8302 12.3732 12.0141 11.9633 12.1627C11.6996 12.2582 11.4763 12.3392 11.3063 12.3392C11.1156 12.3392 10.8831 12.254 10.622 12.1582C10.2799 12.0327 9.88868 11.8893 9.4785 11.8962C8.5383 11.9083 7.66383 12.3999 7.18383 13.1828C6.1976 14.7485 6.92741 17.0669 7.88077 18.3414C8.34762 18.9725 8.90651 19.6644 9.64287 19.6401C9.96683 19.6289 10.1999 19.5376 10.4411 19.4431C10.7188 19.3344 11.0072 19.2214 11.4576 19.2214C11.8924 19.2214 12.1682 19.3314 12.433 19.4371C12.6847 19.5375 12.9265 19.6339 13.2854 19.628C14.0481 19.6158 14.5281 18.9968 14.9949 18.3657C15.4987 17.6882 15.7201 17.0271 15.7537 16.9268L15.7576 16.9152C15.7576 16.9152 15.7506 16.9118 15.7396 16.9072C15.5712 16.836 14.284 16.2921 14.2717 14.8335C14.2593 13.6093 15.2926 12.989 15.4553 12.8914C15.4652 12.8854 15.4719 12.8814 15.4749 12.8794C14.8174 11.9811 13.7917 11.884 13.4366 11.8597ZM18.7164 19.5612V10.0998H22.5628C24.5484 10.0998 25.9358 11.3621 25.9358 13.207C25.9358 15.052 24.5221 16.3265 22.5102 16.3265H20.3076V19.5612H18.7164ZM20.3074 11.3378H22.1418C23.5226 11.3378 24.3116 12.0176 24.3116 13.2132C24.3116 14.4087 23.5226 15.0945 22.1353 15.0945H20.3074V11.3378ZM31.1892 18.4264C30.7684 19.1667 29.8413 19.6341 28.842 19.6341C27.3625 19.6341 26.3303 18.8208 26.3303 17.5949C26.3303 16.3811 27.3297 15.6832 29.1773 15.58L31.1629 15.4707V14.9489C31.1629 14.1781 30.6172 13.7593 29.6441 13.7593C28.842 13.7593 28.2567 14.1417 28.1384 14.7243H26.7051C26.7511 13.4984 28.0003 12.6062 29.6901 12.6062C31.5114 12.6062 32.6949 13.4862 32.6949 14.8518V19.5612H31.2221V18.4264H31.1892ZM29.2692 18.5113C28.421 18.5113 27.8819 18.1351 27.8819 17.5585C27.8819 16.9638 28.4013 16.6178 29.3941 16.5632L31.1628 16.46V16.9941C31.1628 17.8802 30.3475 18.5113 29.2692 18.5113ZM37.58 19.9314C36.9423 21.5883 36.2124 22.1345 34.6608 22.1345C34.5424 22.1345 34.1479 22.1224 34.0558 22.0981V20.9632C34.1544 20.9753 34.3978 20.9874 34.5227 20.9874C35.2262 20.9874 35.6207 20.7143 35.864 20.0043L36.0086 19.5855L33.3129 12.6973H34.9763L36.8502 18.2868H36.8831L38.757 12.6973H40.3744L37.58 19.9314Z" fill="black"/>
</g>
<defs>
<clipPath id="clip0_35_16728">
<rect width="47" height="30" fill="white" transform="translate(0 0.5)"/>
</clipPath>
</defs>
</svg>
