<svg width="43" height="43" fill="none" xmlns="http://www.w3.org/2000/svg"><ellipse cx="21.5" cy="21.414" rx="21.5" ry="21.164" fill="#142245"/><path d="M28.254 14.287a.862.862 0 011.226 0l5.758 5.798a2.63 2.63 0 01.001 3.702l-5.694 5.739a.862.862 0 01-1.226 0 .877.877 0 010-1.235l5.696-5.735a.877.877 0 000-1.234l-5.761-5.801a.877.877 0 010-1.234zm-13.508 0a.862.862 0 00-1.226 0l-5.758 5.798a2.63 2.63 0 00-.001 3.702l5.695 5.739c.338.34.887.34 1.225 0a.877.877 0 000-1.235l-5.696-5.735a.877.877 0 010-1.234l5.761-5.801a.877.877 0 000-1.234z" fill="#fff"/></svg>