<svg width="24" height="22" fill="none" xmlns="http://www.w3.org/2000/svg"><g clip-path="url(#clip0_32_4456)"><path d="M23.291 10.567v.82c0 .313-.141.626-.425.871-3.284 2.846-6.57 5.69-9.855 8.537-.277.24-.605.363-.995.363v-.82c.39 0 .718-.124.995-.364l9.855-8.536c.284-.246.425-.558.425-.87zm-22.582.817v-.821c0 .345.157.688.446.938 3.245 2.814 6.493 5.625 9.74 8.438.304.264.673.386 1.121.399v.82c-.448-.012-.817-.134-1.121-.398-3.247-2.813-6.495-5.624-9.74-8.438a1.249 1.249 0 01-.446-.938z" fill="#83C1D5"/><path d="M11.972.795c.38 0 .762.126 1.053.377 3.28 2.84 6.56 5.68 9.84 8.522.568.492.569 1.252.001 1.743l-9.855 8.537c-.277.24-.605.363-.995.363-.448-.012-.817-.134-1.121-.398-3.247-2.813-6.495-5.624-9.74-8.438-.459-.398-.585-1.027-.279-1.53.092-.15.203-.277.34-.394l9.708-8.408c.289-.25.668-.374 1.048-.374z" fill="#71AFC6"/><path d="M10.564 7.298c-.575.224-1.044.523-1.406.896.003-.154.005-.266.005-.399.36-.37.829-.667 1.401-.89a3.965 3.965 0 011.438-.255h.002c1.354 0 2.572.635 3.225 1.646v.394c-.653-1.011-1.87-1.646-3.225-1.646a3.963 3.963 0 00-1.44.254z" fill="#112E3A"/><path d="M15.7 9.846v.393c0-.36-.068-.715-.214-1.064-.543-1.289-1.922-2.13-3.482-2.13a4.57 4.57 0 00-.604.04V6.69c.198-.027.4-.04.604-.04 1.56 0 2.939.841 3.482 2.13.146.349.214.704.214 1.065z" fill="#112E3A"/><path d="M11.4 6.691v.394a3.678 3.678 0 00-.772.19V6.88c.25-.092.507-.153.772-.19zm-.772.189v.395a4.494 4.494 0 00-.852.42V7.3a4.493 4.493 0 01.852-.42zm-.852.42v.395a3.338 3.338 0 00-.756.652v-.394a3.34 3.34 0 01.756-.652z" fill="#112E3A"/><path d="M8.476 9.298v-.394c.15-.423.38-.792.687-1.108 0 .028 0 .114-.002.223 0 .033 0 .067-.002.1v.025l-.001.05a3.016 3.016 0 00-.682 1.104z" fill="#112E3A"/><path d="M9.776 7.3v.395a3.338 3.338 0 00-.756.652v-.394a3.34 3.34 0 01.756-.652zm-.756.653v.394a3.099 3.099 0 00-.718 1.768v-.393a3.098 3.098 0 01.718-1.769zm2.984-.032c0-.146 0-.277-.002-.394h.002c1.298.002 2.39.795 2.666 1.848v.394c-.276-1.053-1.368-1.846-2.666-1.848z" fill="#112E3A"/><path d="M14.736 9.9v.393c.003-1.302-1.226-2.37-2.732-2.372-.144 0-.286.01-.425.029v-.394c.141-.02.283-.029.425-.029 1.506.003 2.735 1.07 2.732 2.373zm-6.413.007v-.394a3.406 3.406 0 01.153-.61v.394a3.406 3.406 0 00-.153.61z" fill="#112E3A"/><path d="M9.02 7.953v.394a3.099 3.099 0 00-.718 1.768v-.393a3.098 3.098 0 01.718-1.769zm6.21.737v-.392c.099.154.184.316.256.485a2.715 2.715 0 01.214 1.064v.394c0-.36-.068-.716-.214-1.064a3.133 3.133 0 00-.257-.485z" fill="#112E3A"/><path d="M15.7 9.846v.393c0-.36-.068-.715-.214-1.064-.543-1.289-1.922-2.13-3.482-2.13a4.57 4.57 0 00-.604.04V6.69c.198-.027.4-.04.604-.04 1.56 0 2.939.841 3.482 2.13.146.349.214.704.214 1.065zm-7.377.061a2.57 2.57 0 00-.026.362v-.394c0-.12.009-.24.026-.361v.393z" fill="#112E3A"/><path d="M9.02 7.953v.394a3.099 3.099 0 00-.718 1.768v-.393a3.098 3.098 0 01.718-1.769zm-.718 1.769v.394a2.578 2.578 0 00-.005.153v-.393c0-.052.002-.103.005-.154zm3.701-1.801c-1.504 0-2.733 1.066-2.734 2.37v-.395c.001-1.302 1.23-2.367 2.733-2.369l.001.394z" fill="#112E3A"/><path d="M14.736 9.9v.393c.003-1.302-1.226-2.37-2.732-2.372-.144 0-.286.01-.425.029v-.394c.141-.02.283-.029.425-.029 1.506.003 2.735 1.07 2.732 2.373z" fill="#112E3A"/><path d="M11.58 7.556v.393c-.218.03-.431.083-.637.158v-.394c.206-.075.42-.128.636-.157zm-.637.157v.394a2.874 2.874 0 00-.556.275v-.394c.171-.109.358-.202.556-.275zm-.556.275v.394a2.615 2.615 0 00-.587.51v-.394a2.65 2.65 0 01.587-.51zm-.587.51v.394c-.306.36-.498.798-.528 1.272V9.77c.03-.474.222-.911.528-1.272z" fill="#112E3A"/><path d="M9.273 9.77v.393a2.09 2.09 0 00-.004.126v-.393c0-.043.001-.085.004-.126zm5.463.523c0-.177-.022-.353-.067-.524v-.394c.045.171.068.348.067.525v.393z" fill="#112E3A"/><path d="M14.736 9.9v.393c.003-1.302-1.226-2.37-2.732-2.372-.144 0-.286.01-.425.029v-.394c.141-.02.283-.029.425-.029 1.506.003 2.735 1.07 2.732 2.373z" fill="#112E3A"/><path d="M9.877 10.277v.035-.429a1.7 1.7 0 01.275-.885c.364-.564 1.05-.944 1.827-.944h.043c1.174.021 2.106.838 2.106 1.835v.394c0-.998-.932-1.814-2.106-1.835h-.043c-1.137 0-2.08.815-2.102 1.829z" fill="#fff"/><path d="M14.128 9.888v.394c0-.997-.932-1.813-2.106-1.834h-.043c-.108 0-.214.007-.318.021v-.394c.12-.016.24-.023.361-.02 1.174.02 2.106.836 2.106 1.833zM11.66 8.075v.394a2.29 2.29 0 00-.48.12v-.395a2.29 2.29 0 01.48-.119zm-.48.12v.393c-.15.055-.292.125-.426.21v-.393a2.19 2.19 0 01.426-.21z" fill="#fff"/><path d="M10.755 8.405V8.8a2.039 2.039 0 00-.457.397v-.394c.13-.152.284-.286.457-.397z" fill="#fff"/><path d="M10.298 8.802v.394a1.732 1.732 0 00-.419 1.014v-.394a1.73 1.73 0 01.42-1.014zM9.88 9.816v.394a1.687 1.687 0 00-.003.102v-.394l.003-.102z" fill="#fff"/><path d="M14.128 9.889v.431c-.024 1.003-.97 1.815-2.105 1.815a2.1 2.1 0 01-.035 0c-1.17-.017-2.112-.835-2.112-1.823v-.394c0 .988.943 1.806 2.112 1.823h.035c1.136 0 2.081-.811 2.104-1.815V9.89z" fill="#112E3A"/><path d="M14.128 9.889v.393l-.003.102V9.99a1.682 1.682 0 00.003-.101zm-.003.101v.394a1.71 1.71 0 01-.414 1v-.393c.24-.283.39-.628.414-1zm-.414 1v.394c-.13.153-.284.287-.459.398v-.393a2.04 2.04 0 00.459-.398zm-.459.399v.393a2.213 2.213 0 01-.428.212V11.6a2.24 2.24 0 00.428-.211z" fill="#112E3A"/><path d="M12.825 11.6v.394a2.3 2.3 0 01-.483.12v-.394c.165-.023.326-.063.482-.12zm-.483.12v.394a2.37 2.37 0 01-.354.02c-1.17-.016-2.112-.835-2.112-1.822v-.394c0 .988.943 1.806 2.112 1.823.118.002.237-.005.354-.021z" fill="#112E3A"/><path d="M14.737 9.9v.393c-.003 1.303-1.232 2.37-2.729 2.37-1.514-.004-2.742-1.07-2.74-2.373v-.394c-.001 1.303 1.226 2.37 2.74 2.373 1.497 0 2.726-1.067 2.729-2.37z" fill="#112E3A"/><path d="M14.736 9.9v.393c0 .042-.001.084-.004.126v-.394c.003-.042.004-.083.004-.126zm-.004.125v.394c-.03.474-.221.912-.528 1.273v-.394c.307-.36.499-.799.528-1.273zm-.528 1.274v.393a2.615 2.615 0 01-.588.51v-.393a2.62 2.62 0 00.588-.51zm-.588.51v.394a2.81 2.81 0 01-.555.274v-.394a2.86 2.86 0 00.555-.274zm-.555.275v.393a3.013 3.013 0 01-.632.157v-.394c.216-.029.428-.082.632-.156zm-.632.156v.394a3.12 3.12 0 01-.421.029c-1.514-.004-2.742-1.07-2.74-2.373v-.394c-.001 1.303 1.226 2.37 2.74 2.373.143 0 .284-.01.42-.029z" fill="#112E3A"/><path d="M15.7 9.846v.393c0 .18-.017.363-.05.546-.077.434-.28.828-.507 1.213-.649 1.1-1.564 2.016-2.617 2.835-.153.12-.312.234-.466.353-.022.016-.04.025-.057.025s-.035-.008-.057-.024c-.977-.71-1.86-1.495-2.568-2.42a6.489 6.489 0 01-.873-1.472 2.69 2.69 0 01-.208-1.026v-.394c0 .347.07.691.208 1.027a6.49 6.49 0 00.873 1.472c.708.924 1.59 1.71 2.568 2.42.022.015.04.023.057.023.018 0 .035-.008.057-.025.154-.118.313-.233.466-.352 1.053-.82 1.968-1.737 2.617-2.836.227-.385.43-.778.507-1.212a3.09 3.09 0 00.05-.546z" fill="#112E3A"/><path d="M15.7 9.846v.393c0 .059-.002.118-.005.177v-.394c.004-.059.005-.118.005-.176zm-.005.176v.394a3.212 3.212 0 01-.044.37c-.078.434-.28.827-.508 1.212-.24.406-.516.788-.822 1.148v-.394c.306-.36.583-.742.822-1.148.228-.385.43-.778.508-1.212.022-.123.036-.246.044-.37zm-1.374 2.73v.394a12.018 12.018 0 01-1.795 1.687c-.153.12-.312.234-.466.353a.18.18 0 01-.015.01v-.393a.21.21 0 00.015-.01c.154-.12.313-.234.466-.353a12.014 12.014 0 001.795-1.688zm-2.276 2.05v.394a.115.115 0 01-.02.01v-.393a.119.119 0 00.02-.01zm-.02.011v.394a.061.061 0 01-.014.003v-.393l.014-.004zm-.015.003v.394h-.007c-.017 0-.035-.007-.057-.023-.977-.71-1.86-1.496-2.568-2.42a6.487 6.487 0 01-.873-1.472 2.69 2.69 0 01-.208-1.026v-.394c0 .347.07.69.208 1.026.215.524.519 1.01.873 1.472.708.925 1.591 1.71 2.568 2.42.022.016.04.024.057.024h.008z" fill="#112E3A"/><path d="M15.954 8.37c.319.63.419 1.285.324 1.97-.088.632-.39 1.193-.735 1.742-.51.808-1.17 1.52-1.912 2.175a15.86 15.86 0 01-1.393 1.09.412.412 0 01-.236.089.378.378 0 01-.218-.08c-1.013-.71-1.938-1.495-2.695-2.418-.517-.631-.971-1.296-1.222-2.044-.3-.89-.225-1.766.233-2.61.467-.86 1.212-1.476 2.213-1.859a4.676 4.676 0 011.241-.282c.032 0 .046-.001.051-.019h.736c.166.024.333.044.498.073.74.13 1.398.408 1.971.834.499.371.88.818 1.144 1.339zm-.304 2.022a2.794 2.794 0 00-.164-1.61c-.543-1.289-1.922-2.131-3.482-2.131a3.963 3.963 0 00-1.44.254c-1.21.472-1.953 1.273-2.204 2.404-.12.54-.067 1.076.145 1.593.215.523.519 1.01.873 1.472.708.924 1.591 1.71 2.569 2.42.021.016.039.024.056.024.018 0 .036-.009.057-.025.154-.12.313-.233.466-.353 1.053-.82 1.969-1.736 2.617-2.835.228-.385.43-.779.507-1.213z" fill="#58AED0"/><path d="M12 7.527c1.51.003 2.739 1.07 2.736 2.373-.002 1.302-1.23 2.369-2.728 2.369-1.514-.004-2.742-1.07-2.74-2.373C9.27 8.593 10.5 7.527 12 7.527zm.023 4.215c1.136 0 2.081-.812 2.104-1.815.024-1.014-.916-1.85-2.105-1.872h-.043c-1.137 0-2.08.815-2.102 1.828-.023 1.004.928 1.841 2.11 1.859h.036z" fill="#fff"/><path d="M15.486 8.782c.22.522.263 1.06.165 1.61-.078.434-.28.827-.508 1.212-.648 1.1-1.564 2.016-2.617 2.836-.153.119-.312.233-.466.352-.021.017-.039.025-.057.025-.017 0-.035-.008-.057-.024-.977-.71-1.86-1.495-2.568-2.42a6.49 6.49 0 01-.873-1.472 2.63 2.63 0 01-.145-1.593c.25-1.13.994-1.932 2.204-2.403a3.961 3.961 0 011.437-.255c1.563 0 2.942.843 3.485 2.132zM12 12.268c1.505 0 2.735-1.067 2.737-2.37.002-1.302-1.227-2.369-2.733-2.371-1.505 0-2.733 1.065-2.735 2.369-.003 1.302 1.225 2.368 2.731 2.372z" fill="#fff"/><path d="M16.312 9.852v.394c0 .16-.011.323-.034.488-.088.632-.39 1.193-.735 1.742-.51.808-1.17 1.52-1.912 2.175a15.86 15.86 0 01-1.393 1.09.412.412 0 01-.236.089.378.378 0 01-.218-.079c-1.013-.71-1.938-1.496-2.695-2.42-.517-.63-.971-1.295-1.222-2.042a3.31 3.31 0 01-.18-1.057v-.394c0 .35.06.702.18 1.057.25.748.705 1.412 1.222 2.043.757.923 1.682 1.708 2.695 2.42a.378.378 0 00.218.078c.076 0 .153-.03.236-.088.487-.343.954-.703 1.393-1.09.743-.656 1.402-1.367 1.912-2.176.345-.548.647-1.11.735-1.742.023-.164.034-.327.034-.488z" fill="#112E3A"/><path d="M16.312 9.852v.393c0 .069-.002.137-.006.206v-.394c.004-.069.006-.137.006-.205zm-.006.205v.394a3.71 3.71 0 01-.028.282c-.088.633-.39 1.194-.735 1.742-.214.339-.453.66-.714.968v-.394c.26-.308.5-.63.714-.968.345-.548.647-1.109.735-1.742a3.66 3.66 0 00.028-.282zm-1.477 2.992v.394c-.363.427-.766.826-1.198 1.208a16.153 16.153 0 01-1.419 1.108v-.394a16.194 16.194 0 001.419-1.108 11.87 11.87 0 001.198-1.208zm-2.617 2.317v.393a.502.502 0 01-.097.05v-.394a.502.502 0 00.097-.05zm-.097.049v.394a.341.341 0 01-.072.018v-.394a.345.345 0 00.072-.018zm-.072.018v.394a.28.28 0 01-.04.003.378.378 0 01-.219-.079c-1.013-.71-1.938-1.496-2.695-2.42-.517-.63-.971-1.295-1.222-2.042a3.31 3.31 0 01-.18-1.057v-.394c0 .35.06.702.18 1.057.25.748.705 1.412 1.222 2.043.757.923 1.682 1.708 2.695 2.42a.378.378 0 00.218.078.31.31 0 00.04-.003z" fill="#112E3A"/></g><defs><clipPath id="clip0_32_4456"><path fill="#fff" d="M0 0h24v22H0z"/></clipPath></defs></svg>