<svg width="18" height="24" fill="none" xmlns="http://www.w3.org/2000/svg"><g clip-path="url(#clip0_32_4451)"><path d="M10.019 4.167L4.654 5.31l-2.255 5.137 1.585 7.443 11.773-2.507L14.17 7.94l-4.15-3.773zM8.568 10.52a1.947 1.947 0 11-.812-3.81 1.947 1.947 0 01.812 3.81z" fill="#947C31"/><path d="M15.885 15.986a.617.617 0 00.475-.732l-1.585-7.443a.617.617 0 00-.188-.329L10.434 3.71a.617.617 0 00-.543-.147l-2.08.443-.232-1.093a.617.617 0 10-1.208.257l.233 1.093-2.079.443a.617.617 0 00-.437.355L1.834 10.2a.617.617 0 00-.039.376l2.6 12.203a.617.617 0 00.731.475L16.9 20.746a.617.617 0 00.475-.733l-.315-1.481a.617.617 0 00-1.208.257l.187.878-10.565 2.25-.756-3.552 11.168-2.379zM3.044 10.513l2.048-4.666 1.77-.377.178.84a2.569 2.569 0 00-1.386 2.839 2.567 2.567 0 003.042 1.974A2.567 2.567 0 0010.67 8.08a2.568 2.568 0 00-2.423-2.029l-.178-.839 1.77-.377 3.77 3.426 1.415 6.646-10.565 2.25-1.415-6.645zm4.841-3.199a1.331 1.331 0 011.578 1.024 1.331 1.331 0 01-1.024 1.577 1.331 1.331 0 01-1.578-1.023 1.331 1.331 0 011.024-1.578z" fill="#664D03"/></g><defs><clipPath id="clip0_32_4451"><path fill="#fff" transform="rotate(-12.023 18.5 1.948)" d="M0 0h14v20H0z"/></clipPath></defs></svg>