<svg width="20" height="26" fill="none" xmlns="http://www.w3.org/2000/svg"><g clip-path="url(#clip0_32_4506)"><path d="M14.875 5.883c2.446 1.531 4.063 4.186 4.063 7.203 0 3.016-1.617 5.671-4.063 7.202A9.096 9.096 0 0110 21.68a9.096 9.096 0 01-4.875-1.392c-2.446-1.531-4.063-4.186-4.063-7.202 0-3.017 1.617-5.672 4.063-7.203A9.096 9.096 0 0110 4.493c1.804 0 3.477.507 4.875 1.39z" fill="#FFC44D"/><path d="M14.875 20.289v4.125c0 .22-.179.39-.406.39H5.53a.394.394 0 01-.406-.39v-4.125A9.096 9.096 0 0010 21.679a9.096 9.096 0 004.875-1.39zm0-18.531v4.125A9.096 9.096 0 0010 4.493a9.096 9.096 0 00-4.875 1.39V1.758a.4.4 0 01.406-.39h8.938a.4.4 0 01.406.39z" fill="#668077"/><path d="M10 7.617v5.473l2.438 2.341M5.125 2.93V1.762c0-.216.182-.395.406-.395h8.938c.224 0 .406.18.406.395V2.93m0 20.312v1.176a.396.396 0 01-.406.387H5.53a.396.396 0 01-.406-.387v-1.176M18.938 13.09c0-4.746-4.002-8.594-8.938-8.594-4.936 0-8.938 3.848-8.938 8.594 0 4.746 4.002 8.593 8.938 8.593 4.936 0 8.938-3.847 8.938-8.593z" stroke="#973D06" stroke-width="1.656" stroke-linecap="round" stroke-linejoin="round"/></g><defs><clipPath id="clip0_32_4506"><path fill="#fff" transform="translate(0 .586)" d="M0 0h20v25H0z"/></clipPath></defs></svg>