<svg width="19" height="19" fill="none" xmlns="http://www.w3.org/2000/svg"><g clip-path="url(#clip0_32_4502)"><path d="M10.736 0c-.117.33-.18.685-.18 1.056 0 .809.303 1.547.803 2.107L9.496 5.025A3.167 3.167 0 004.222 7.39v3.958a3.43 3.43 0 003.43 3.43h3.96a3.167 3.167 0 002.363-5.273l1.862-1.863c.56.5 1.298.803 2.107.803.37 0 .726-.063 1.056-.18v8.625A2.111 2.111 0 0116.889 19H2.11A2.111 2.111 0 010 16.889V2.11A2.11 2.11 0 012.111 0h8.625zm6.945 0C18.409 0 19 .59 19 1.32v3.958a1.056 1.056 0 01-2.111 0V3.604l-6.952 6.952h1.674a1.056 1.056 0 110 2.11H7.653a1.32 1.32 0 01-1.32-1.319V7.39a1.056 1.056 0 012.111 0v1.674l6.952-6.952h-1.674a1.055 1.055 0 110-2.111h3.959z" fill="#2D9416"/></g><defs><clipPath id="clip0_32_4502"><path fill="#fff" d="M0 0h19v19H0z"/></clipPath></defs></svg>