<svg width="20" height="20" fill="none" xmlns="http://www.w3.org/2000/svg"><g clip-path="url(#clip0_0_582)"><path d="M20 17.778A2.222 2.222 0 0117.778 20H2.222A2.222 2.222 0 010 17.778V2.222A2.222 2.222 0 012.222 0h15.556A2.222 2.222 0 0120 2.222v15.556z" fill="#142245"/><path d="M16.267 3.534a1.39 1.39 0 00-1.921.41l-6.048 9.321-2.794-2.583a1.39 1.39 0 10-1.886 2.04l4.005 3.702a1.387 1.387 0 002.109-.263c.184-.281 6.944-10.705 6.944-10.705a1.39 1.39 0 00-.41-1.922z" fill="#fff"/></g><defs><clipPath id="clip0_0_582"><path fill="#fff" d="M0 0h20v20H0z"/></clipPath></defs></svg>