<svg width="24" height="30" viewBox="0 0 24 30" fill="none" xmlns="http://www.w3.org/2000/svg">
<g clip-path="url(#clip0_52_5075)">
<path fill-rule="evenodd" clip-rule="evenodd" d="M12 8.4375C10.4466 8.4375 9.1875 9.69656 9.1875 11.25C9.1875 12.8034 10.4466 14.0625 12 14.0625C13.5534 14.0625 14.8125 12.8034 14.8125 11.25C14.8125 9.69656 13.5534 8.4375 12 8.4375ZM12 15.9375C9.41156 15.9375 7.3125 13.8394 7.3125 11.25C7.3125 8.66062 9.41156 6.5625 12 6.5625C14.5884 6.5625 16.6875 8.66062 16.6875 11.25C16.6875 13.8394 14.5884 15.9375 12 15.9375ZM12 0C5.78719 0 0.75 5.03719 0.75 11.25C0.75 15.9544 10.1297 30.0103 12 30C13.8413 30.0103 23.25 15.8906 23.25 11.25C23.25 5.03719 18.2128 0 12 0Z" fill="#142245"/>
</g>
<defs>
<clipPath id="clip0_52_5075">
<rect width="24" height="30" fill="white"/>
</clipPath>
</defs>
</svg>
