<svg width="30" height="30" viewBox="0 0 30 30" fill="none" xmlns="http://www.w3.org/2000/svg">
<path d="M8.51729 1.05409C8.51729 1.05409 8.01416 0 7.24576 0C6.48954 0 6.09619 0.312273 5.83396 0.527727C5.57172 0.743182 1.18386 3.96818 1.18386 3.96818C1.18386 3.96818 -0.0922523 4.965 0.00532353 6.84C0.0876531 8.715 0.497776 11.3836 2.62615 15.1009C4.73928 18.81 10.0282 24.4773 13.3702 26.4695C13.3702 26.4695 16.4667 28.5941 19.3482 29.4573C20.1852 29.6932 21.8593 30 22.2496 30C22.646 30 23.3458 30 24.1492 29.475C24.9664 28.9445 29.551 25.6473 29.551 25.6473C29.551 25.6473 30.6731 24.7405 29.3696 23.6864C28.0599 22.6323 24.0837 20.2882 23.2329 19.6718C22.3807 19.0459 21.1671 19.3214 20.6426 19.7455C20.1197 20.1723 19.1851 20.8745 19.0707 20.9632C18.9 21.0805 18.4319 21.4609 17.9074 21.2714C17.2397 21.0355 14.5014 19.7059 11.9629 16.5995C9.43969 13.4959 9.16221 12.4814 8.78562 11.385C8.72176 11.2229 8.72088 11.0463 8.78313 10.8837C8.84538 10.7212 8.96712 10.5821 9.12866 10.4891C9.50677 10.2545 10.8988 9.21682 10.8988 9.21682C10.8988 9.21682 11.7998 8.42182 11.4232 7.485C11.0466 6.54818 8.51729 1.05409 8.51729 1.05409Z" fill="#142245"/>
</svg>
