<svg width="47" height="31" viewBox="0 0 47 31" fill="none" xmlns="http://www.w3.org/2000/svg">
<g clip-path="url(#clip0_35_16731)">
<path d="M43.7586 1.09113H3.24136C1.67496 1.09113 0.405151 2.24901 0.405151 3.67733V27.3227C0.405151 28.751 1.67496 29.9089 3.24136 29.9089H43.7586C45.325 29.9089 46.5948 28.751 46.5948 27.3227V3.67733C46.5948 2.24901 45.325 1.09113 43.7586 1.09113Z" fill="white" stroke="#F3F3F3" stroke-width="1.03448"/>
<path fill-rule="evenodd" clip-rule="evenodd" d="M22.6227 18.543V15.2097L24.6003 15.209C25.4156 15.2095 26.1008 14.9759 26.6559 14.5082C27.2169 14.0644 27.5305 13.4262 27.5145 12.7611C27.5256 12.0997 27.2126 11.4663 26.6559 11.0238C26.1057 10.5536 25.3657 10.2971 24.6003 10.3112H21.4258V18.543H22.6227ZM22.6227 14.1982V11.3247L24.63 11.324C25.0774 11.3129 25.5087 11.472 25.8143 11.7608C26.1219 12.025 26.2954 12.3878 26.2954 12.7667C26.2954 13.1456 26.1219 13.5085 25.8143 13.7726C25.5049 14.0554 25.075 14.2099 24.63 14.1982H22.6227Z" fill="#5F6368"/>
<path fill-rule="evenodd" clip-rule="evenodd" d="M32.3677 13.3535C31.8557 12.9357 31.1574 12.7269 30.2727 12.7269C29.1362 12.7269 28.278 13.0947 27.6981 13.8304L28.7524 14.4169C29.1419 13.9186 29.671 13.6694 30.3396 13.6694C30.7658 13.6651 31.1784 13.8027 31.4949 14.055C31.8105 14.2855 31.992 14.6292 31.9893 14.991V15.2327C31.5294 15.0028 30.944 14.8878 30.2333 14.8878C29.4007 14.8887 28.735 15.0612 28.2364 15.4054C27.7378 15.7495 27.4885 16.2131 27.4885 16.7958C27.4776 17.3265 27.7382 17.8333 28.1978 18.1752C28.6705 18.543 29.2581 18.7269 29.9604 18.7269C30.7832 18.7269 31.4423 18.4051 31.938 17.7614H31.99V18.543H33.1349V15.0717C33.1354 14.344 32.8796 13.7712 32.3677 13.3535ZM29.1211 17.5085C28.8704 17.3488 28.7225 17.0919 28.7241 16.8188C28.7241 16.5121 28.8869 16.2567 29.2148 16.0464C29.5394 15.8393 29.9448 15.7358 30.431 15.7358C31.0987 15.7358 31.6191 15.8671 31.9922 16.1299C31.9922 16.5739 31.794 16.9607 31.3975 17.2905C31.0404 17.606 30.5562 17.7836 30.0511 17.7844C29.7144 17.7899 29.3858 17.6925 29.1211 17.5085Z" fill="#5F6368"/>
<path fill-rule="evenodd" clip-rule="evenodd" d="M39.7069 12.9108L35.7102 21.0258H34.4746L35.9577 18.1863L33.3297 12.9108H34.6307L36.5302 16.9568H36.5562L38.4036 12.9108H39.7069Z" fill="#5F6368"/>
<path fill-rule="evenodd" clip-rule="evenodd" d="M17.7859 14.4912C17.7864 14.1689 17.7555 13.8472 17.6938 13.5296H12.6458V15.351H15.537C15.4175 15.9388 15.0313 16.4579 14.468 16.7881V17.9703H16.1935C17.2038 17.1473 17.7859 15.9303 17.7859 14.4912Z" fill="#4285F4"/>
<path fill-rule="evenodd" clip-rule="evenodd" d="M12.6459 19.1125C14.0904 19.1125 15.3066 18.6934 16.1935 17.9709L14.468 16.7887C13.9878 17.0763 13.3693 17.2405 12.6459 17.2405C11.2497 17.2405 10.0647 16.409 9.64094 15.2885H7.86334V16.5069C8.77193 18.1042 10.6224 19.1123 12.6459 19.1125Z" fill="#34A853"/>
<path fill-rule="evenodd" clip-rule="evenodd" d="M9.6409 15.2885C9.41684 14.7014 9.41684 14.0655 9.6409 13.4783V12.2599H7.8633C7.10335 13.596 7.10335 15.1709 7.8633 16.5069L9.6409 15.2885Z" fill="#FBBC04"/>
<path fill-rule="evenodd" clip-rule="evenodd" d="M12.6459 11.5263C13.4092 11.5152 14.1468 11.7701 14.6993 12.2357L16.227 10.8859C15.2582 10.082 13.9748 9.64069 12.6459 9.65436C10.6224 9.65443 8.77193 10.6626 7.86334 12.2599L9.64094 13.4783C10.0647 12.3578 11.2497 11.5263 12.6459 11.5263Z" fill="#EA4335"/>
</g>
<defs>
<clipPath id="clip0_35_16731">
<rect width="47" height="30" fill="white" transform="translate(0 0.5)"/>
</clipPath>
</defs>
</svg>
