<svg width="40" height="40" viewBox="0 0 40 40" fill="none" xmlns="http://www.w3.org/2000/svg">
<g clip-path="url(#clip0_35_11923)">
<path fill-rule="evenodd" clip-rule="evenodd" d="M8.6202 19.9996C8.6202 18.7006 8.83582 17.455 9.22113 16.2868L2.48051 11.1396C1.16676 13.8068 0.426758 16.8125 0.426758 19.9996C0.426758 23.1843 1.16613 26.1878 2.4777 28.8534L9.21457 23.6962C8.83301 22.5334 8.6202 21.2925 8.6202 19.9996Z" fill="#FBBC05"/>
<path fill-rule="evenodd" clip-rule="evenodd" d="M20.4554 8.18187C23.2776 8.18187 25.8266 9.18187 27.8295 10.8181L33.6557 5C30.1054 1.90906 25.5535 0 20.4554 0C12.5404 0 5.7379 4.52625 2.48071 11.14L9.22103 16.2872C10.7742 11.5728 15.2013 8.18187 20.4554 8.18187Z" fill="#EA4335"/>
<path fill-rule="evenodd" clip-rule="evenodd" d="M20.4554 31.8182C15.2017 31.8182 10.7745 28.4273 9.22134 23.7129L2.48071 28.8591C5.7379 35.4738 12.5404 40.0001 20.4554 40.0001C25.3404 40.0001 30.0045 38.2654 33.5048 35.0154L27.1066 30.0691C25.3013 31.2063 23.0279 31.8182 20.4554 31.8182Z" fill="#34A853"/>
<path fill-rule="evenodd" clip-rule="evenodd" d="M39.5731 19.9995C39.5731 18.8177 39.3909 17.5448 39.1178 16.3633H20.4553V24.0905H31.1978C30.6606 26.7252 29.1988 28.7505 27.1066 30.0686L33.5047 35.0148C37.1816 31.6023 39.5731 26.5186 39.5731 19.9995Z" fill="#4285F4"/>
</g>
<defs>
<clipPath id="clip0_35_11923">
<rect width="40" height="40" fill="white"/>
</clipPath>
</defs>
</svg>
