<svg width="279" height="70" viewBox="0 0 279 70" fill="none" xmlns="http://www.w3.org/2000/svg">
<path d="M27.6273 47.0017C27.2176 47.2359 26.7201 47.3529 26.164 47.3529C24.73 47.3529 23.5593 46.4164 23.5593 45.2165C23.5593 44.0459 24.7007 43.1093 26.0762 43.0801C25.6665 43.4898 25.4324 44.0166 25.4324 44.6019C25.4909 45.7433 26.3981 46.6798 27.6273 47.0017Z" fill="white"/>
<path d="M64.5906 41.7047C64.5906 53.9087 57.0106 64.3274 46.3285 68.5417C41.2654 70.5318 35.8805 66.4931 36.4365 61.0789C36.4365 61.0496 36.4365 61.0203 36.4365 60.9618C36.6121 59.5278 34.3586 58.24 33.0124 57.5962C31.6661 56.9523 30.9345 55.5183 31.6369 55.7524C32.3392 55.9866 35.9097 57.7133 42.2312 59.0595C48.5527 60.4057 49.4892 56.6597 49.46 55.7232C49.4014 54.7866 48.0259 53.9964 48.4649 52.8843C48.9039 51.7722 50.1331 51.0406 49.6941 50.3674C49.2258 49.6943 48.143 49.4895 48.8454 48.9627C49.5478 48.4359 50.5721 47.5872 50.0746 47.353C49.6063 47.0896 48.7576 46.4165 48.5234 45.6263C48.2893 44.8361 49.1088 44.2508 50.1038 43.4899C51.0989 42.729 51.6549 41.9973 49.577 40.9145C47.4991 39.8023 45.1286 37.0221 44.7188 35.5295C44.3091 34.0369 44.075 33.0711 43.6067 30.8469C43.1385 28.6519 40.007 26.574 40.007 26.574C39.0119 31.5785 38.1632 32.837 32.3392 35.5588C27.0713 38.0464 25.8129 37.9586 25.6373 37.9293C28.0371 39.0707 35.8219 35.3831 36.0268 35.2953C32.427 40.2706 25.6666 41.9973 22.5351 42.8168C19.4036 43.6362 17.2964 44.4557 16.4477 46.4165C15.599 48.3773 17.0038 49.2846 17.0038 49.2846C17.033 47.4994 18.3793 45.4215 19.9889 44.8361C21.5985 44.2508 22.2717 46.7384 23.3545 48.8749C24.4374 50.982 28.0664 48.7578 28.0664 48.7578C27.7445 51.6259 23.9398 51.0113 23.9398 51.0113C25.6373 56.5133 23.8813 60.7277 21.979 63.3324C20.8962 64.8542 18.7597 65.0883 17.3257 63.9177C17.2964 63.8884 17.2964 63.8884 17.2672 63.8592C16.3306 63.069 16.0965 61.7227 16.7404 60.6691V60.6399C17.3842 59.557 17.8817 58.3864 18.3207 57.245L18.6134 56.367C18.7012 56.0743 18.789 55.7817 18.8768 55.489C19.0524 54.9037 19.1695 54.2891 19.3158 53.7038C19.4329 53.1185 19.5207 52.5039 19.6377 51.8893C19.7255 51.2747 19.784 50.6894 19.8426 50.0748C19.6962 50.6601 19.5499 51.2454 19.4036 51.86C19.228 52.4453 19.0817 53.0307 18.8768 53.5867C18.6719 54.1428 18.4963 54.7281 18.2329 55.2842C18.1159 55.5476 17.9988 55.8402 17.8817 56.1036L17.5013 56.8938C16.9452 57.9474 16.3306 58.9717 15.6282 59.9082C15.599 59.9375 15.599 59.9668 15.5697 59.9668C15.0429 60.6691 13.9893 60.6691 13.4333 59.996C13.5211 59.9082 13.6089 59.7912 13.6967 59.6741C14.1942 59.0595 14.6332 58.3864 14.9551 57.684C15.0429 57.5084 15.1307 57.3328 15.1893 57.1572C15.2771 56.9816 15.3356 56.806 15.4234 56.6304L15.6282 56.0743L15.7746 55.5183C15.8916 55.1671 15.9502 54.7866 16.038 54.4062C16.0965 54.0257 16.155 53.6453 16.2136 53.2941C16.0965 53.6453 15.9794 53.9964 15.8331 54.3476C15.6868 54.6988 15.5405 55.0208 15.3649 55.372L15.1015 55.8695L14.8088 56.3377C14.721 56.4841 14.6039 56.6597 14.5161 56.806C14.3991 56.9523 14.3113 57.0987 14.1942 57.245C13.6967 57.8596 13.1699 58.4156 12.5553 58.9132L12.526 58.8839C10.7701 56.5133 9.97987 53.5575 10.3018 50.6308C10.4774 49.1968 10.653 47.7335 10.9457 46.358C11.3261 44.6898 11.8529 43.0509 12.7894 41.6754C13.2577 40.973 13.7845 40.3584 14.3991 39.8316L14.8673 39.4512L15.3649 39.1L15.8916 38.778L16.477 38.4854C17.9988 37.6952 19.6085 36.9928 21.2181 36.2904C22.8277 35.5588 24.4374 34.8856 26.0177 34.0369C27.5981 33.2175 29.12 32.2224 30.4369 31.0225C31.7539 29.8226 32.866 28.3885 33.5977 26.7789C32.6319 28.2422 31.432 29.5299 30.0565 30.5835C28.681 31.6371 27.1591 32.4565 25.608 33.2175C24.0276 33.9491 22.418 34.593 20.7791 35.2661C19.1402 35.9392 17.5305 36.6416 15.9209 37.4318L15.3356 37.7537L14.7503 38.1049L14.1649 38.5146L13.6089 38.9536C12.9065 39.5682 12.2919 40.2999 11.7944 41.0901C10.8286 42.6704 10.2725 44.4557 10.0091 46.2116C9.57015 48.8163 9.59941 51.3918 9.57015 53.9672C8.77996 52.299 8.16537 50.5723 7.72637 48.7578C7.58004 48.2017 7.58004 47.6164 7.66784 47.0311C7.81417 46.2409 7.98977 45.4507 8.2239 44.6898C8.66289 43.168 9.27748 41.6754 10.1262 40.2999C10.9749 38.9244 12.0285 37.6952 13.2577 36.6416C14.5161 35.6173 15.9209 34.7978 17.4135 34.0954C15.8916 34.6808 14.3698 35.3831 13.0236 36.3489C11.6773 37.3147 10.4774 38.5146 9.48235 39.8609C8.42876 41.2949 7.60931 42.9338 6.99472 44.6313C6.90692 43.6948 6.84839 42.7582 6.84839 41.7924C6.84839 25.9302 19.667 13.053 35.5 12.936C51.4501 12.7311 64.5906 25.7546 64.5906 41.7047Z" fill="white"/>
<path d="M27.6273 47.0017C27.2176 47.2359 26.7201 47.3529 26.164 47.3529C24.73 47.3529 23.5593 46.4164 23.5593 45.2165C23.5593 44.0459 24.7007 43.1093 26.0762 43.0801C25.6665 43.4898 25.4324 44.0166 25.4324 44.6019C25.4909 45.7433 26.3981 46.6798 27.6273 47.0017Z" fill="white"/>
<path d="M27.6273 47.0017C27.2176 47.2359 26.7201 47.3529 26.164 47.3529C24.73 47.3529 23.5593 46.4164 23.5593 45.2165C23.5593 44.0459 24.7007 43.1093 26.0762 43.0801C25.6665 43.4898 25.4324 44.0166 25.4324 44.6019C25.4909 45.7433 26.3981 46.6798 27.6273 47.0017Z" fill="white"/>
<path d="M26.1055 1.34668L28.2712 11.1216C24.6421 12.0288 21.1009 13.5799 17.8524 15.8627C14.516 18.1747 11.7943 21.0136 9.65786 24.2036L1.40479 18.2333L8.34088 18.3503L4.71187 12.5556L12.643 14.5165L9.89198 4.44889L18.1743 10.8289L19.2572 2.16613L23.53 8.28277L26.1055 1.34668Z" fill="white"/>
<path d="M9.21896 5.12151C10.1403 5.12151 10.8871 4.37463 10.8871 3.45333C10.8871 2.53202 10.1403 1.78516 9.21896 1.78516C8.29765 1.78516 7.55078 2.53202 7.55078 3.45333C7.55078 4.37463 8.29765 5.12151 9.21896 5.12151Z" fill="white"/>
<path d="M19.4619 2.9561C20.2216 2.9561 20.8374 2.34027 20.8374 1.58059C20.8374 0.820919 20.2216 0.205078 19.4619 0.205078C18.7023 0.205078 18.0864 0.820919 18.0864 1.58059C18.0864 2.34027 18.7023 2.9561 19.4619 2.9561Z" fill="white"/>
<path d="M4.27297 13.5498C5.03264 13.5498 5.64848 12.934 5.64848 12.1743C5.64848 11.4147 5.03264 10.7988 4.27297 10.7988C3.5133 10.7988 2.89746 11.4147 2.89746 12.1743C2.89746 12.934 3.5133 13.5498 4.27297 13.5498Z" fill="white"/>
<path d="M0.965781 18.9062C1.49917 18.9062 1.93157 18.4738 1.93157 17.9404C1.93157 17.407 1.49917 16.9746 0.965781 16.9746C0.432393 16.9746 0 17.407 0 17.9404C0 18.4738 0.432393 18.9062 0.965781 18.9062Z" fill="white"/>
<path d="M26.1054 1.93157C26.6388 1.93157 27.0712 1.49917 27.0712 0.965785C27.0712 0.432397 26.6388 0 26.1054 0C25.572 0 25.1396 0.432397 25.1396 0.965785C25.1396 1.49917 25.572 1.93157 26.1054 1.93157Z" fill="white"/>
<path d="M79.3698 55.1672C79.0479 55.1672 78.8137 55.1086 78.6381 54.9916C78.4626 54.8745 78.3748 54.7282 78.3748 54.5819C78.3748 54.3477 78.4626 54.1721 78.6674 54.0551C78.8723 53.938 79.0479 53.8502 79.2527 53.7917C80.2771 53.5283 81.0087 53.2356 81.477 52.8551C81.9452 52.4747 82.2086 51.8601 82.2086 50.9821V31.5786C82.2086 30.9348 82.1208 30.4372 81.9745 30.1153C81.8282 29.7641 81.5648 29.53 81.1843 29.3251C80.8039 29.1495 80.2478 28.9739 79.5161 28.8276C78.7845 28.6813 78.4333 28.3886 78.4333 27.9496C78.4333 27.774 78.5211 27.657 78.726 27.5399C78.9308 27.4521 79.1357 27.3936 79.3991 27.3936C80.1015 27.3936 80.7746 27.3936 81.4184 27.4228C82.0623 27.4521 82.6769 27.4814 83.2622 27.5106C83.8475 27.5399 84.4329 27.5399 85.0475 27.5399C85.6913 27.5399 86.3352 27.5399 87.0083 27.5106C87.6814 27.4814 88.3545 27.4521 89.0276 27.4228C89.73 27.3936 90.3739 27.3936 91.047 27.3936C91.3397 27.3936 91.5445 27.4521 91.7201 27.5399C91.8957 27.6277 91.9835 27.774 91.9835 27.9789C91.9835 28.213 91.8957 28.3886 91.7201 28.5057C91.5445 28.6227 91.2811 28.7398 90.93 28.8276C89.8471 29.1203 89.0277 29.4129 88.5009 29.7349C87.9741 30.0568 87.7107 30.6421 87.7107 31.4323V50.7187C87.7107 51.5382 87.8863 52.1235 88.2667 52.504C88.6179 52.8844 89.3203 53.06 90.3446 53.06H94.9394C95.5833 53.06 96.1686 52.9429 96.7247 52.7088C97.2514 52.4747 97.6904 52.2113 98.0416 51.8601C98.5392 51.4211 98.9782 50.9236 99.3001 50.4261C99.6513 49.9285 99.9732 49.3139 100.266 48.6408C100.471 48.2311 100.646 47.9092 100.822 47.675C100.998 47.4409 101.173 47.3238 101.319 47.3238C101.524 47.3238 101.671 47.4116 101.729 47.5872C101.817 47.7628 101.846 47.9677 101.846 48.1433C101.846 48.1726 101.846 48.2604 101.817 48.4067C101.788 48.553 101.788 48.6701 101.788 48.7579C101.554 49.5773 101.378 50.2797 101.232 50.865C101.085 51.4504 100.939 52.0357 100.851 52.5625C100.763 53.1185 100.676 53.7039 100.588 54.3477C100.559 54.5526 100.5 54.7282 100.412 54.8745C100.324 55.0208 100.149 55.1086 99.9147 55.1086C99.066 55.1086 98.0709 55.1086 96.871 55.0794C95.7003 55.0501 94.4419 55.0208 93.1249 55.0208C91.8079 55.0208 90.4617 54.9916 89.1447 54.9623C87.7985 54.933 86.54 54.933 85.3694 54.933C84.7548 54.933 84.0524 54.933 83.2329 54.9623C82.4428 54.9916 81.6818 55.0208 80.9794 55.0794C80.1893 55.1672 79.6917 55.1672 79.3698 55.1672Z" fill="white"/>
<path d="M104.187 55.1671C103.865 55.1671 103.631 55.1085 103.456 54.9915C103.28 54.8744 103.192 54.7281 103.192 54.5817C103.192 54.2305 103.544 53.9379 104.275 53.7915C105.3 53.5281 106.002 53.2355 106.441 52.855C106.88 52.4746 107.085 51.8307 107.085 50.8942V31.7834C107.085 30.8176 106.909 30.1445 106.529 29.764C106.148 29.3835 105.446 29.0616 104.392 28.8275C104.012 28.7397 103.719 28.6226 103.544 28.4763C103.368 28.33 103.28 28.1544 103.28 27.9788C103.28 27.7739 103.368 27.6276 103.544 27.5398C103.719 27.452 103.983 27.3934 104.275 27.3934C105.095 27.3934 105.885 27.3934 106.617 27.4227C107.348 27.452 108.08 27.4812 108.782 27.5105C109.485 27.5398 110.216 27.5398 110.977 27.5398C112.265 27.5398 113.64 27.5398 115.104 27.5105C116.567 27.4812 117.855 27.4812 118.996 27.4812C119.933 27.452 120.694 27.4227 121.308 27.3642C121.923 27.3056 122.274 27.2764 122.391 27.2764C122.596 27.2764 122.801 27.3056 123.006 27.3934C123.21 27.4812 123.328 27.6568 123.357 27.891C123.474 28.8275 123.62 29.7347 123.767 30.642C123.942 31.5492 124.03 32.3394 124.03 33.0125C124.03 33.2759 123.971 33.4515 123.854 33.5686C123.737 33.6857 123.591 33.7442 123.445 33.7442C123.298 33.7442 123.181 33.6857 123.064 33.5979C122.947 33.5101 122.859 33.3637 122.771 33.1589C122.537 32.515 122.332 31.959 122.128 31.4614C121.923 30.9932 121.718 30.6127 121.454 30.3493C121.074 29.9689 120.664 29.6469 120.196 29.4128C119.728 29.1787 119.142 29.0616 118.469 29.0616H114.548C114.05 29.0616 113.582 29.2079 113.143 29.5006C112.704 29.7933 112.499 30.203 112.499 30.759V39.0414C112.499 39.3633 112.587 39.5974 112.762 39.773C112.938 39.9486 113.172 40.0364 113.406 40.0364H117.299C118.06 40.0364 118.586 39.8316 118.938 39.3926C119.26 38.9828 119.523 38.3975 119.757 37.6659C119.962 37.1098 120.225 36.8171 120.547 36.8171C120.694 36.8171 120.811 36.9049 120.928 37.0513C121.045 37.1976 121.103 37.4025 121.103 37.6659C121.074 37.9585 121.045 38.2805 121.015 38.6902C120.986 39.0706 120.957 39.4804 120.957 39.8608C120.957 40.2413 120.928 40.5925 120.928 40.9144C120.928 41.2656 120.928 41.6461 120.957 42.0558C120.957 42.4655 120.986 42.9045 120.986 43.3142C120.986 43.724 121.015 44.0752 121.045 44.3386C121.074 44.6605 121.045 44.8946 120.986 45.0702C120.928 45.2458 120.811 45.3336 120.635 45.3336C120.196 45.3336 119.874 44.9532 119.669 44.163C119.435 43.3728 119.172 42.7875 118.879 42.3777C118.557 41.9973 118.147 41.7924 117.621 41.7924H113.64C113.26 41.7924 112.997 41.8509 112.792 41.9973C112.587 42.1436 112.499 42.407 112.499 42.7874V50.8064C112.499 51.7429 112.704 52.3868 113.084 52.738C113.465 53.1184 114.079 53.294 114.899 53.294H118.352C119.055 53.294 119.699 53.2355 120.284 53.0892C120.869 52.9428 121.367 52.738 121.776 52.416C122.245 52.0648 122.684 51.6258 123.064 51.0405C123.445 50.4552 123.825 49.8113 124.176 49.1089C124.293 48.8748 124.41 48.7285 124.527 48.67C124.644 48.6114 124.791 48.5529 124.937 48.5529C125.083 48.5822 125.171 48.67 125.259 48.8163C125.318 48.9626 125.376 49.109 125.376 49.2845C125.376 49.665 125.318 50.1918 125.171 50.8064C125.025 51.421 124.849 52.0648 124.644 52.738C124.44 53.4111 124.235 54.0257 124.088 54.5817C124.001 54.7866 123.884 54.9329 123.737 55.0207C123.591 55.1085 123.415 55.1671 123.24 55.1671C122.567 55.1671 121.689 55.1671 120.635 55.1378C119.581 55.1378 118.44 55.1085 117.182 55.0793C115.952 55.05 114.665 55.0207 113.377 55.0207C112.089 55.0207 110.831 54.9915 109.66 54.9915C109.075 54.9915 108.46 54.9915 107.875 55.0207C107.26 55.05 106.646 55.0793 106.031 55.1378C105.475 55.1671 104.861 55.1671 104.187 55.1671Z" fill="white"/>
<path d="M153.325 55.8693C152.126 55.8693 151.072 55.723 150.165 55.4596C149.257 55.1962 148.497 54.8158 147.853 54.289C147.209 53.7914 146.623 53.2061 146.067 52.5037C145.453 51.655 144.838 50.8356 144.253 50.0454C143.668 49.2552 143.053 48.3479 142.468 47.3822C141.853 46.4164 141.18 45.2457 140.448 43.8995C140.068 43.2556 139.629 42.7874 139.044 42.4654C138.663 42.2606 138.312 42.1142 137.931 42.0557C137.551 41.9679 137.229 41.9386 136.995 41.9386C136.819 41.9094 136.702 41.9679 136.614 42.1435C136.527 42.3191 136.497 42.524 136.497 42.7874V50.6307C136.497 51.5087 136.732 52.1818 137.2 52.6501C137.668 53.1183 138.458 53.4988 139.57 53.7622C139.922 53.8207 140.214 53.9085 140.361 54.0256C140.536 54.1426 140.624 54.3182 140.624 54.5524C140.624 54.7572 140.536 54.9036 140.39 54.9621C140.243 55.0499 140.009 55.0792 139.687 55.0792C139.044 55.0792 138.37 55.0499 137.697 55.0206C137.024 54.9914 136.38 54.9328 135.736 54.9036C135.093 54.8743 134.507 54.8743 133.951 54.8743C133.337 54.8743 132.693 54.8743 132.02 54.9036C131.347 54.9328 130.703 54.9621 130 55.0206C129.327 55.0792 128.654 55.1084 127.981 55.1084C127.718 55.1084 127.513 55.0499 127.308 54.9621C127.103 54.8743 127.015 54.728 127.015 54.5524C127.015 54.1426 127.366 53.85 128.069 53.7036C129.152 53.4695 129.883 53.1769 130.351 52.7671C130.79 52.3867 131.025 51.7135 131.025 50.777V32.1345C131.025 31.315 130.966 30.7004 130.849 30.2614C130.732 29.8224 130.469 29.5005 130.117 29.2664C129.737 29.0322 129.21 28.8859 128.478 28.7688C128.098 28.7103 127.805 28.5932 127.63 28.4177C127.454 28.2421 127.366 28.0665 127.366 27.9201C127.366 27.7153 127.454 27.5689 127.63 27.4811C127.805 27.3933 128.069 27.3348 128.361 27.3348C129.21 27.3348 129.883 27.3348 130.381 27.3641C130.878 27.3933 131.376 27.4226 131.844 27.4811C132.312 27.5104 132.868 27.5397 133.512 27.5397C134.127 27.5397 134.683 27.5104 135.151 27.4519C135.619 27.3933 136.175 27.3348 136.761 27.2763C137.346 27.2177 138.107 27.1885 139.044 27.1885C142.292 27.1885 144.75 27.7445 146.477 28.8859C148.204 29.998 149.053 31.7247 149.053 34.0368C149.053 35.2952 148.789 36.3781 148.262 37.256C147.736 38.134 147.062 38.8657 146.243 39.4217C145.453 39.9778 144.604 40.4168 143.785 40.7387C143.668 40.768 143.609 40.8265 143.638 40.9436C143.638 41.0607 143.697 41.1485 143.785 41.2362C144.633 42.524 145.453 43.7531 146.243 44.9238C147.033 46.0944 147.882 47.2066 148.789 48.2309C149.667 49.2845 150.633 50.2795 151.687 51.216C152.565 52.0355 153.443 52.5037 154.379 52.6793C155.286 52.8257 156.252 52.9135 157.218 52.9135C157.628 52.9135 157.862 53.1183 157.862 53.5573C157.862 54.1134 157.657 54.5524 157.218 54.8743C156.779 55.1962 156.252 55.4304 155.55 55.5767C154.847 55.7815 154.116 55.8693 153.325 55.8693ZM138.312 40.7095C139.453 40.7095 140.419 40.4461 141.209 39.9193C141.97 39.3925 142.585 38.6901 142.994 37.8414C143.404 36.9634 143.609 35.9976 143.609 34.9148C143.609 33.6563 143.463 32.5735 143.141 31.6955C142.819 30.8175 142.292 30.1151 141.56 29.6176C140.829 29.12 139.804 28.8859 138.487 28.8859C137.756 28.8859 137.258 29.1493 136.995 29.6761C136.732 30.2029 136.585 31.2565 136.556 32.8076C136.527 33.4514 136.527 34.3002 136.527 35.3537C136.527 36.4073 136.527 37.6658 136.527 39.1291C136.527 39.7437 136.702 40.1534 137.024 40.3875C137.288 40.5924 137.756 40.7095 138.312 40.7095Z" fill="white"/>
<path d="M172.7 55.5471C170.797 55.5471 168.954 55.2252 167.227 54.5521C165.471 53.879 163.949 52.9424 162.603 51.7133C161.257 50.4841 160.203 49.0208 159.442 47.3233C158.681 45.6259 158.271 43.7236 158.271 41.6457C158.271 39.7434 158.593 37.8996 159.208 36.1437C159.852 34.3877 160.788 32.8073 162.047 31.4318C163.305 30.0563 164.856 28.9442 166.7 28.154C168.544 27.3345 170.68 26.9248 173.109 26.9248C175.012 26.9248 176.856 27.2467 178.582 27.9199C180.309 28.593 181.86 29.5295 183.206 30.7587C184.553 31.9878 185.606 33.4512 186.396 35.1486C187.157 36.846 187.567 38.7483 187.567 40.8262C187.567 42.6993 187.245 44.543 186.63 46.299C185.987 48.0843 185.05 49.6354 183.792 51.0401C182.533 52.4157 180.982 53.5278 179.138 54.318C177.265 55.1374 175.129 55.5471 172.7 55.5471ZM173.431 53.7034C175.217 53.7034 176.68 53.2644 177.88 52.3571C179.08 51.4499 179.987 50.1914 180.572 48.5818C181.187 46.9721 181.48 45.0991 181.48 42.9919C181.48 41.1774 181.304 39.4507 180.924 37.7533C180.543 36.0559 179.987 34.5633 179.226 33.217C178.465 31.8708 177.529 30.8172 176.387 30.027C175.246 29.2368 173.9 28.8564 172.319 28.8564C170.534 28.8564 169.071 29.2954 167.871 30.2026C166.671 31.1099 165.793 32.3683 165.178 33.9487C164.593 35.5583 164.3 37.4021 164.3 39.5093C164.3 41.3238 164.476 43.0505 164.856 44.7479C165.208 46.4454 165.764 47.9672 166.525 49.3134C167.256 50.6597 168.222 51.7425 169.363 52.5327C170.475 53.2936 171.851 53.7034 173.431 53.7034Z" fill="white"/>
<path d="M217.477 55.723C217.126 55.723 216.57 55.5181 215.779 55.0791C214.989 54.6694 214.199 53.9377 213.38 52.8842C212.911 52.3574 212.326 51.6843 211.624 50.9233C210.921 50.1624 210.16 49.2844 209.341 48.3772C208.521 47.4407 207.643 46.4749 206.736 45.4506C205.829 44.4262 204.951 43.4312 204.044 42.4069C203.166 41.3826 202.288 40.4168 201.439 39.4802C200.59 38.5437 199.829 37.695 199.127 36.9341C198.425 36.1732 197.839 35.5 197.342 34.9147C197.225 34.7684 197.108 34.6513 196.991 34.5635C196.873 34.4757 196.756 34.4172 196.669 34.4172C196.552 34.4172 196.464 34.505 196.405 34.7099C196.347 34.9147 196.317 35.0903 196.317 35.2659C196.317 36.5536 196.317 38.1047 196.347 39.8607C196.347 41.6459 196.376 43.4312 196.376 45.275C196.376 47.1187 196.376 48.7869 196.376 50.338C196.376 51.216 196.639 51.9184 197.137 52.5037C197.634 53.0598 198.454 53.4695 199.537 53.7329C199.888 53.7914 200.151 53.8792 200.415 53.9963C200.649 54.1133 200.766 54.2889 200.766 54.5231C200.766 54.7279 200.649 54.8743 200.415 54.9328C200.181 55.0206 199.946 55.0499 199.654 55.0499C198.893 55.0499 198.278 55.0499 197.839 55.0206C197.4 54.9913 196.991 54.9621 196.61 54.9328C196.23 54.9035 195.791 54.9035 195.205 54.9035C194.62 54.9035 194.093 54.9035 193.625 54.9328C193.157 54.9621 192.747 54.9913 192.366 55.0499C191.986 55.0791 191.635 55.1084 191.313 55.1084C191.02 55.1084 190.786 55.0499 190.552 54.9621C190.318 54.8743 190.201 54.7279 190.201 54.5523C190.201 54.3182 190.318 54.1426 190.523 54.0255C190.728 53.9085 191.02 53.7914 191.401 53.6744C192.132 53.4402 192.659 53.0305 193.04 52.4159C193.391 51.8013 193.596 51.0989 193.683 50.2502C193.801 49.1674 193.918 47.7918 194.035 46.0359C194.152 44.3092 194.24 42.3483 194.357 40.1826C194.444 38.0169 194.503 35.7927 194.503 33.4807C194.503 32.0174 194.122 30.9638 193.391 30.3199C192.659 29.6761 191.723 29.1493 190.581 28.7688C190.376 28.7103 190.142 28.5932 189.82 28.4176C189.498 28.242 189.352 28.0372 189.352 27.7738C189.352 27.5104 189.469 27.364 189.703 27.2762C189.937 27.1884 190.172 27.1592 190.435 27.1592C191.02 27.1592 191.606 27.1592 192.22 27.1884C192.805 27.2177 193.42 27.247 194.005 27.247C194.62 27.247 195.235 27.2762 195.908 27.3055C196.581 27.3348 197.283 27.3348 198.044 27.3348C198.308 27.3348 198.483 27.3933 198.6 27.4811C198.717 27.5689 198.834 27.7152 198.951 27.8908C199.39 28.4176 199.976 29.0907 200.678 29.9102C201.38 30.7004 202.141 31.6076 202.99 32.5734C203.81 33.5392 204.688 34.5635 205.595 35.6464C206.502 36.7292 207.409 37.7828 208.346 38.8657C209.253 39.9485 210.131 40.9436 210.98 41.9386C211.828 42.9044 212.589 43.7824 213.292 44.6018C213.994 45.392 214.55 46.0651 214.989 46.5627C215.106 46.6797 215.223 46.8261 215.399 46.9724C215.545 47.148 215.692 47.2358 215.809 47.2358C216.043 47.2358 216.16 47.0017 216.189 46.5041C216.189 45.7725 216.189 44.836 216.189 43.6946C216.189 42.5532 216.189 41.2948 216.218 39.89C216.218 38.4852 216.218 37.0804 216.218 35.6171C216.218 34.1538 216.189 32.749 216.16 31.4028C216.131 30.7004 215.838 30.1443 215.282 29.7346C214.726 29.3249 214.053 29.0322 213.233 28.8566C212.882 28.7688 212.589 28.681 212.297 28.5347C212.004 28.4176 211.858 28.2128 211.858 27.9786C211.858 27.7738 212.004 27.6274 212.297 27.5689C212.589 27.4811 212.853 27.4518 213.116 27.4518C213.672 27.4518 214.141 27.4518 214.521 27.4518C214.901 27.4518 215.253 27.4518 215.604 27.4811C215.955 27.4811 216.306 27.5104 216.657 27.5104C217.272 27.5104 217.77 27.5104 218.179 27.4811C218.56 27.4811 218.999 27.4518 219.467 27.4226C219.935 27.3933 220.55 27.3933 221.311 27.3933C221.662 27.3933 221.925 27.4518 222.13 27.5396C222.335 27.6274 222.452 27.7738 222.452 27.9494C222.452 28.3591 222.042 28.681 221.223 28.8274C220.228 29.0322 219.555 29.2956 219.145 29.6175C218.735 29.9687 218.53 30.5248 218.501 31.315C218.501 32.0174 218.501 32.9246 218.472 34.0075C218.472 35.0903 218.443 36.2902 218.413 37.6072C218.384 38.8949 218.355 40.2119 218.296 41.5874C218.267 42.9337 218.238 44.2506 218.209 45.5676C218.209 46.8553 218.179 48.026 218.179 49.0796C218.179 49.7527 218.209 50.4551 218.267 51.1575C218.326 51.8598 218.384 52.4744 218.443 53.0305C218.501 53.5865 218.56 53.967 218.56 54.2011C218.56 54.8157 218.472 55.2547 218.267 55.4596C218.091 55.6059 217.828 55.723 217.477 55.723Z" fill="white"/>
<path d="M245.046 55.1377C244.431 55.1377 243.67 55.1377 242.822 55.1084C241.944 55.1084 240.978 55.0791 239.953 55.0791C238.9 55.0791 237.817 55.0499 236.705 55.0499C235.593 55.0499 234.481 55.0206 233.427 55.0206C232.461 55.0206 231.496 55.0206 230.53 55.0499C229.564 55.0499 228.598 55.0791 227.691 55.1084L224.442 55.1377C224.208 55.1377 224.062 54.9913 224.003 54.6694C223.945 54.3475 223.916 54.1719 223.945 54.1133C224.12 53.7914 224.325 53.411 224.589 52.972C224.852 52.533 225.145 52.0354 225.467 51.5379C225.789 51.0404 226.081 50.5721 226.374 50.1331C227.515 48.3772 228.627 46.709 229.71 45.0701C230.793 43.4312 231.847 41.8215 232.9 40.2704C233.954 38.6901 235.007 37.0804 236.09 35.4708C237.173 33.8319 238.256 32.1344 239.339 30.3492C239.397 30.2614 239.456 30.1736 239.514 30.0858C239.573 29.998 239.602 29.9102 239.602 29.8224C239.602 29.7053 239.544 29.6175 239.456 29.559C239.368 29.5005 239.163 29.4419 238.9 29.4127C238.315 29.4127 237.641 29.4127 236.88 29.3834C236.149 29.3834 235.388 29.3541 234.627 29.3541C234.012 29.3541 233.398 29.3541 232.842 29.3541C232.256 29.3541 231.73 29.3541 231.203 29.3834C230.208 29.4127 229.271 29.7346 228.364 30.3199C227.457 30.9052 226.754 31.754 226.198 32.8075C226.023 33.1295 225.818 33.4221 225.584 33.7441C225.35 34.066 225.028 34.2416 224.647 34.2416C224.442 34.2416 224.296 34.1831 224.237 34.066C224.15 33.9489 224.12 33.8026 224.12 33.627C224.12 33.4514 224.15 33.2758 224.237 33.071C224.296 32.8661 224.384 32.6612 224.413 32.5149C224.676 31.9588 224.881 31.4028 225.028 30.876C225.174 30.3492 225.32 29.7639 225.408 29.1785C225.496 28.564 225.584 27.9201 225.642 27.2177C225.701 26.8373 225.789 26.5446 225.906 26.4275C226.023 26.2812 226.198 26.2227 226.432 26.2227C226.667 26.2227 226.959 26.3397 227.31 26.6031C227.662 26.8665 228.013 27.0421 228.335 27.1884C228.774 27.364 229.301 27.4811 229.915 27.5689C230.53 27.6567 231.203 27.686 231.964 27.686C232.725 27.686 233.544 27.686 234.422 27.686C235.3 27.686 236.178 27.686 237.085 27.686C237.7 27.686 238.432 27.686 239.28 27.6567C240.129 27.6567 241.007 27.6274 241.914 27.6274C242.822 27.6274 243.7 27.5982 244.519 27.5689C245.338 27.5396 246.07 27.5396 246.685 27.5396C246.86 27.5396 247.007 27.6567 247.182 27.9201C247.329 28.1835 247.387 28.3591 247.329 28.4762L244.548 32.6612C243.436 34.3001 242.353 35.9098 241.329 37.4609C240.305 39.0413 239.31 40.5924 238.344 42.1435C237.378 43.6946 236.383 45.2457 235.417 46.7968C234.422 48.3479 233.427 49.9283 232.373 51.5379C232.139 51.9184 232.022 52.211 232.022 52.4744C232.022 52.65 232.081 52.7671 232.227 52.8842C232.373 52.972 232.578 53.0598 232.812 53.0598C233.251 53.089 233.837 53.1183 234.539 53.1476C235.242 53.1768 235.915 53.1768 236.529 53.1768C237.641 53.1768 238.636 53.1476 239.573 53.0598C240.509 53.0012 241.387 52.8549 242.178 52.65C243.904 52.211 245.221 50.777 246.187 48.3772C246.275 48.1723 246.392 48.026 246.538 47.8796C246.685 47.7626 246.86 47.7041 247.036 47.7041C247.387 47.7041 247.592 47.9089 247.592 48.2894C247.592 48.5528 247.533 48.9332 247.416 49.46C247.299 49.9868 247.182 50.5429 247.007 51.1575C246.86 51.772 246.685 52.3866 246.509 52.9427C246.333 53.528 246.187 53.9963 246.099 54.406C246.012 54.6401 245.894 54.8157 245.719 54.9621C245.514 55.0791 245.309 55.1377 245.046 55.1377Z" fill="white"/>
<path d="M264.04 55.5471C262.137 55.5471 260.293 55.2252 258.567 54.5521C256.811 53.879 255.289 52.9424 253.943 51.7133C252.596 50.4841 251.543 49.0208 250.782 47.3233C250.021 45.6259 249.611 43.7236 249.611 41.6457C249.611 39.7434 249.933 37.8996 250.548 36.1437C251.192 34.3877 252.128 32.8073 253.387 31.4318C254.645 30.0563 256.196 28.9442 258.04 28.154C259.884 27.3345 262.02 26.9248 264.449 26.9248C266.352 26.9248 268.195 27.2467 269.922 27.9199C271.649 28.593 273.2 29.5295 274.546 30.7587C275.892 31.9878 276.946 33.4512 277.736 35.1486C278.497 36.846 278.907 38.7483 278.907 40.8262C278.907 42.6993 278.585 44.543 277.97 46.299C277.326 48.0843 276.39 49.6354 275.131 51.0401C273.873 52.4157 272.322 53.5278 270.478 54.318C268.605 55.1374 266.469 55.5471 264.04 55.5471ZM264.771 53.7034C266.556 53.7034 268.02 53.2644 269.22 52.3571C270.42 51.4499 271.327 50.1914 271.912 48.5818C272.527 46.9721 272.819 45.0991 272.819 42.9919C272.819 41.1774 272.644 39.4507 272.263 37.7533C271.883 36.0559 271.327 34.5633 270.566 33.217C269.805 31.8708 268.868 30.8172 267.727 30.027C266.586 29.2368 265.239 28.8564 263.659 28.8564C261.874 28.8564 260.411 29.2954 259.211 30.2026C258.011 31.1099 257.133 32.3683 256.518 33.9487C255.933 35.5583 255.64 37.4021 255.64 39.5093C255.64 41.3238 255.816 43.0505 256.196 44.7479C256.547 46.4454 257.103 47.9672 257.864 49.3134C258.596 50.6597 259.562 51.7425 260.703 52.5327C261.845 53.2936 263.191 53.7034 264.771 53.7034Z" fill="white"/>
<path d="M79.4284 62.8641C79.7796 62.2495 80.2771 61.752 80.8624 61.4008C81.477 61.0496 82.1502 60.874 82.8818 60.874C83.7598 60.874 84.5207 61.0789 85.1646 61.5179C85.8084 61.9276 86.306 62.5422 86.5986 63.3031H85.3402C85.106 62.8056 84.7841 62.4544 84.3744 62.191C83.9647 61.9276 83.4671 61.8105 82.8818 61.8105C82.3257 61.8105 81.8282 61.9276 81.36 62.191C80.921 62.4544 80.5698 62.8349 80.3064 63.3031C80.043 63.7714 79.9259 64.3567 79.9259 65.0005C79.9259 65.6444 80.043 66.2005 80.3064 66.6687C80.5698 67.137 80.921 67.5174 81.36 67.7808C81.799 68.0442 82.2965 68.1613 82.8818 68.1613C83.4671 68.1613 83.9647 68.0442 84.3744 67.7808C84.7841 67.5174 85.106 67.1663 85.3402 66.6687H86.5986C86.306 67.4296 85.8377 68.015 85.1646 68.454C84.5207 68.8637 83.7598 69.0686 82.8818 69.0686C82.1502 69.0686 81.4478 68.893 80.8624 68.5418C80.2479 68.1906 79.7796 67.693 79.4284 67.0785C79.0772 66.4639 78.9016 65.7615 78.9016 64.9713C78.9016 64.1811 79.0772 63.4787 79.4284 62.8641Z" fill="white"/>
<path d="M97.1344 68.1321H99.9439V68.9808H96.0808V60.9619H97.1344V68.1321Z" fill="white"/>
<path d="M110.012 61.8106V64.5031H112.938V65.3811H110.012V68.1321H113.289V69.0101H108.958V60.9619H113.289V61.8399H110.012V61.8106Z" fill="white"/>
<path d="M127.542 67.1956H124.03L123.386 68.9809H122.274L125.172 60.9912H126.371L129.269 68.9809H128.157L127.542 67.1956ZM127.22 66.3469L125.757 62.3082L124.294 66.3469H127.22Z" fill="white"/>
<path d="M144.78 68.9808H143.726L139.512 62.6008V68.9808H138.458V60.9619H139.512L143.726 67.3419V60.9619H144.78V68.9808Z" fill="white"/>
<path d="M155.52 60.9619V68.9808H154.467V60.9619H155.52Z" fill="white"/>
<path d="M171.529 68.9808H170.475L166.261 62.6008V68.9808H165.208V60.9619H166.261L170.475 67.3419V60.9619H171.529V68.9808Z" fill="white"/>
<path d="M187.304 63.3032C187.069 62.8349 186.747 62.4837 186.338 62.2203C185.928 61.9569 185.43 61.8398 184.874 61.8398C184.318 61.8398 183.821 61.9569 183.353 62.2203C182.914 62.4837 182.562 62.8349 182.299 63.3324C182.036 63.8007 181.919 64.3567 181.919 65.0006C181.919 65.6444 182.036 66.1712 182.299 66.6688C182.562 67.137 182.914 67.5175 183.353 67.7809C183.792 68.0443 184.318 68.1613 184.874 68.1613C185.665 68.1613 186.308 67.9272 186.806 67.459C187.304 66.9907 187.596 66.3468 187.684 65.5567H184.494V64.7079H188.825V65.5274C188.767 66.2005 188.562 66.7858 188.211 67.3419C187.86 67.8979 187.391 68.3369 186.806 68.6296C186.221 68.9223 185.577 69.0979 184.874 69.0979C184.143 69.0979 183.44 68.9223 182.826 68.5711C182.211 68.2199 181.714 67.7223 181.362 67.1078C181.011 66.4932 180.836 65.7908 180.836 65.0006C180.836 64.2104 181.011 63.508 181.362 62.8934C181.714 62.2788 182.211 61.7813 182.826 61.4301C183.44 61.0789 184.114 60.9033 184.874 60.9033C185.723 60.9033 186.484 61.1082 187.128 61.5472C187.772 61.9569 188.269 62.5715 188.562 63.3324H187.304V63.3032Z" fill="white"/>
<path d="M215.136 63.3032C214.902 62.8349 214.58 62.4837 214.17 62.2203C213.76 61.9569 213.263 61.8398 212.707 61.8398C212.151 61.8398 211.653 61.9569 211.185 62.2203C210.746 62.4837 210.395 62.8349 210.131 63.3324C209.868 63.8007 209.751 64.3567 209.751 65.0006C209.751 65.6444 209.868 66.1712 210.131 66.6688C210.395 67.137 210.746 67.5175 211.185 67.7809C211.624 68.0443 212.151 68.1613 212.707 68.1613C213.497 68.1613 214.141 67.9272 214.638 67.459C215.136 66.9907 215.428 66.3468 215.516 65.5567H212.326V64.7079H216.658V65.5274C216.599 66.2005 216.394 66.7858 216.043 67.3419C215.692 67.8979 215.224 68.3369 214.638 68.6296C214.053 68.9223 213.409 69.0979 212.707 69.0979C211.975 69.0979 211.273 68.9223 210.658 68.5711C210.043 68.2199 209.546 67.7223 209.195 67.1078C208.844 66.4932 208.668 65.7908 208.668 65.0006C208.668 64.2104 208.844 63.508 209.195 62.8934C209.546 62.2788 210.043 61.7813 210.658 61.4301C211.273 61.0789 211.946 60.9033 212.707 60.9033C213.555 60.9033 214.316 61.1082 214.96 61.5472C215.604 61.9569 216.102 62.5715 216.394 63.3324H215.136V63.3032Z" fill="white"/>
<path d="M230.179 68.9808L228.276 65.703H227.018V68.9808H225.964V60.9619H228.569C229.184 60.9619 229.681 61.079 230.12 61.2838C230.53 61.4887 230.852 61.7814 231.057 62.1326C231.262 62.4838 231.379 62.8935 231.379 63.3325C231.379 63.8885 231.232 64.3861 230.91 64.7958C230.588 65.2055 230.12 65.4982 229.476 65.6445L231.496 69.0101H230.179V68.9808ZM226.989 64.8543H228.54C229.096 64.8543 229.535 64.708 229.827 64.4446C230.12 64.1519 230.266 63.8007 230.266 63.3325C230.266 62.8642 230.12 62.4838 229.857 62.2204C229.564 61.957 229.154 61.8399 228.569 61.8399H227.018V64.8543H226.989Z" fill="white"/>
<path d="M242.441 68.5418C241.826 68.1906 241.329 67.693 240.978 67.0785C240.627 66.4639 240.451 65.7615 240.451 64.9713C240.451 64.1811 240.627 63.4787 240.978 62.8641C241.329 62.2495 241.826 61.752 242.441 61.4008C243.056 61.0496 243.729 60.874 244.49 60.874C245.251 60.874 245.924 61.0496 246.538 61.4008C247.153 61.752 247.65 62.2495 248.002 62.8641C248.353 63.4787 248.528 64.1811 248.528 64.9713C248.528 65.7615 248.353 66.4639 248.002 67.0785C247.65 67.693 247.153 68.1906 246.538 68.5418C245.924 68.893 245.251 69.0686 244.49 69.0686C243.758 69.0686 243.056 68.893 242.441 68.5418ZM246.012 67.7808C246.45 67.5174 246.802 67.137 247.065 66.6687C247.329 66.1712 247.446 65.6151 247.446 65.0005C247.446 64.3567 247.329 63.8006 247.065 63.3031C246.802 62.8349 246.45 62.4544 246.012 62.191C245.573 61.9276 245.046 61.8105 244.49 61.8105C243.934 61.8105 243.407 61.9276 242.968 62.191C242.529 62.4544 242.178 62.8349 241.914 63.3031C241.651 63.7714 241.534 64.3567 241.534 65.0005C241.534 65.6444 241.651 66.2005 241.914 66.6687C242.178 67.1663 242.529 67.5174 242.968 67.7808C243.407 68.0442 243.934 68.1613 244.49 68.1613C245.046 68.1613 245.543 68.015 246.012 67.7808Z" fill="white"/>
<path d="M258.83 60.9619V66.0542C258.83 66.7566 259.006 67.2834 259.357 67.6346C259.708 67.9858 260.206 68.1614 260.82 68.1614C261.435 68.1614 261.903 67.9858 262.254 67.6346C262.605 67.2834 262.781 66.7566 262.781 66.0542V60.9619H263.835V66.025C263.835 66.6981 263.688 67.2541 263.425 67.7224C263.162 68.1907 262.781 68.5126 262.342 68.7467C261.874 68.9809 261.376 69.0687 260.791 69.0687C260.235 69.0687 259.708 68.9516 259.24 68.7467C258.772 68.5126 258.42 68.1907 258.157 67.7224C257.894 67.2541 257.747 66.6981 257.747 66.025V60.9619H258.83Z" fill="white"/>
<path d="M278.175 64.9714C277.707 65.4104 277.034 65.6445 276.097 65.6445H274.546V68.9808H273.492V60.9619H276.097C277.004 60.9619 277.677 61.1668 278.175 61.6058C278.643 62.0448 278.877 62.6008 278.877 63.3032C278.848 63.9763 278.643 64.5324 278.175 64.9714ZM277.385 64.3861C277.648 64.1227 277.795 63.7715 277.795 63.3032C277.795 62.3082 277.239 61.8106 276.097 61.8106H274.546V64.7665H276.097C276.682 64.7665 277.092 64.6495 277.385 64.3861Z" fill="white"/>
</svg>
