<svg width="280" height="70" viewBox="0 0 280 70" fill="none" xmlns="http://www.w3.org/2000/svg">
<g clip-path="url(#clip0_0_45)">
<path d="M28.1885 47.8599C27.7788 48.0941 27.2812 48.2111 26.7252 48.2111C25.2911 48.2111 24.1205 47.2746 24.1205 46.0747C24.1205 44.904 25.2619 43.9675 26.6374 43.9383C26.2277 44.348 25.9935 44.8748 25.9935 45.4601C26.0521 46.6015 26.9593 47.538 28.1885 47.8599Z" fill="#AB917A"/>
<path d="M65.1517 42.5627C65.1517 54.7667 57.5717 65.1855 46.8896 69.3998C41.8265 71.3899 36.4416 67.3512 36.9976 61.937C36.9976 61.9077 36.9976 61.8784 36.9976 61.8199C37.1732 60.3858 34.9197 59.0981 33.5735 58.4543C32.2272 57.8104 31.4956 56.3764 32.198 56.6105C32.9003 56.8446 36.4708 58.5713 42.7923 59.9176C49.1138 61.2638 50.0503 57.5178 50.0211 56.5812C49.9625 55.6447 48.587 54.8545 49.026 53.7424C49.465 52.6303 50.6942 51.8987 50.2552 51.2255C49.7869 50.5524 48.7041 50.3475 49.4065 49.8208C50.1089 49.294 51.1332 48.4452 50.6357 48.2111C50.1674 47.9477 49.3187 47.2746 49.0845 46.4844C48.8504 45.6942 49.6699 45.1089 50.6649 44.348C51.66 43.5871 52.216 42.8554 50.1381 41.7726C48.0602 40.6604 45.6897 37.8801 45.2799 36.3876C44.8702 34.895 44.6361 33.9292 44.1678 31.705C43.6996 29.51 40.5681 27.4321 40.5681 27.4321C39.573 32.4366 38.7243 33.6951 32.9003 36.4168C27.6324 38.9045 26.374 38.8167 26.1984 38.7874C28.5982 39.9288 36.383 36.2412 36.5879 36.1534C32.9881 41.1287 26.2276 42.8554 23.0962 43.6749C19.9647 44.4943 17.8575 45.3138 17.0088 47.2746C16.1601 49.2354 17.5649 50.1427 17.5649 50.1427C17.5941 48.3574 18.9404 46.2795 20.55 45.6942C22.1596 45.1089 22.8328 47.5965 23.9156 49.733C24.9985 51.8401 28.6275 49.6159 28.6275 49.6159C28.3055 52.484 24.5009 51.8694 24.5009 51.8694C26.1984 57.3714 24.4424 61.5858 22.5401 64.1905C21.4573 65.7123 19.3208 65.9464 17.8868 64.7758C17.8575 64.7465 17.8575 64.7465 17.8283 64.7172C16.8917 63.9271 16.6576 62.5808 17.3015 61.5272V61.498C17.9453 60.4151 18.4428 59.2445 18.8818 58.1031L19.1745 57.2251C19.2623 56.9324 19.3501 56.6398 19.4379 56.3471C19.6135 55.7618 19.7306 55.1472 19.8769 54.5619C19.9939 53.9766 20.0817 53.362 20.1988 52.7474C20.2866 52.1328 20.3451 51.5475 20.4037 50.9329C20.2573 51.5182 20.111 52.1035 19.9647 52.7181C19.7891 53.3034 19.6428 53.8888 19.4379 54.4448C19.233 55.0009 19.0574 55.5862 18.794 56.1423C18.677 56.4056 18.5599 56.6983 18.4428 56.9617L18.0624 57.7519C17.5063 58.8055 16.8917 59.8298 16.1893 60.7663C16.1601 60.7956 16.1601 60.8248 16.1308 60.8248C15.604 61.5272 14.5504 61.5272 13.9944 60.8541C14.0822 60.7663 14.17 60.6492 14.2578 60.5322C14.7553 59.9176 15.1943 59.2445 15.5162 58.5421C15.604 58.3665 15.6918 58.1909 15.7503 58.0153C15.8381 57.8397 15.8967 57.6641 15.9845 57.4885L16.1893 56.9324L16.3357 56.3764C16.4527 56.0252 16.5113 55.6447 16.5991 55.2643C16.6576 54.8838 16.7161 54.5033 16.7747 54.1521C16.6576 54.5033 16.5405 54.8545 16.3942 55.2057C16.2479 55.5569 16.1015 55.8789 15.9259 56.23L15.6626 56.7276L15.3699 57.1958C15.2821 57.3422 15.165 57.5178 15.0772 57.6641C14.9602 57.8104 14.8724 57.9568 14.7553 58.1031C14.2578 58.7177 13.731 59.2737 13.1164 59.7713L13.0871 59.742C11.3312 57.3714 10.541 54.4156 10.8629 51.4889C11.0385 50.0549 11.2141 48.5916 11.5068 47.2161C11.8872 45.5479 12.414 43.909 13.3505 42.5335C13.8188 41.8311 14.3456 41.2165 14.9602 40.6897L15.4284 40.3092L15.9259 39.958L16.4527 39.6361L17.0381 39.3435C18.5599 38.5533 20.1695 37.8509 21.7792 37.1485C23.3888 36.4168 24.9985 35.7437 26.5788 34.895C28.1592 34.0755 29.6811 33.0805 30.998 31.8806C32.315 30.6807 33.4271 29.2466 34.1588 27.637C33.193 29.1003 31.9931 30.388 30.6176 31.4416C29.2421 32.4952 27.7202 33.3146 26.1691 34.0755C24.5887 34.8072 22.9791 35.4511 21.3402 36.1242C19.7013 36.7973 18.0916 37.4997 16.482 38.2899L15.8967 38.6118L15.3114 38.963L14.726 39.3727L14.17 39.8117C13.4676 40.4263 12.853 41.158 12.3555 41.9481C11.3897 43.5285 10.8336 45.3138 10.5702 47.0697C10.1312 49.6744 10.1605 52.2499 10.1312 54.8253C9.34105 53.1571 8.72646 51.4304 8.28747 49.6159C8.14114 49.0598 8.14114 48.4745 8.22894 47.8892C8.37527 47.099 8.55087 46.3088 8.785 45.5479C9.22399 44.026 9.83858 42.5335 10.6873 41.158C11.536 39.7824 12.5896 38.5533 13.8188 37.4997C15.0772 36.4754 16.482 35.6559 17.9746 34.9535C16.4527 35.5389 14.9309 36.2412 13.5847 37.207C12.2384 38.1728 11.0385 39.3727 10.0434 40.719C8.98986 42.153 8.17041 43.7919 7.55582 45.4894C7.46802 44.5528 7.40948 43.6163 7.40948 42.6505C7.40948 26.7883 20.2281 13.9111 36.0611 13.7941C52.0112 13.5892 65.1517 26.6127 65.1517 42.5627Z" fill="#AB917A"/>
<path d="M28.1885 47.8599C27.7788 48.0941 27.2812 48.2111 26.7252 48.2111C25.2911 48.2111 24.1205 47.2746 24.1205 46.0747C24.1205 44.904 25.2619 43.9675 26.6374 43.9383C26.2277 44.348 25.9935 44.8748 25.9935 45.4601C26.0521 46.6015 26.9593 47.538 28.1885 47.8599Z" fill="#AB917A"/>
<path d="M28.1885 47.8599C27.7788 48.0941 27.2812 48.2111 26.7252 48.2111C25.2911 48.2111 24.1205 47.2746 24.1205 46.0747C24.1205 44.904 25.2619 43.9675 26.6374 43.9383C26.2277 44.348 25.9935 44.8748 25.9935 45.4601C26.0521 46.6015 26.9593 47.538 28.1885 47.8599Z" fill="#AB917A"/>
<path d="M26.6667 2.20466L28.8324 11.9796C25.2034 12.8868 21.6622 14.4379 18.4136 16.7207C15.0773 19.0327 12.3555 21.8715 10.2191 25.0616L1.966 19.0913L8.90209 19.2083L5.27308 13.4136L13.2042 15.3744L10.4532 5.30688L18.7355 11.6869L19.8184 3.02412L24.0912 9.14075L26.6667 2.20466Z" fill="#AB917A"/>
<path d="M9.78005 5.98C10.7014 5.98 11.4482 5.23313 11.4482 4.31183C11.4482 3.39052 10.7014 2.64365 9.78005 2.64365C8.85875 2.64365 8.11188 3.39052 8.11188 4.31183C8.11188 5.23313 8.85875 5.98 9.78005 5.98Z" fill="#AB917A"/>
<path d="M20.0232 3.81431C20.7829 3.81431 21.3987 3.19847 21.3987 2.4388C21.3987 1.67912 20.7829 1.06328 20.0232 1.06328C19.2635 1.06328 18.6477 1.67912 18.6477 2.4388C18.6477 3.19847 19.2635 3.81431 20.0232 3.81431Z" fill="#AB917A"/>
<path d="M4.83407 14.4087C5.59374 14.4087 6.20958 13.7928 6.20958 13.0332C6.20958 12.2735 5.59374 11.6576 4.83407 11.6576C4.07439 11.6576 3.45856 12.2735 3.45856 13.0332C3.45856 13.7928 4.07439 14.4087 4.83407 14.4087Z" fill="#AB917A"/>
<path d="M1.527 19.7644C2.06039 19.7644 2.49278 19.332 2.49278 18.7986C2.49278 18.2652 2.06039 17.8328 1.527 17.8328C0.993611 17.8328 0.561218 18.2652 0.561218 18.7986C0.561218 19.332 0.993611 19.7644 1.527 19.7644Z" fill="#AB917A"/>
<path d="M26.6666 2.78999C27.2 2.78999 27.6324 2.35759 27.6324 1.8242C27.6324 1.29081 27.2 0.858418 26.6666 0.858418C26.1333 0.858418 25.7009 1.29081 25.7009 1.8242C25.7009 2.35759 26.1333 2.78999 26.6666 2.78999Z" fill="#AB917A"/>
<path d="M79.9311 56.0252C79.6092 56.0252 79.375 55.9667 79.1994 55.8496C79.0238 55.7325 78.936 55.5862 78.936 55.4399C78.936 55.2057 79.0238 55.0301 79.2287 54.9131C79.4336 54.796 79.6092 54.7082 79.814 54.6497C80.8383 54.3863 81.57 54.0936 82.0383 53.7132C82.5065 53.3327 82.7699 52.7181 82.7699 51.8401V32.4366C82.7699 31.7928 82.6821 31.2953 82.5358 30.9733C82.3895 30.6221 82.1261 30.388 81.7456 30.1831C81.3651 30.0075 80.8091 29.832 80.0774 29.6856C79.3458 29.5393 78.9946 29.2466 78.9946 28.8076C78.9946 28.632 79.0824 28.515 79.2872 28.3979C79.4921 28.3101 79.697 28.2516 79.9604 28.2516C80.6627 28.2516 81.3359 28.2516 81.9797 28.2808C82.6236 28.3101 83.2382 28.3394 83.8235 28.3686C84.4088 28.3979 84.9941 28.3979 85.6087 28.3979C86.2526 28.3979 86.8964 28.3979 87.5696 28.3686C88.2427 28.3394 88.9158 28.3101 89.5889 28.2808C90.2913 28.2516 90.9352 28.2516 91.6083 28.2516C91.901 28.2516 92.1058 28.3101 92.2814 28.3979C92.457 28.4857 92.5448 28.632 92.5448 28.8369C92.5448 29.071 92.457 29.2466 92.2814 29.3637C92.1058 29.4808 91.8424 29.5978 91.4912 29.6856C90.4084 29.9783 89.5889 30.2709 89.0621 30.5929C88.5353 30.9148 88.2719 31.5001 88.2719 32.2903V51.5767C88.2719 52.3962 88.4476 52.9815 88.828 53.362C89.1792 53.7424 89.8816 53.918 90.9059 53.918H95.5007C96.1446 53.918 96.7299 53.801 97.2859 53.5668C97.8127 53.3327 98.2517 53.0693 98.6029 52.7181C99.1004 52.2791 99.5394 51.7816 99.8614 51.2841C100.213 50.7865 100.534 50.172 100.827 49.4988C101.032 49.0891 101.208 48.7672 101.383 48.533C101.559 48.2989 101.734 48.1819 101.881 48.1819C102.086 48.1819 102.232 48.2696 102.29 48.4452C102.378 48.6208 102.408 48.8257 102.408 49.0013C102.408 49.0306 102.408 49.1184 102.378 49.2647C102.349 49.411 102.349 49.5281 102.349 49.6159C102.115 50.4353 101.939 51.1377 101.793 51.7231C101.647 52.3084 101.5 52.8937 101.412 53.4205C101.325 53.9766 101.237 54.5619 101.149 55.2057C101.12 55.4106 101.061 55.5862 100.973 55.7325C100.886 55.8789 100.71 55.9667 100.476 55.9667C99.6272 55.9667 98.6322 55.9667 97.4323 55.9374C96.2616 55.9081 95.0032 55.8789 93.6862 55.8789C92.3692 55.8789 91.023 55.8496 89.706 55.8203C88.3598 55.7911 87.1013 55.7911 85.9307 55.7911C85.3161 55.7911 84.6137 55.7911 83.7942 55.8203C83.004 55.8496 82.2431 55.8789 81.5407 55.9374C80.7505 56.0252 80.253 56.0252 79.9311 56.0252Z" fill="#142245"/>
<path d="M104.749 56.0252C104.427 56.0252 104.193 55.9667 104.017 55.8496C103.842 55.7325 103.754 55.5862 103.754 55.4399C103.754 55.0887 104.105 54.796 104.837 54.6497C105.861 54.3863 106.563 54.0936 107.002 53.7132C107.441 53.3327 107.646 52.6889 107.646 51.7523V32.6415C107.646 31.6757 107.471 31.0026 107.09 30.6221C106.71 30.2417 106.007 29.9198 104.954 29.6856C104.573 29.5978 104.281 29.4808 104.105 29.3344C103.929 29.1881 103.842 29.0125 103.842 28.8369C103.842 28.632 103.929 28.4857 104.105 28.3979C104.281 28.3101 104.544 28.2516 104.837 28.2516C105.656 28.2516 106.446 28.2516 107.178 28.2808C107.91 28.3101 108.641 28.3394 109.344 28.3686C110.046 28.3979 110.778 28.3979 111.539 28.3979C112.826 28.3979 114.202 28.3979 115.665 28.3686C117.128 28.3394 118.416 28.3394 119.558 28.3394C120.494 28.3101 121.255 28.2808 121.87 28.2223C122.484 28.1638 122.835 28.1345 122.952 28.1345C123.157 28.1345 123.362 28.1638 123.567 28.2516C123.772 28.3394 123.889 28.515 123.918 28.7491C124.035 29.6856 124.182 30.5929 124.328 31.5001C124.504 32.4074 124.591 33.1976 124.591 33.8707C124.591 34.1341 124.533 34.3097 124.416 34.4267C124.299 34.5438 124.152 34.6023 124.006 34.6023C123.86 34.6023 123.743 34.5438 123.626 34.456C123.508 34.3682 123.421 34.2219 123.333 34.017C123.099 33.3732 122.894 32.8171 122.689 32.3196C122.484 31.8513 122.279 31.4709 122.016 31.2075C121.635 30.827 121.226 30.5051 120.757 30.2709C120.289 30.0368 119.704 29.9197 119.031 29.9197H115.109C114.612 29.9197 114.143 30.0661 113.704 30.3587C113.265 30.6514 113.06 31.0611 113.06 31.6172V39.8995C113.06 40.2215 113.148 40.4556 113.324 40.6312C113.499 40.8068 113.734 40.8946 113.968 40.8946H117.86C118.621 40.8946 119.148 40.6897 119.499 40.2507C119.821 39.841 120.084 39.2557 120.318 38.524C120.523 37.968 120.787 37.6753 121.109 37.6753C121.255 37.6753 121.372 37.7631 121.489 37.9094C121.606 38.0557 121.665 38.2606 121.665 38.524C121.635 38.8167 121.606 39.1386 121.577 39.5483C121.548 39.9288 121.518 40.3385 121.518 40.719C121.518 41.0994 121.489 41.4506 121.489 41.7726C121.489 42.1238 121.489 42.5042 121.518 42.9139C121.518 43.3237 121.548 43.7627 121.548 44.1724C121.548 44.5821 121.577 44.9333 121.606 45.1967C121.635 45.5186 121.606 45.7528 121.548 45.9284C121.489 46.104 121.372 46.1918 121.196 46.1918C120.757 46.1918 120.436 45.8113 120.231 45.0211C119.997 44.2309 119.733 43.6456 119.44 43.2359C119.119 42.8554 118.709 42.6505 118.182 42.6505H114.202C113.821 42.6505 113.558 42.7091 113.353 42.8554C113.148 43.0017 113.06 43.2651 113.06 43.6456V51.6645C113.06 52.601 113.265 53.2449 113.646 53.5961C114.026 53.9766 114.641 54.1522 115.46 54.1522H118.914C119.616 54.1522 120.26 54.0936 120.845 53.9473C121.431 53.801 121.928 53.5961 122.338 53.2742C122.806 52.923 123.245 52.484 123.626 51.8987C124.006 51.3133 124.386 50.6695 124.738 49.9671C124.855 49.733 124.972 49.5866 125.089 49.5281C125.206 49.4696 125.352 49.411 125.499 49.411C125.645 49.4403 125.733 49.5281 125.82 49.6744C125.879 49.8208 125.938 49.9671 125.938 50.1427C125.938 50.5232 125.879 51.0499 125.733 51.6645C125.586 52.2791 125.411 52.923 125.206 53.5961C125.001 54.2692 124.796 54.8838 124.65 55.4399C124.562 55.6447 124.445 55.7911 124.299 55.8789C124.152 55.9667 123.977 56.0252 123.801 56.0252C123.128 56.0252 122.25 56.0252 121.196 55.9959C120.143 55.9959 119.001 55.9667 117.743 55.9374C116.514 55.9081 115.226 55.8789 113.938 55.8789C112.651 55.8789 111.392 55.8496 110.222 55.8496C109.636 55.8496 109.022 55.8496 108.436 55.8789C107.822 55.9081 107.207 55.9374 106.593 55.9959C106.037 56.0252 105.422 56.0252 104.749 56.0252Z" fill="#142245"/>
<path d="M153.887 56.7276C152.687 56.7276 151.633 56.5813 150.726 56.3179C149.819 56.0545 149.058 55.674 148.414 55.1472C147.77 54.6497 147.185 54.0644 146.629 53.362C146.014 52.5133 145.4 51.6938 144.814 50.9036C144.229 50.1134 143.614 49.2062 143.029 48.2404C142.414 47.2746 141.741 46.104 141.01 44.7577C140.629 44.1139 140.19 43.6456 139.605 43.3237C139.224 43.1188 138.873 42.9725 138.493 42.9139C138.112 42.8261 137.79 42.7969 137.556 42.7969C137.381 42.7676 137.264 42.8261 137.176 43.0017C137.088 43.1773 137.059 43.3822 137.059 43.6456V51.4889C137.059 52.3669 137.293 53.04 137.761 53.5083C138.229 53.9766 139.02 54.357 140.132 54.6204C140.483 54.6789 140.775 54.7667 140.922 54.8838C141.097 55.0009 141.185 55.1765 141.185 55.4106C141.185 55.6155 141.097 55.7618 140.951 55.8203C140.805 55.9081 140.571 55.9374 140.249 55.9374C139.605 55.9374 138.932 55.9081 138.259 55.8789C137.585 55.8496 136.942 55.7911 136.298 55.7618C135.654 55.7325 135.069 55.7325 134.513 55.7325C133.898 55.7325 133.254 55.7325 132.581 55.7618C131.908 55.7911 131.264 55.8203 130.562 55.8789C129.888 55.9374 129.215 55.9667 128.542 55.9667C128.279 55.9667 128.074 55.9081 127.869 55.8203C127.664 55.7325 127.576 55.5862 127.576 55.4106C127.576 55.0009 127.928 54.7082 128.63 54.5619C129.713 54.3278 130.445 54.0351 130.913 53.6254C131.352 53.2449 131.586 52.5718 131.586 51.6353V32.9927C131.586 32.1732 131.527 31.5587 131.41 31.1197C131.293 30.6807 131.03 30.3587 130.679 30.1246C130.298 29.8905 129.771 29.7442 129.04 29.6271C128.659 29.5686 128.367 29.4515 128.191 29.2759C128.015 29.1003 127.928 28.9247 127.928 28.7784C127.928 28.5735 128.015 28.4272 128.191 28.3394C128.367 28.2516 128.63 28.193 128.923 28.193C129.771 28.193 130.445 28.193 130.942 28.2223C131.44 28.2516 131.937 28.2808 132.405 28.3394C132.874 28.3686 133.43 28.3979 134.074 28.3979C134.688 28.3979 135.244 28.3686 135.712 28.3101C136.181 28.2516 136.737 28.193 137.322 28.1345C137.907 28.076 138.668 28.0467 139.605 28.0467C142.853 28.0467 145.312 28.6028 147.038 29.7442C148.765 30.8563 149.614 32.583 149.614 34.895C149.614 36.1534 149.35 37.2363 148.824 38.1143C148.297 38.9923 147.624 39.7239 146.804 40.28C146.014 40.836 145.165 41.275 144.346 41.597C144.229 41.6262 144.17 41.6848 144.2 41.8018C144.2 41.9189 144.258 42.0067 144.346 42.0945C145.195 43.3822 146.014 44.6114 146.804 45.782C147.594 46.9527 148.443 48.0648 149.35 49.0891C150.228 50.1427 151.194 51.1377 152.248 52.0743C153.126 52.8937 154.004 53.362 154.94 53.5376C155.848 53.6839 156.813 53.7717 157.779 53.7717C158.189 53.7717 158.423 53.9766 158.423 54.4156C158.423 54.9716 158.218 55.4106 157.779 55.7325C157.34 56.0545 156.813 56.2886 156.111 56.4349C155.409 56.6398 154.677 56.7276 153.887 56.7276ZM138.873 41.5677C140.015 41.5677 140.98 41.3043 141.771 40.7775C142.531 40.2507 143.146 39.5483 143.556 38.6996C143.965 37.8216 144.17 36.8558 144.17 35.773C144.17 34.5145 144.024 33.4317 143.702 32.5537C143.38 31.6757 142.853 30.9733 142.122 30.4758C141.39 29.9783 140.366 29.7442 139.049 29.7442C138.317 29.7442 137.82 30.0075 137.556 30.5343C137.293 31.0611 137.146 32.1147 137.117 33.6658C137.088 34.3097 137.088 35.1584 137.088 36.212C137.088 37.2656 137.088 38.524 137.088 39.9873C137.088 40.6019 137.264 41.0116 137.585 41.2458C137.849 41.4506 138.317 41.5677 138.873 41.5677Z" fill="#142245"/>
<path d="M173.261 56.4057C171.359 56.4057 169.515 56.0837 167.788 55.4106C166.032 54.7375 164.51 53.801 163.164 52.5718C161.818 51.3426 160.764 49.8793 160.003 48.1819C159.242 46.4844 158.833 44.5821 158.833 42.5042C158.833 40.6019 159.155 38.7581 159.769 37.0022C160.413 35.2462 161.35 33.6658 162.608 32.2903C163.867 30.9148 165.418 29.8027 167.261 29.0125C169.105 28.193 171.242 27.7833 173.671 27.7833C175.573 27.7833 177.417 28.1052 179.143 28.7784C180.87 29.4515 182.421 30.388 183.768 31.6172C185.114 32.8464 186.167 34.3097 186.958 36.0071C187.718 37.7046 188.128 39.6069 188.128 41.6848C188.128 43.5578 187.806 45.4016 187.192 47.1575C186.548 48.9428 185.611 50.4939 184.353 51.8987C183.094 53.2742 181.543 54.3863 179.7 55.1765C177.827 55.9959 175.69 56.4057 173.261 56.4057ZM173.993 54.5619C175.778 54.5619 177.241 54.1229 178.441 53.2156C179.641 52.3084 180.548 51.0499 181.134 49.4403C181.748 47.8307 182.041 45.9576 182.041 43.8505C182.041 42.036 181.865 40.3093 181.485 38.6118C181.104 36.9144 180.548 35.4218 179.787 34.0756C179.026 32.7293 178.09 31.6757 176.949 30.8855C175.807 30.0953 174.461 29.7149 172.881 29.7149C171.095 29.7149 169.632 30.1539 168.432 31.0611C167.232 31.9684 166.354 33.2268 165.74 34.8072C165.154 36.4168 164.862 38.2606 164.862 40.3678C164.862 42.1823 165.037 43.909 165.418 45.6064C165.769 47.3039 166.325 48.8257 167.086 50.172C167.817 51.5182 168.783 52.6011 169.925 53.3912C171.037 54.1522 172.412 54.5619 173.993 54.5619Z" fill="#142245"/>
<path d="M218.038 56.5813C217.687 56.5813 217.131 56.3764 216.341 55.9374C215.551 55.5277 214.76 54.796 213.941 53.7424C213.473 53.2156 212.887 52.5425 212.185 51.7816C211.483 51.0207 210.722 50.1427 209.902 49.2354C209.083 48.2989 208.205 47.3331 207.298 46.3088C206.39 45.2845 205.512 44.2895 204.605 43.2651C203.727 42.2408 202.849 41.275 202 40.3385C201.152 39.402 200.391 38.5533 199.688 37.7924C198.986 37.0314 198.401 36.3583 197.903 35.773C197.786 35.6267 197.669 35.5096 197.552 35.4218C197.435 35.334 197.318 35.2755 197.23 35.2755C197.113 35.2755 197.025 35.3633 196.967 35.5681C196.908 35.773 196.879 35.9486 196.879 36.1242C196.879 37.4119 196.879 38.963 196.908 40.719C196.908 42.5042 196.937 44.2894 196.937 46.1332C196.937 47.977 196.937 49.6452 196.937 51.1963C196.937 52.0743 197.201 52.7766 197.698 53.362C198.196 53.918 199.015 54.3278 200.098 54.5911C200.449 54.6497 200.713 54.7375 200.976 54.8546C201.21 54.9716 201.327 55.1472 201.327 55.3813C201.327 55.5862 201.21 55.7325 200.976 55.7911C200.742 55.8789 200.508 55.9081 200.215 55.9081C199.454 55.9081 198.84 55.9081 198.401 55.8789C197.962 55.8496 197.552 55.8203 197.171 55.7911C196.791 55.7618 196.352 55.7618 195.767 55.7618C195.181 55.7618 194.655 55.7618 194.186 55.7911C193.718 55.8203 193.308 55.8496 192.928 55.9081C192.547 55.9374 192.196 55.9667 191.874 55.9667C191.582 55.9667 191.348 55.9081 191.113 55.8203C190.879 55.7325 190.762 55.5862 190.762 55.4106C190.762 55.1765 190.879 55.0009 191.084 54.8838C191.289 54.7667 191.582 54.6497 191.962 54.5326C192.694 54.2985 193.221 53.8888 193.601 53.2742C193.952 52.6596 194.157 51.9572 194.245 51.1085C194.362 50.0256 194.479 48.6501 194.596 46.8941C194.713 45.1674 194.801 43.2066 194.918 41.0409C195.006 38.8752 195.064 36.651 195.064 34.3389C195.064 32.8756 194.684 31.8221 193.952 31.1782C193.221 30.5343 192.284 30.0075 191.143 29.6271C190.938 29.5686 190.704 29.4515 190.382 29.2759C190.06 29.1003 189.913 28.8954 189.913 28.632C189.913 28.3686 190.031 28.2223 190.265 28.1345C190.499 28.0467 190.733 28.0174 190.996 28.0174C191.582 28.0174 192.167 28.0175 192.782 28.0467C193.367 28.076 193.981 28.1052 194.567 28.1052C195.181 28.1052 195.796 28.1345 196.469 28.1638C197.142 28.193 197.845 28.193 198.606 28.193C198.869 28.193 199.045 28.2516 199.162 28.3394C199.279 28.4272 199.396 28.5735 199.513 28.7491C199.952 29.2759 200.537 29.949 201.239 30.7685C201.942 31.5587 202.703 32.4659 203.552 33.4317C204.371 34.3975 205.249 35.4218 206.156 36.5046C207.063 37.5875 207.971 38.6411 208.907 39.7239C209.814 40.8068 210.692 41.8018 211.541 42.7969C212.39 43.7627 213.151 44.6406 213.853 45.4601C214.556 46.2503 215.112 46.9234 215.551 47.4209C215.668 47.538 215.785 47.6843 215.96 47.8307C216.107 48.0063 216.253 48.0941 216.37 48.0941C216.604 48.0941 216.721 47.8599 216.751 47.3624C216.751 46.6307 216.751 45.6942 216.751 44.5528C216.751 43.4115 216.751 42.153 216.78 40.7482C216.78 39.3435 216.78 37.9387 216.78 36.4754C216.78 35.0121 216.751 33.6073 216.721 32.261C216.692 31.5587 216.399 31.0026 215.843 30.5929C215.287 30.1831 214.614 29.8905 213.795 29.7149C213.443 29.6271 213.151 29.5393 212.858 29.393C212.565 29.2759 212.419 29.071 212.419 28.8369C212.419 28.632 212.565 28.4857 212.858 28.4272C213.151 28.3394 213.414 28.3101 213.678 28.3101C214.234 28.3101 214.702 28.3101 215.082 28.3101C215.463 28.3101 215.814 28.3101 216.165 28.3394C216.516 28.3394 216.868 28.3686 217.219 28.3686C217.833 28.3686 218.331 28.3686 218.741 28.3394C219.121 28.3394 219.56 28.3101 220.028 28.2808C220.497 28.2516 221.111 28.2516 221.872 28.2516C222.223 28.2516 222.487 28.3101 222.692 28.3979C222.896 28.4857 223.014 28.632 223.014 28.8076C223.014 29.2174 222.604 29.5393 221.784 29.6856C220.789 29.8905 220.116 30.1539 219.706 30.4758C219.297 30.827 219.092 31.3831 219.063 32.1733C219.063 32.8756 219.063 33.7829 219.033 34.8657C219.033 35.9486 219.004 37.1485 218.975 38.4655C218.946 39.7532 218.916 41.0702 218.858 42.4457C218.828 43.7919 218.799 45.1089 218.77 46.4259C218.77 47.7136 218.741 48.8842 218.741 49.9378C218.741 50.6109 218.77 51.3133 218.828 52.0157C218.887 52.7181 218.946 53.3327 219.004 53.8888C219.063 54.4448 219.121 54.8253 219.121 55.0594C219.121 55.674 219.033 56.113 218.828 56.3179C218.653 56.4642 218.389 56.5813 218.038 56.5813Z" fill="#142245"/>
<path d="M245.607 55.9959C244.992 55.9959 244.232 55.9959 243.383 55.9667C242.505 55.9667 241.539 55.9374 240.515 55.9374C239.461 55.9374 238.378 55.9081 237.266 55.9081C236.154 55.9081 235.042 55.8789 233.988 55.8789C233.023 55.8789 232.057 55.8789 231.091 55.9081C230.125 55.9081 229.159 55.9374 228.252 55.9667L225.004 55.9959C224.77 55.9959 224.623 55.8496 224.565 55.5277C224.506 55.2057 224.477 55.0301 224.506 54.9716C224.682 54.6497 224.887 54.2692 225.15 53.8302C225.413 53.3912 225.706 52.8937 226.028 52.3962C226.35 51.8987 226.643 51.4304 226.935 50.9914C228.077 49.2354 229.189 47.5673 230.272 45.9284C231.354 44.2895 232.408 42.6798 233.462 41.1287C234.515 39.5483 235.569 37.9387 236.652 36.329C237.734 34.6901 238.817 32.9927 239.9 31.2075C239.959 31.1197 240.017 31.0319 240.076 30.9441C240.134 30.8563 240.164 30.7685 240.164 30.6807C240.164 30.5636 240.105 30.4758 240.017 30.4173C239.929 30.3587 239.725 30.3002 239.461 30.2709C238.876 30.2709 238.203 30.2709 237.442 30.2417C236.71 30.2417 235.949 30.2124 235.188 30.2124C234.574 30.2124 233.959 30.2124 233.403 30.2124C232.818 30.2124 232.291 30.2124 231.764 30.2417C230.769 30.2709 229.833 30.5929 228.925 31.1782C228.018 31.7635 227.316 32.6122 226.76 33.6658C226.584 33.9877 226.379 34.2804 226.145 34.6023C225.911 34.9243 225.589 35.0999 225.209 35.0999C225.004 35.0999 224.857 35.0413 224.799 34.9243C224.711 34.8072 224.682 34.6609 224.682 34.4853C224.682 34.3097 224.711 34.1341 224.799 33.9292C224.857 33.7244 224.945 33.5195 224.974 33.3732C225.238 32.8171 225.443 32.261 225.589 31.7343C225.735 31.2075 225.882 30.6221 225.969 30.0368C226.057 29.4222 226.145 28.7784 226.204 28.076C226.262 27.6955 226.35 27.4029 226.467 27.2858C226.584 27.1395 226.76 27.0809 226.994 27.0809C227.228 27.0809 227.521 27.198 227.872 27.4614C228.223 27.7248 228.574 27.9004 228.896 28.0467C229.335 28.2223 229.862 28.3394 230.476 28.4272C231.091 28.515 231.764 28.5442 232.525 28.5442C233.286 28.5442 234.105 28.5442 234.983 28.5442C235.861 28.5442 236.739 28.5442 237.647 28.5442C238.261 28.5442 238.993 28.5442 239.842 28.515C240.69 28.515 241.568 28.4857 242.476 28.4857C243.383 28.4857 244.261 28.4564 245.08 28.4272C245.9 28.3979 246.631 28.3979 247.246 28.3979C247.422 28.3979 247.568 28.515 247.743 28.7784C247.89 29.0418 247.948 29.2174 247.89 29.3344L245.109 33.5195C243.997 35.1584 242.915 36.768 241.89 38.3191C240.866 39.8995 239.871 41.4506 238.905 43.0017C237.939 44.5528 236.944 46.104 235.978 47.6551C234.983 49.2062 233.988 50.7865 232.935 52.3962C232.701 52.7766 232.584 53.0693 232.584 53.3327C232.584 53.5083 232.642 53.6254 232.788 53.7424C232.935 53.8302 233.14 53.918 233.374 53.918C233.813 53.9473 234.398 53.9766 235.1 54.0058C235.803 54.0351 236.476 54.0351 237.091 54.0351C238.203 54.0351 239.198 54.0058 240.134 53.918C241.071 53.8595 241.949 53.7132 242.739 53.5083C244.466 53.0693 245.783 51.6353 246.748 49.2354C246.836 49.0306 246.953 48.8842 247.1 48.7379C247.246 48.6208 247.422 48.5623 247.597 48.5623C247.948 48.5623 248.153 48.7672 248.153 49.1476C248.153 49.411 248.095 49.7915 247.978 50.3183C247.861 50.8451 247.743 51.4011 247.568 52.0157C247.422 52.6303 247.246 53.2449 247.07 53.801C246.895 54.3863 246.748 54.8545 246.661 55.2643C246.573 55.4984 246.456 55.674 246.28 55.8203C246.075 55.9374 245.87 55.9959 245.607 55.9959Z" fill="#142245"/>
<path d="M264.601 56.4057C262.698 56.4057 260.855 56.0837 259.128 55.4106C257.372 54.7375 255.85 53.801 254.504 52.5718C253.158 51.3426 252.104 49.8793 251.343 48.1819C250.582 46.4844 250.172 44.5821 250.172 42.5042C250.172 40.6019 250.494 38.7581 251.109 37.0022C251.753 35.2462 252.689 33.6658 253.948 32.2903C255.206 30.9148 256.757 29.8027 258.601 29.0125C260.445 28.193 262.581 27.7833 265.01 27.7833C266.913 27.7833 268.757 28.1052 270.483 28.7784C272.21 29.4515 273.761 30.388 275.107 31.6172C276.454 32.8464 277.507 34.3097 278.297 36.0071C279.058 37.7046 279.468 39.6069 279.468 41.6848C279.468 43.5578 279.146 45.4016 278.531 47.1575C277.888 48.9428 276.951 50.4939 275.693 51.8987C274.434 53.2742 272.883 54.3863 271.039 55.1765C269.166 55.9959 267.03 56.4057 264.601 56.4057ZM265.332 54.5619C267.118 54.5619 268.581 54.1229 269.781 53.2156C270.981 52.3084 271.888 51.0499 272.473 49.4403C273.088 47.8307 273.381 45.9576 273.381 43.8505C273.381 42.036 273.205 40.3093 272.825 38.6118C272.444 36.9144 271.888 35.4218 271.127 34.0756C270.366 32.7293 269.43 31.6757 268.288 30.8855C267.147 30.0953 265.801 29.7149 264.22 29.7149C262.435 29.7149 260.972 30.1539 259.772 31.0611C258.572 31.9684 257.694 33.2268 257.079 34.8072C256.494 36.4168 256.201 38.2606 256.201 40.3678C256.201 42.1823 256.377 43.909 256.757 45.6064C257.109 47.3039 257.665 48.8257 258.426 50.172C259.157 51.5182 260.123 52.6011 261.264 53.3912C262.406 54.1522 263.752 54.5619 265.332 54.5619Z" fill="#142245"/>
<path d="M79.9896 63.7222C80.3408 63.1076 80.8383 62.6101 81.4236 62.2589C82.0382 61.9077 82.7113 61.7321 83.443 61.7321C84.3209 61.7321 85.0819 61.937 85.7257 62.376C86.3696 62.7857 86.8671 63.4003 87.1598 64.1612H85.9013C85.6672 63.6637 85.3453 63.3125 84.9355 63.0491C84.5258 62.7857 84.0283 62.6686 83.443 62.6686C82.8869 62.6686 82.3894 62.7857 81.9211 63.0491C81.4821 63.3125 81.1309 63.6929 80.8675 64.1612C80.6041 64.6295 80.4871 65.2148 80.4871 65.8586C80.4871 66.5025 80.6041 67.0585 80.8675 67.5268C81.1309 67.9951 81.4821 68.3755 81.9211 68.6389C82.3601 68.9023 82.8576 69.0194 83.443 69.0194C84.0283 69.0194 84.5258 68.9023 84.9355 68.6389C85.3453 68.3755 85.6672 68.0243 85.9013 67.5268H87.1598C86.8671 68.2877 86.3989 68.8731 85.7257 69.312C85.0819 69.7218 84.3209 69.9266 83.443 69.9266C82.7113 69.9266 82.0089 69.751 81.4236 69.3998C80.809 69.0486 80.3408 68.5511 79.9896 67.9365C79.6384 67.3219 79.4628 66.6196 79.4628 65.8294C79.4628 65.0392 79.6384 64.3368 79.9896 63.7222Z" fill="#AB917A"/>
<path d="M97.6955 68.9901H100.505V69.8388H96.642V61.8199H97.6955V68.9901Z" fill="#AB917A"/>
<path d="M110.573 62.6686V65.3611H113.499V66.2391H110.573V68.9901H113.851V69.8681H109.519V61.8199H113.851V62.6979H110.573V62.6686Z" fill="#AB917A"/>
<path d="M128.103 68.0536H124.591L123.947 69.8388H122.835L125.733 61.8492H126.932L129.83 69.8388H128.718L128.103 68.0536ZM127.781 67.2049L126.318 63.1661L124.855 67.2049H127.781Z" fill="#AB917A"/>
<path d="M145.341 69.8388H144.287L140.073 63.4588V69.8388H139.019V61.8199H140.073L144.287 68.1999V61.8199H145.341V69.8388Z" fill="#AB917A"/>
<path d="M156.082 61.8199V69.8388H155.028V61.8199H156.082Z" fill="#AB917A"/>
<path d="M172.09 69.8388H171.037L166.822 63.4588V69.8388H165.769V61.8199H166.822L171.037 68.1999V61.8199H172.09V69.8388Z" fill="#AB917A"/>
<path d="M187.865 64.1612C187.631 63.6929 187.309 63.3417 186.899 63.0783C186.489 62.815 185.992 62.6979 185.436 62.6979C184.88 62.6979 184.382 62.815 183.914 63.0783C183.475 63.3417 183.124 63.6929 182.86 64.1905C182.597 64.6587 182.48 65.2148 182.48 65.8586C182.48 66.5025 182.597 67.0293 182.86 67.5268C183.124 67.9951 183.475 68.3755 183.914 68.6389C184.353 68.9023 184.88 69.0194 185.436 69.0194C186.226 69.0194 186.87 68.7853 187.367 68.317C187.865 67.8487 188.157 67.2049 188.245 66.4147H185.055V65.566H189.387V66.3854C189.328 67.0586 189.123 67.6439 188.772 68.1999C188.421 68.756 187.953 69.195 187.367 69.4876C186.782 69.7803 186.138 69.9559 185.436 69.9559C184.704 69.9559 184.002 69.7803 183.387 69.4291C182.772 69.0779 182.275 68.5804 181.924 67.9658C181.573 67.3512 181.397 66.6488 181.397 65.8586C181.397 65.0684 181.573 64.3661 181.924 63.7515C182.275 63.1369 182.772 62.6394 183.387 62.2882C184.002 61.937 184.675 61.7614 185.436 61.7614C186.284 61.7614 187.045 61.9662 187.689 62.4052C188.333 62.815 188.831 63.4295 189.123 64.1905H187.865V64.1612Z" fill="#AB917A"/>
<path d="M215.697 64.1612C215.463 63.6929 215.141 63.3417 214.731 63.0783C214.321 62.815 213.824 62.6979 213.268 62.6979C212.712 62.6979 212.214 62.815 211.746 63.0783C211.307 63.3417 210.956 63.6929 210.692 64.1905C210.429 64.6587 210.312 65.2148 210.312 65.8586C210.312 66.5025 210.429 67.0293 210.692 67.5268C210.956 67.9951 211.307 68.3755 211.746 68.6389C212.185 68.9023 212.712 69.0194 213.268 69.0194C214.058 69.0194 214.702 68.7853 215.199 68.317C215.697 67.8487 215.99 67.2049 216.077 66.4147H212.887V65.566H217.219V66.3854C217.16 67.0586 216.955 67.6439 216.604 68.1999C216.253 68.756 215.785 69.195 215.199 69.4876C214.614 69.7803 213.97 69.9559 213.268 69.9559C212.536 69.9559 211.834 69.7803 211.219 69.4291C210.605 69.0779 210.107 68.5804 209.756 67.9658C209.405 67.3512 209.229 66.6488 209.229 65.8586C209.229 65.0684 209.405 64.3661 209.756 63.7515C210.107 63.1369 210.605 62.6394 211.219 62.2882C211.834 61.937 212.507 61.7614 213.268 61.7614C214.116 61.7614 214.877 61.9662 215.521 62.4052C216.165 62.815 216.663 63.4295 216.955 64.1905H215.697V64.1612Z" fill="#AB917A"/>
<path d="M230.74 69.8388L228.837 66.561H227.579V69.8388H226.525V61.8199H229.13C229.745 61.8199 230.242 61.937 230.681 62.1418C231.091 62.3467 231.413 62.6394 231.618 62.9905C231.823 63.3417 231.94 63.7515 231.94 64.1905C231.94 64.7465 231.793 65.244 231.471 65.6538C231.149 66.0635 230.681 66.3562 230.037 66.5025L232.057 69.8681H230.74V69.8388ZM227.55 65.7123H229.101C229.657 65.7123 230.096 65.566 230.389 65.3026C230.681 65.0099 230.828 64.6587 230.828 64.1905C230.828 63.7222 230.681 63.3417 230.418 63.0783C230.125 62.8149 229.715 62.6979 229.13 62.6979H227.579V65.7123H227.55Z" fill="#AB917A"/>
<path d="M243.002 69.3998C242.388 69.0487 241.89 68.5511 241.539 67.9365C241.188 67.3219 241.012 66.6196 241.012 65.8294C241.012 65.0392 241.188 64.3368 241.539 63.7222C241.89 63.1076 242.388 62.6101 243.002 62.2589C243.617 61.9077 244.29 61.7321 245.051 61.7321C245.812 61.7321 246.485 61.9077 247.099 62.2589C247.714 62.6101 248.212 63.1076 248.563 63.7222C248.914 64.3368 249.09 65.0392 249.09 65.8294C249.09 66.6196 248.914 67.3219 248.563 67.9365C248.212 68.5511 247.714 69.0487 247.099 69.3998C246.485 69.751 245.812 69.9266 245.051 69.9266C244.319 69.9266 243.617 69.751 243.002 69.3998ZM246.573 68.6389C247.012 68.3755 247.363 67.9951 247.626 67.5268C247.89 67.0293 248.007 66.4732 248.007 65.8586C248.007 65.2148 247.89 64.6587 247.626 64.1612C247.363 63.6929 247.012 63.3125 246.573 63.0491C246.134 62.7857 245.607 62.6686 245.051 62.6686C244.495 62.6686 243.968 62.7857 243.529 63.0491C243.09 63.3125 242.739 63.6929 242.475 64.1612C242.212 64.6295 242.095 65.2148 242.095 65.8586C242.095 66.5025 242.212 67.0586 242.475 67.5268C242.739 68.0243 243.09 68.3755 243.529 68.6389C243.968 68.9023 244.495 69.0194 245.051 69.0194C245.607 69.0194 246.104 68.8731 246.573 68.6389Z" fill="#AB917A"/>
<path d="M259.391 61.8199V66.9122C259.391 67.6146 259.567 68.1414 259.918 68.4926C260.269 68.8438 260.767 69.0194 261.381 69.0194C261.996 69.0194 262.464 68.8438 262.815 68.4926C263.167 68.1414 263.342 67.6146 263.342 66.9122V61.8199H264.396V66.8829C264.396 67.5561 264.249 68.1121 263.986 68.5804C263.723 69.0487 263.342 69.3706 262.903 69.6047C262.435 69.8388 261.937 69.9266 261.352 69.9266C260.796 69.9266 260.269 69.8096 259.801 69.6047C259.333 69.3706 258.982 69.0487 258.718 68.5804C258.455 68.1121 258.308 67.5561 258.308 66.8829V61.8199H259.391Z" fill="#AB917A"/>
<path d="M278.736 65.8294C278.268 66.2684 277.595 66.5025 276.658 66.5025H275.107V69.8388H274.054V61.8199H276.658C277.566 61.8199 278.239 62.0248 278.736 62.4638C279.205 62.9028 279.439 63.4588 279.439 64.1612C279.409 64.8343 279.205 65.3904 278.736 65.8294ZM277.946 65.244C278.21 64.9807 278.356 64.6295 278.356 64.1612C278.356 63.1661 277.8 62.6686 276.658 62.6686H275.107V65.6245H276.658C277.244 65.6245 277.653 65.5074 277.946 65.244Z" fill="#AB917A"/>
</g>
<defs>
<clipPath id="clip0_0_45">
<rect width="280" height="70" fill="white"/>
</clipPath>
</defs>
</svg>
