<svg width="48" height="31" viewBox="0 0 48 31" fill="none" xmlns="http://www.w3.org/2000/svg">
<g clip-path="url(#clip0_35_16722)">
<path d="M44.6896 1.09113H3.31034C1.71062 1.09113 0.413788 2.24901 0.413788 3.67733V27.3227C0.413788 28.751 1.71062 29.9089 3.31034 29.9089H44.6896C46.2894 29.9089 47.5862 28.751 47.5862 27.3227V3.67733C47.5862 2.24901 46.2894 1.09113 44.6896 1.09113Z" fill="white" stroke="#F3F3F3" stroke-width="1.03448"/>
<path fill-rule="evenodd" clip-rule="evenodd" d="M17.5853 23.5472V24.6385V25.7298H17.0496V25.4648C16.8797 25.6614 16.6219 25.7847 16.2715 25.7847C15.5806 25.7847 15.0391 25.3054 15.0391 24.6385C15.0391 23.9721 15.5806 23.4923 16.2715 23.4923C16.6219 23.4923 16.8797 23.6157 17.0496 23.8122V23.5472H17.5853ZM16.3381 23.9398C15.8744 23.9398 15.5907 24.2549 15.5907 24.6385C15.5907 25.0221 15.8744 25.3373 16.3381 25.3373C16.7812 25.3373 17.0803 25.0357 17.0803 24.6385C17.0803 24.2413 16.7812 23.9398 16.3381 23.9398ZM35.6878 24.6385C35.6878 24.2549 35.9716 23.9398 36.4353 23.9398C36.879 23.9398 37.1775 24.2413 37.1775 24.6385C37.1775 25.0357 36.879 25.3373 36.4353 25.3373C35.9716 25.3373 35.6878 25.0221 35.6878 24.6385ZM37.6831 22.6707V24.6385V25.7298H37.1469V25.4648C36.9769 25.6614 36.7191 25.7847 36.3687 25.7847C35.6778 25.7847 35.1363 25.3054 35.1363 24.6385C35.1363 23.9721 35.6778 23.4923 36.3687 23.4923C36.7191 23.4923 36.9769 23.6157 37.1469 23.8122V22.6707H37.6831ZM24.2349 23.9173C24.58 23.9173 24.8018 24.109 24.8585 24.4467H23.58C23.6372 24.1316 23.8531 23.9173 24.2349 23.9173ZM23.0183 24.6385C23.0183 23.958 23.5233 23.4923 24.2455 23.4923C24.9358 23.4923 25.41 23.958 25.4153 24.6385C25.4153 24.7022 25.41 24.7619 25.4047 24.8209H23.5753C23.6526 25.2139 23.967 25.3556 24.3121 25.3556C24.5593 25.3556 24.8225 25.273 25.0289 25.1272L25.2914 25.4789C24.9924 25.7026 24.6526 25.7847 24.2815 25.7847C23.544 25.7847 23.0183 25.3326 23.0183 24.6385ZM30.7139 24.6385C30.7139 24.2549 30.9977 23.9398 31.4614 23.9398C31.9044 23.9398 32.2035 24.2413 32.2035 24.6385C32.2035 25.0357 31.9044 25.3373 31.4614 25.3373C30.9977 25.3373 30.7139 25.0221 30.7139 24.6385ZM32.7085 23.5472V24.6385V25.7298H32.1728V25.4648C32.0023 25.6614 31.7451 25.7847 31.3947 25.7847C30.7038 25.7847 30.1622 25.3054 30.1622 24.6385C30.1622 23.9721 30.7038 23.4923 31.3947 23.4923C31.7451 23.4923 32.0023 23.6157 32.1728 23.8122V23.5472H32.7085ZM27.6885 24.6385C27.6885 25.3007 28.2089 25.7847 29.0029 25.7847C29.374 25.7847 29.6212 25.7115 29.8891 25.5244L29.6318 25.1408C29.4307 25.2688 29.2194 25.3373 28.987 25.3373C28.5593 25.3326 28.2449 25.0587 28.2449 24.6385C28.2449 24.2183 28.5593 23.9444 28.987 23.9398C29.2194 23.9398 29.4307 24.0082 29.6318 24.1362L29.8891 23.7526C29.6212 23.5655 29.374 23.4923 29.0029 23.4923C28.2089 23.4923 27.6885 23.9763 27.6885 24.6385ZM33.9457 23.8122C34.0849 23.6204 34.2861 23.4923 34.5953 23.4923C34.7038 23.4923 34.8583 23.5107 34.9769 23.5519L34.8118 23.9993C34.6985 23.958 34.5852 23.9444 34.4767 23.9444C34.1262 23.9444 33.951 24.1451 33.951 24.5063V25.7298H33.4147V23.5472H33.9457V23.8122ZM20.2349 23.7207C19.977 23.5702 19.6219 23.4923 19.2301 23.4923C18.606 23.4923 18.2042 23.7573 18.2042 24.1911C18.2042 24.5471 18.5033 24.7665 19.0543 24.835L19.3074 24.8669C19.6012 24.9035 19.7399 24.972 19.7399 25.0953C19.7399 25.2641 19.544 25.3603 19.1782 25.3603C18.8071 25.3603 18.5393 25.2553 18.3588 25.1319L18.1063 25.5014C18.4001 25.6932 18.7711 25.7847 19.1729 25.7847C19.8844 25.7847 20.2968 25.4878 20.2968 25.0723C20.2968 24.6887 19.9723 24.488 19.436 24.4195L19.1835 24.3871C18.9517 24.3599 18.7659 24.3192 18.7659 24.1728C18.7659 24.0129 18.9411 23.9173 19.2348 23.9173C19.5493 23.9173 19.8537 24.0223 20.003 24.1044L20.2349 23.7207ZM26.498 23.8122C26.6366 23.6204 26.8378 23.4923 27.1469 23.4923C27.2555 23.4923 27.4101 23.5107 27.5286 23.5519L27.3634 23.9993C27.2502 23.958 27.1369 23.9444 27.0283 23.9444C26.6779 23.9444 26.5027 24.1451 26.5027 24.5063V25.7298H25.967V23.5472H26.498V23.8122ZM22.5752 23.5472H21.6991V22.885H21.1576V23.5472H20.6579V23.981H21.1576V24.9767C21.1576 25.4831 21.3794 25.7847 22.0131 25.7847C22.2454 25.7847 22.5133 25.7209 22.6832 25.6158L22.5286 25.2092C22.3687 25.2913 22.1935 25.3326 22.0543 25.3326C21.7865 25.3326 21.6991 25.1862 21.6991 24.9672V23.981H22.5752V23.5472ZM14.5653 24.3599V25.7298H14.0237V24.5152C14.0237 24.1451 13.8485 23.9398 13.4827 23.9398C13.1269 23.9398 12.8797 24.141 12.8797 24.5199V25.7298H12.3382V24.5152C12.3382 24.1451 12.1582 23.9398 11.8025 23.9398C11.4361 23.9398 11.199 24.141 11.199 24.5199V25.7298H10.658V23.5472H11.1943V23.8164C11.3955 23.5608 11.6527 23.4923 11.9158 23.4923C12.2921 23.4923 12.56 23.6387 12.7299 23.8806C12.957 23.5744 13.2815 23.4876 13.596 23.4923C14.1942 23.4971 14.5653 23.8441 14.5653 24.3599Z" fill="#231F20"/>
<path d="M28.1764 19.8385H20.0573V6.91254H28.1764V19.8385Z" fill="#FF5F00"/>
<path d="M20.5724 13.3758C20.5724 10.7537 21.9582 8.418 24.1163 6.9128C22.5382 5.81211 20.5464 5.15515 18.3819 5.15515C13.2574 5.15515 9.10345 8.83563 9.10345 13.3758C9.10345 17.916 13.2574 21.5965 18.3819 21.5965C20.5464 21.5965 22.5382 20.9395 24.1163 19.8388C21.9582 18.3337 20.5724 15.9979 20.5724 13.3758Z" fill="#EB001B"/>
<path d="M39.1298 13.3758C39.1298 17.916 34.9758 21.5965 29.8514 21.5965C27.6867 21.5965 25.6951 20.9395 24.1163 19.8388C26.2749 18.3337 27.6608 15.9979 27.6608 13.3758C27.6608 10.7537 26.2749 8.418 24.1163 6.9128C25.6951 5.81211 27.6867 5.15515 29.8514 5.15515C34.9758 5.15515 39.1298 8.83563 39.1298 13.3758Z" fill="#F79E1B"/>
</g>
<defs>
<clipPath id="clip0_35_16722">
<rect width="48" height="30" fill="white" transform="translate(0 0.5)"/>
</clipPath>
</defs>
</svg>
