<svg width="35" height="36" viewBox="0 0 35 36" fill="none" xmlns="http://www.w3.org/2000/svg">
<g clip-path="url(#clip0_35_12336)">
<path d="M27.0798 10.8337L20.5007 6.32186L12.8265 9.09029L6.56726 18.2173L21.0027 28.117L27.2619 18.99L27.0798 10.8337ZM18.929 15.6665C17.6393 14.7821 17.3108 13.0196 18.1953 11.7299C19.0797 10.4403 20.8422 10.1118 22.1318 10.9962C23.4215 11.8806 23.75 13.6431 22.8655 14.9328C21.9811 16.2224 20.2186 16.5509 18.929 15.6665Z" fill="white"/>
<path d="M20.4952 28.8572C20.904 29.1375 21.4628 29.0334 21.7432 28.6246L28.0023 19.4976C28.1087 19.3425 28.1636 19.158 28.1595 18.97L27.9774 10.8136C27.9709 10.5247 27.8259 10.2567 27.5877 10.0933L25.0383 8.34501L25.9572 7.00524C26.2376 6.59644 26.1334 6.03766 25.7246 5.75732C25.3158 5.47698 24.757 5.58109 24.4766 5.98992L23.5578 7.32974L21.0085 5.58145C20.7703 5.41808 20.468 5.37939 20.1961 5.47737L12.5219 8.24595C12.345 8.30978 12.1927 8.42757 12.0863 8.58264L1.82508 23.5453C1.54467 23.9542 1.64889 24.5129 2.05768 24.7932L16.4932 34.6929C16.9019 34.9733 17.4607 34.8692 17.7411 34.4603L18.9869 32.6437C19.2673 32.2348 19.1631 31.6761 18.7543 31.3958C18.3456 31.1154 17.7868 31.2195 17.5064 31.6284L16.7682 32.7047L3.81331 23.8204L6.79998 19.4653L20.4951 28.8573L20.4952 28.8572ZM13.4033 9.83643L20.3727 7.32221L22.5425 8.81025L21.8372 9.83873C20.27 9.25258 18.4431 9.78149 17.4551 11.222C16.2922 12.9178 16.7257 15.2436 18.4215 16.4065C20.1172 17.5695 22.443 17.136 23.606 15.4402C24.5939 13.9996 24.4292 12.1048 23.3177 10.8541L24.023 9.82565L26.1928 11.3137L26.3582 18.7208L20.7702 26.8691L7.81533 17.9847L13.4033 9.83643ZM21.6242 11.7364C22.5036 12.3394 22.7284 13.5456 22.1254 14.425C21.5223 15.3043 20.3161 15.5291 19.4368 14.9261C18.5574 14.323 18.3326 13.1168 18.9356 12.2375C19.5387 11.3581 20.7449 11.1333 21.6242 11.7364Z" fill="white"/>
</g>
<defs>
<clipPath id="clip0_35_12336">
<rect width="20.359" height="29.0842" fill="white" transform="translate(17.3296) rotate(34.4419)"/>
</clipPath>
</defs>
</svg>
