<svg width="21" height="25" fill="none" xmlns="http://www.w3.org/2000/svg"><path d="M2.12 5.385h12.744c.331-.392.514-.883.504-1.388a1.956 1.956 0 00-.662-1.446c-.227-.2-.583-.44-.993-.44h-.077c-1.063.038-2.064-.377-2.747-1.136A2.945 2.945 0 008.703 0c-.838 0-1.638.359-2.195.984a3.55 3.55 0 01-3.082 1.141 2.18 2.18 0 00-.261-.015c-.261 0-.534.109-.812.323a1.94 1.94 0 00-.743 1.313 2.037 2.037 0 00.425 1.516l.086.123zm4.771 2.053c.018 0 .036.003.053.003h9.446c.312 0 .567-.25.567-.563a.564.564 0 00-.567-.563H.567A.564.564 0 000 6.878c0 .313.254.563.567.563h6.271c.018 0 .035-.003.053-.003zm7.53 10.622h1.322v-6.945a.672.672 0 00-.37-.581l-.011-.004a.609.609 0 00-.293-.075.65.65 0 00-.648.66v5.725c0 .026.008.052.008.08 0 .026-.008.052-.008.078v1.063zm1.779 2.35c-.269 0-.457-.215-.457-.484v-.935h-1.322v.935c0 .269-.246.485-.515.485h-.073c-.744 0-1.32.607-1.32 1.35v.311c0 .037.014.075.014.114 0 .039-.014.077-.014.113v.363h5.383v-.369c0-.034-.012-.07-.012-.107 0-.037.012-.073.012-.108v-.316l.014-.004a1.34 1.34 0 00-1.335-1.347H16.2zM6.395 10.06V8.42H1.634l.767 6.351a4.784 4.784 0 003.994-4.71z" fill="#977659"/><path d="M19.668 22.662h-.793v.478c0 .27-.195.501-.464.501h-6.414c-.27 0-.463-.231-.463-.5v-.479H11l-.365 2.203h9.397l-.365-2.203z" fill="#977659"/><path d="M13.443 19.475v-2.05H2.724l.79 6.487a1.09 1.09 0 001.092.952h5.041l.46-2.768a.493.493 0 01.48-.413h.924c.03-1.077.855-2.016 1.932-2.208zm0-8.36c0-.901.72-1.636 1.622-1.636.045 0 .08-.006.124-.003l.123-1.057H7.374v1.641a5.78 5.78 0 01-4.854 5.696l.086.69h10.837v-5.33z" fill="#977659"/></svg>