<svg width="26" height="22" fill="none" xmlns="http://www.w3.org/2000/svg"><path d="M18.484 8.68c-.585 0-1.097.541-1.097 1.16v-.774c0-.618-.511-1.16-1.096-1.16-.585 0-1.097.542-1.097 1.16v-.773c0-.619-.512-1.16-1.097-1.16S13 7.674 13 8.293v.773c0-.618-.512-1.16-1.097-1.16s-1.097.542-1.097 1.16v7.657L8.978 14.79c-.439-.464-1.097-.542-1.536-.155-.585.464-.658 1.392-.146 1.934l4.973 5.26h5.85a22.99 22.99 0 001.462-8.045V9.84c0-.619-.512-1.16-1.097-1.16z" fill="#977659"/><path d="M23.969 11.155a4.472 4.472 0 01-.293-3.094c.22-.85.293-1.779.147-2.707-.366-2.552-2.34-4.64-4.754-5.105a5.606 5.606 0 00-3.729.62c-1.097.618-2.34.773-3.51.309-.877-.31-1.828-.387-2.852-.233-2.34.542-4.241 2.553-4.68 5.028v.077c-.365 2.243-1.097 4.486-2.267 6.497-.658 1.238-.95 2.707-.658 4.177.439 2.475 2.267 4.486 4.607 4.95.366.077.804.154 1.17.154a5.41 5.41 0 002.486-.618L6.2 17.574c-.511-.541-.804-1.392-.73-2.165.072-.851.438-1.547 1.096-2.011a2.44 2.44 0 012.779-.155v-4.1c0-1.469 1.17-2.706 2.56-2.706h.365a2.525 2.525 0 011.828-.774c.731 0 1.39.31 1.828.774.804-.155 1.682.155 2.194.773h.365c1.39 0 2.56 1.238 2.56 2.707v3.945c0 2.165-.293 4.254-.805 6.342 1.024-.232 1.902-.773 2.706-1.547 1.17-1.16 1.828-2.784 1.828-4.486-.073-1.082-.292-2.088-.804-3.016z" fill="#977659"/></svg>