<svg width="18" height="24" fill="none" xmlns="http://www.w3.org/2000/svg"><g clip-path="url(#clip0_0_682)"><path d="M3.03 8.543h2.953c.911 0 1.141.656 1.141 1.506 0 .394-.054.838-.108 1.267-.088.711-.17 1.38.017 1.621.312.407.763.878 1.246 1.381 1.196 1.25 2.578 2.694 2.68 3.987.063.79.076 1.81-.061 2.752-.105.726-.301 1.412-.633 1.924-.17.261-.368.496-.623.675a1.94 1.94 0 01-.953.34H3.681c-.01 0-.02 0-.027-.002-.531-.031-1.01-.158-1.413-.416-.414-.265-.74-.666-.954-1.238a.212.212 0 01-.012-.047c-.453-2.318-.638-4.629-.42-6.906a17.817 17.817 0 011.998-6.733.2.2 0 01.176-.111zM1.184 16.57c3.398.842 5.232-1.877 8.29-.312-.45-.557-.984-1.115-1.482-1.637-.49-.512-.949-.992-1.277-1.414-.297-.385-.204-1.14-.104-1.943.05-.41.103-.834.103-1.213 0-.606-.148-1.076-.732-1.076H3.15a17.406 17.406 0 00-1.89 6.455c-.038.379-.062.76-.076 1.14zM8.93 1.361l-.023 2.715c0 .098-.063.18-.15.203-.626.186-1.179.436-1.602.825-.411.378-.707.898-.84 1.632v.928a.21.21 0 01-.206.215H3.126c-.177.017-.32-.025-.43-.14-.101-.108-.155-.272-.157-.503v-.021c.067-.762-.083-1.33-.427-1.774-.354-.453-.923-.79-1.68-1.078a.217.217 0 01-.124-.273v-.002c.41-1.133 1.042-1.856 1.834-2.305.782-.443 1.714-.611 2.736-.64a78.51 78.51 0 011.925-.034c.643-.002 1.285.006 1.926.032a.208.208 0 01.2.22zM8.5 3.914l.018-2.353a45.644 45.644 0 00-1.713-.024c-.636.002-1.274.016-1.914.033-.962.028-1.833.184-2.552.59-.662.375-1.2.969-1.57 1.881.73.297 1.288.654 1.662 1.133.414.53.593 1.193.519 2.07.002.108.016.172.04.2.014.013.048.017.098.013a.197.197 0 01.034-.004h2.783v-.728a.25.25 0 01.004-.037c.15-.852.492-1.456.975-1.9.444-.411.994-.679 1.615-.874zm.85-2.615l.016 2.61h1.222c.172.005.26-.145.22-.534V1.738c-.005-.142-.06-.236-.165-.285L9.348 1.3zm4.07.847c.354 0 .64.252.64.565 0 .312-.286.564-.64.564-.354 0-.64-.252-.64-.564 0-.313.286-.565.64-.565zm3.645-.056c.353 0 .64.252.64.564 0 .313-.287.565-.64.565-.354 0-.64-.252-.64-.565 0-.312.286-.564.64-.564zm-.072 2.127c.354 0 .64.252.64.564 0 .313-.286.565-.64.565-.353 0-.64-.252-.64-.565 0-.312.287-.564.64-.564zm-1.769-.998c.354 0 .64.252.64.564 0 .313-.286.565-.64.565-.353 0-.64-.252-.64-.565 0-.31.287-.564.64-.564zM17.064 0c.354 0 .64.252.64.564 0 .313-.286.565-.64.565-.353 0-.64-.252-.64-.565 0-.312.287-.564.64-.564zm-1.82 1.072c.353 0 .64.252.64.565 0 .312-.287.564-.64.564-.354 0-.64-.252-.64-.564-.003-.31.286-.565.64-.565zM7.2 6.962c.217-.907.738-1.505 1.614-1.737.196 1.46.623 2.634 1.218 3.59.363.535-.226 1.087-.651.523L8.004 6.986l-.803-.023z" fill="#977659"/></g><defs><clipPath id="clip0_0_682"><path fill="#fff" d="M0 0h18v24H0z"/></clipPath></defs></svg>