<svg width="22" height="22" fill="none" xmlns="http://www.w3.org/2000/svg"><path d="M12.375 9.625h-2.75c-.412 0-.688-.275-.688-.688V2.064C8.938.893 9.832 0 11 0s2.063.894 2.063 2.063v6.874c0 .413-.276.688-.688.688zm4.606 4.125l-.206-1.1c-.275-.963-1.1-1.65-2.062-1.65H7.288c-.963 0-1.788.688-1.994 1.65l-.275 1.1H16.98zM4.744 15.125l-1.307 6.05a.535.535 0 00.138.55c.137.206.344.275.55.275h2.75v-3.438c0-.412.275-.687.687-.687.413 0 .688.275.688.688V22h5.5v-2.063c0-.412.275-.687.688-.687.412 0 .687.275.687.688V22h2.75c.206 0 .413-.069.55-.275a.535.535 0 00.137-.55l-1.306-6.05H4.744z" fill="#977659"/></svg>