<svg width="18" height="18" fill="none" xmlns="http://www.w3.org/2000/svg"><path d="M6.158 5.79L.48 6.45a.549.549 0 00-.454.387.577.577 0 00.151.589c1.688 1.614 4.224 4.032 4.224 4.032-.002 0-.696 3.517-1.158 5.864a.583.583 0 00.212.572.515.515 0 00.58.031c1.987-1.184 4.964-2.964 4.964-2.964l4.962 2.966a.522.522 0 00.583-.033.58.58 0 00.21-.57c-.461-2.349-1.154-5.866-1.154-5.866s2.536-2.418 4.223-4.03a.588.588 0 00.151-.591.544.544 0 00-.453-.385c-2.271-.267-5.678-.663-5.678-.663L9.49.332A.544.544 0 009 0a.537.537 0 00-.489.332C7.568 2.515 6.158 5.79 6.158 5.79z" fill="#FBBC05"/></svg>