<svg width="26" height="30" fill="none" xmlns="http://www.w3.org/2000/svg"><path d="M7.382 1.054S6.946 0 6.28 0c-.656 0-.997.312-1.224.528-.227.215-4.03 3.44-4.03 3.44S-.08 4.965.005 6.84c.071 1.875.426 4.544 2.271 8.26 1.831 3.71 6.415 9.377 9.312 11.37 0 0 2.683 2.124 5.18 2.987.726.236 2.177.543 2.515.543.343 0 .95 0 1.646-.525.709-.53 4.682-3.828 4.682-3.828s.972-.906-.157-1.96c-1.135-1.055-4.582-3.399-5.319-4.015-.738-.626-1.79-.35-2.245.073-.453.427-1.263 1.13-1.362 1.218-.148.117-.554.498-1.008.308-.579-.236-2.952-1.565-5.152-4.672-2.187-3.103-2.427-4.118-2.754-5.214a.787.787 0 01-.002-.501.76.76 0 01.3-.395c.327-.235 1.534-1.272 1.534-1.272s.78-.795.454-1.732c-.326-.937-2.518-6.43-2.518-6.43z" fill="#fff"/></svg>