<svg width="26" height="30" viewBox="0 0 26 30" fill="none" xmlns="http://www.w3.org/2000/svg">
<path d="M7.38165 1.05409C7.38165 1.05409 6.94561 0 6.27965 0C5.62427 0 5.28336 0.312273 5.05609 0.527727C4.82882 0.743182 1.02601 3.96818 1.02601 3.96818C1.02601 3.96818 -0.079952 4.965 0.00461373 6.84C0.0759661 8.715 0.431406 11.3836 2.276 15.1009C4.10737 18.81 8.6911 24.4773 11.5875 26.4695C11.5875 26.4695 14.2711 28.5941 16.7684 29.4573C17.4939 29.6932 18.9447 30 19.283 30C19.6265 30 20.233 30 20.9293 29.475C21.6376 28.9445 25.6109 25.6473 25.6109 25.6473C25.6109 25.6473 26.5834 24.7405 25.4536 23.6864C24.3186 22.6323 20.8725 20.2882 20.1352 19.6718C19.3966 19.0459 18.3448 19.3214 17.8903 19.7455C17.437 20.1723 16.6271 20.8745 16.528 20.9632C16.38 21.0805 15.9743 21.4609 15.5198 21.2714C14.941 21.0355 12.5679 19.7059 10.3679 16.5995C8.18106 13.4959 7.94058 12.4814 7.61421 11.385C7.55886 11.2229 7.55809 11.0463 7.61204 10.8837C7.66599 10.7212 7.7715 10.5821 7.91151 10.4891C8.2392 10.2545 9.44559 9.21682 9.44559 9.21682C9.44559 9.21682 10.2265 8.42182 9.90013 7.485C9.57375 6.54818 7.38165 1.05409 7.38165 1.05409Z" fill="white" fill-opacity="0.7"/>
</svg>
