<svg width="48" height="48" viewBox="0 0 48 48" fill="none" xmlns="http://www.w3.org/2000/svg">
<circle cx="24" cy="24" r="24" fill="#F0F0F0"/>
<path d="M18.3817 10.0541C18.3817 10.0541 17.9456 9 17.2797 9C16.6243 9 16.2834 9.31227 16.0561 9.52773C15.8288 9.74318 12.026 12.9682 12.026 12.9682C12.026 12.9682 10.92 13.965 11.0046 15.84C11.076 17.715 11.4314 20.3836 13.276 24.1009C15.1074 27.81 19.6911 33.4773 22.5875 35.4695C22.5875 35.4695 25.2711 37.5941 27.7684 38.4573C28.4939 38.6932 29.9447 39 30.283 39C30.6265 39 31.233 39 31.9293 38.475C32.6376 37.9445 36.6109 34.6473 36.6109 34.6473C36.6109 34.6473 37.5834 33.7405 36.4536 32.6864C35.3186 31.6323 31.8725 29.2882 31.1352 28.6718C30.3966 28.0459 29.3448 28.3214 28.8903 28.7455C28.437 29.1723 27.6271 29.8745 27.528 29.9632C27.38 30.0805 26.9743 30.4609 26.5198 30.2714C25.941 30.0355 23.5679 28.7059 21.3679 25.5995C19.1811 22.4959 18.9406 21.4814 18.6142 20.385C18.5589 20.2229 18.5581 20.0463 18.612 19.8837C18.666 19.7212 18.7715 19.5821 18.9115 19.4891C19.2392 19.2545 20.4456 18.2168 20.4456 18.2168C20.4456 18.2168 21.2265 17.4218 20.9001 16.485C20.5738 15.5482 18.3817 10.0541 18.3817 10.0541Z" fill="#142245"/>
</svg>
