<svg width="30" height="30" viewBox="0 0 30 30" fill="none" xmlns="http://www.w3.org/2000/svg">
<path d="M15.615 0.964691C17.1497 0.941254 18.6731 0.953441 20.1956 0.941254C20.2462 2.84532 21.0187 4.55907 22.2478 5.82844L22.2459 5.82657C23.5687 7.01813 25.29 7.79063 27.1875 7.92188L27.2137 7.92375V12.645C25.4212 12.6 23.7356 12.1866 22.2159 11.4759L22.2928 11.5078C21.5578 11.1544 20.9362 10.7916 20.3456 10.3866L20.3944 10.4184C20.3831 13.8394 20.4056 17.2603 20.3709 20.6691C20.2743 22.4063 19.6968 23.9906 18.7706 25.3134L18.7894 25.2844C17.2406 27.5025 14.7319 28.9584 11.879 29.0447H11.8659C11.7506 29.0503 11.6147 29.0531 11.4778 29.0531C9.85591 29.0531 8.33998 28.6013 7.0481 27.8166L7.0856 27.8381C4.73435 26.4234 3.11248 24.0028 2.81248 21.1875L2.80873 21.1491C2.78529 20.5631 2.77404 19.9772 2.79748 19.4034C3.25685 14.9231 7.0106 11.4572 11.5734 11.4572C12.0862 11.4572 12.5887 11.5013 13.0772 11.5847L13.0247 11.5772C13.0481 13.3106 12.9778 15.045 12.9778 16.7784C12.5812 16.635 12.1237 16.5516 11.6465 16.5516C9.89529 16.5516 8.4056 17.6709 7.85435 19.2338L7.84591 19.2619C7.72123 19.6622 7.64904 20.1225 7.64904 20.5988C7.64904 20.7919 7.66123 20.9831 7.68373 21.1706L7.68185 21.1481C7.9931 23.0663 9.63748 24.5138 11.6203 24.5138C11.6775 24.5138 11.7337 24.5128 11.79 24.51H11.7815C13.1531 24.4688 14.3437 23.7309 15.0169 22.6406L15.0262 22.6238C15.2765 22.275 15.4481 21.8531 15.5053 21.3947L15.5062 21.3816C15.6234 19.2844 15.5765 17.1994 15.5878 15.1022C15.599 10.3809 15.5765 5.67094 15.6112 0.961879L15.615 0.964691Z" fill="white"/>
</svg>
