<svg width="20" height="21" viewBox="0 0 20 21" fill="none" xmlns="http://www.w3.org/2000/svg">
<g clip-path="url(#clip0_0_375)">
<path d="M10.0001 0.5C15.5231 0.5 20.0001 4.97696 20.0001 10.5C20.0001 16.023 15.5231 20.5 10.0001 20.5L7.39136 10.5L10.0001 0.5Z" fill="#354A67"/>
<path d="M10 20.5C4.47696 20.5 0 16.023 0 10.5C0 4.97696 4.47696 0.5 10 0.5V20.5Z" fill="#466289"/>
<path d="M10.0001 18.7611L9.13049 10.0654L18.2609 10.5002C18.2609 15.0554 14.5553 18.7611 10.0001 18.7611Z" fill="#BEC8D6"/>
<path d="M10.0001 2.23926C14.5553 2.23926 18.2609 5.94491 18.2609 10.5001H9.13049L10.0001 2.23926Z" fill="#DAE0E7"/>
<path d="M10 10.5001V18.761C5.44479 18.761 1.73914 15.0554 1.73914 10.5001L5.86957 9.1958L10 10.5001Z" fill="#DAE0E7"/>
<path d="M10 2.23926V10.5001H1.73914C1.73914 5.94491 5.44479 2.23926 10 2.23926Z" fill="white"/>
<path d="M6.60912 5.93096L7.73865 5.27881L7.0865 4.14928L5.95697 4.80143L6.60912 5.93096Z" fill="#DAE0E7"/>
<path d="M4.779 8.2389L5.43115 7.10938L4.30163 6.45722L3.64947 7.58675L4.779 8.2389Z" fill="#DAE0E7"/>
<path d="M5.43096 13.8908L4.77881 12.7612L3.64928 13.4134L4.30143 14.5429L5.43096 13.8908Z" fill="#BEC8D6"/>
<path d="M7.7389 15.721L6.60938 15.0688L5.95722 16.1984L7.08675 16.8505L7.7389 15.721Z" fill="#BEC8D6"/>
<path d="M13.3908 15.069L12.2612 15.7212L12.9134 16.8507L14.0429 16.1986L13.3908 15.069Z" fill="#A3B1C4"/>
<path d="M15.221 12.7611L14.5688 13.8906L15.6984 14.5428L16.3505 13.4132L15.221 12.7611Z" fill="#A3B1C4"/>
<path d="M14.4887 5.11963L10.0309 9.5775V11.4221L15.411 6.04198L14.4887 5.11963Z" fill="#354A67"/>
<path d="M7.87885 7.42578L6.95654 8.34809L10.0309 11.4225V9.57787L7.87885 7.42578Z" fill="#466289"/>
<path d="M10.6522 16.1523H10V17.4567H10.6522V16.1523Z" fill="#A3B1C4"/>
<path d="M10.6522 3.54346H10V4.8478H10.6522V3.54346Z" fill="#BEC8D6"/>
<path d="M9.99995 16.1523H9.34778V17.4567H9.99995V16.1523Z" fill="#BEC8D6"/>
<path d="M9.99995 3.54346H9.34778V4.8478H9.99995V3.54346Z" fill="#DAE0E7"/>
<path d="M16.9566 10.5H15.6522V11.1522H16.9566V10.5Z" fill="#A3B1C4"/>
<path d="M16.9566 9.84766H15.6522V10.4998H16.9566V9.84766Z" fill="#BEC8D6"/>
<path d="M4.3478 10.5H3.04346V11.1522H4.3478V10.5Z" fill="#BEC8D6"/>
<path d="M4.3478 9.84766H3.04346V10.4998H4.3478V9.84766Z" fill="#DAE0E7"/>
</g>
<defs>
<clipPath id="clip0_0_375">
<rect width="20" height="20" fill="white" transform="translate(0 0.5)"/>
</clipPath>
</defs>
</svg>
