<svg width="20" height="20" viewBox="0 0 20 20" fill="none" xmlns="http://www.w3.org/2000/svg">
<g clip-path="url(#clip0_0_491)">
<path d="M6.94886 0V3.21227H4.77312V0C3.43386 0.453477 2.46948 1.71984 2.46948 3.21227C2.46948 4.3716 3.05155 5.39461 3.93905 6.00633V9.44906H7.78304V6.00633C8.6705 5.39469 9.25261 4.37164 9.25261 3.21227C9.25261 1.71984 8.28815 0.453477 6.94886 0Z" fill="#8B8B8B"/>
<path d="M6.94894 0V3.21227H5.86108V9.44902H7.78308V6.00625C8.67054 5.39461 9.25265 4.37156 9.25265 3.21219C9.25269 1.71984 8.28823 0.453477 6.94894 0Z" fill="#6F6F6F"/>
<path d="M15.5651 3.89307H12.7891V9.44873H15.5651V3.89307Z" fill="#E69824"/>
<path d="M15.5655 3.89307H14.1775V9.44873H15.5655V3.89307Z" fill="#DD5323"/>
<path d="M19.4382 4.39094H10.7832V0H16.4081L19.4382 4.39094Z" fill="#444444"/>
<path d="M19.4382 4.39094H14.1772V0H16.4082L19.4382 4.39094Z" fill="#282828"/>
<path d="M19.7739 20H0.22583V8.79688H19.7739V20H19.7739Z" fill="#3D6DFA"/>
</g>
<defs>
<clipPath id="clip0_0_491">
<rect width="20" height="20" fill="white"/>
</clipPath>
</defs>
</svg>
