<svg width="20" height="21" fill="none" xmlns="http://www.w3.org/2000/svg"><path d="M8.125 2.375h6.25v15h-6.25v-15z" fill="#3E4347"/><path d="M5 1.125h10v1.25H5v-1.25z" fill="#DAE3EA"/><path d="M1.25 2.375h3.125V16.75H1.25V2.375z" fill="#3E4347"/><path d="M8.125 16.75h8.75v2.5h-8.75v-2.5z" fill="#B2C1C0"/><path d="M9.375 16.75h1.25v2.5h-1.25v-2.5zm2.5 0h1.25v2.5h-1.25v-2.5zm2.5 0h1.25v2.5h-1.25v-2.5zm0-3.125H17.5v1.25h-3.125v-1.25zm0-3.125H17.5v1.25h-3.125V10.5zm0-3.125H17.5v1.25h-3.125v-1.25zm0-3.125H17.5V5.5h-3.125V4.25zm-2.5 9.375h1.25v1.25h-1.25v-1.25zm0-3.125h1.25v1.25h-1.25V10.5zm0-3.125h1.25v1.25h-1.25v-1.25zm0-3.125h1.25V5.5h-1.25V4.25zm-2.5 9.375h1.25v1.25h-1.25v-1.25zm0-3.125h1.25v1.25h-1.25V10.5zm0-3.125h1.25v1.25h-1.25v-1.25zm0-3.125h1.25V5.5h-1.25V4.25z" fill="#B4D7EE"/><path d="M8.125 14.875h10v1.875h-10v-1.875zm0-3.125h10v1.875h-10V11.75zm0-3.125h10V10.5h-10V8.625zm0-3.125h10v1.875h-10V5.5zm0-3.125h10V4.25h-10V2.375z" fill="#3E4347"/><path d="M4.375 3h3.75v13.75h-3.75V3zM1.25 16.75h6.875v3.125H1.25V16.75z" fill="#B4D7EE"/><path d="M.625 16.125h7.5v.625h-7.5v-.625z" fill="#DAE3EA"/><path d="M4.375 12.375h3.75V13h-3.75v-.625zm0-3.125h3.75v.625h-3.75V9.25zm0-3.125h3.75v.625h-3.75v-.625zm0-2.5h3.75v.625h-3.75v-.625z" fill="#D6EEF0"/><path d="M4.375 2.375h3.75V3h-3.75v-.625z" fill="#F5F5F5"/><path d="M1.25 16.75h.625v3.125H1.25V16.75z" fill="#B2C1C0"/><path d="M3.125 16.75h.406v3.125h-.406V16.75z" fill="#F5F5F5"/><path d="M3.125 16.75h3.75v.344h-3.75v-.344zm0 2.781h3.75v.344h-3.75v-.344z" fill="#F5F5F5"/><path d="M4.781 16.75h.407v3.125H4.78V16.75zm1.688 0h.406v3.125h-.406V16.75z" fill="#F5F5F5"/><path d="M8.125 18.625h11.25v.625H8.125v-.625z" fill="#83BF4F"/><path d="M7.5 19.25h11.875v.625H7.5v-.625z" fill="#DAE3EA"/><path d="M19.063 18.563a.667.667 0 00.093-.375.707.707 0 00-.718-.72h-.032v-.093a.38.38 0 00-.375-.375.284.284 0 00-.218.094c-.032-.25-.282-.438-.532-.438-.312 0-.531.25-.531.563v.125a.655.655 0 00-.344-.125.557.557 0 00-.5.312c-.062-.031-.156-.031-.25-.031a.707.707 0 00-.719.719c0 .156.063.312.157.437a.518.518 0 00-.156.375c0 .313.25.563.53.563h2.876c.093.093.25.156.375.156a.627.627 0 00.625-.625c.031-.25-.094-.438-.282-.563z" fill="#83BF4F"/><path d="M16.156 19.125c0 .188.157-.094.375-.094.188 0 .375.282.375.094a.38.38 0 00-.375-.375.38.38 0 00-.375.375zm1.063-.625c0 .094.093 0 .187 0s.188.094.188 0a.202.202 0 00-.188-.188c-.093 0-.187.063-.187.188zm1.344.656c0 .094.093 0 .187 0s.188.094.188 0a.202.202 0 00-.188-.187c-.094.031-.188.093-.188.187z" fill="#699635"/><path d="M17.781 18c0 .094.094-.031.188-.031.093 0 .187.125.187.031a.202.202 0 00-.187-.188c-.094 0-.188.063-.188.188zm.625.531c0 .094.094-.031.188-.031.093 0 .187.125.187.031a.202.202 0 00-.187-.187c-.125 0-.188.062-.188.187z" fill="#B5F478"/><path d="M15.375 18.188c0 .218.156-.125.375-.125s.375.312.375.125a.38.38 0 00-.375-.375.361.361 0 00-.375.375zm-.031.843c0 .094.094 0 .187 0 .094 0 .188.094.188 0a.202.202 0 00-.188-.187c-.094.031-.187.093-.187.187z" fill="#699635"/><path d="M16.969 17.594c0 .125.093-.063.25-.063.125 0 .25.219.25.063a.246.246 0 00-.25-.25.246.246 0 00-.25.25z" fill="#B5F478"/><path d="M17.656 19.219c0 .125.094-.063.25-.063.125 0 .25.219.25.063a.246.246 0 00-.25-.25c-.156 0-.25.093-.25.25z" fill="#699635"/></svg>