<svg width="18" height="21" fill="none" xmlns="http://www.w3.org/2000/svg"><path d="M17.25 7.063v-5.5c0-.757-.619-1.375-1.375-1.375H2.125C1.369.188.75.805.75 1.563v5.5h16.5zM2.812 2.25a.69.69 0 01.688-.688h11a.69.69 0 01.688.688V5a.69.69 0 01-.688.688h-11A.69.69 0 012.812 5V2.25zM.75 7.75v11.688a1.38 1.38 0 001.375 1.375h13.75a1.38 1.38 0 001.375-1.375V7.75H.75zm3.094 11a1.032 1.032 0 110-2.063 1.032 1.032 0 010 2.063zm0-3.438a1.032 1.032 0 110-2.063 1.032 1.032 0 010 2.063zm0-3.437a1.032 1.032 0 110-2.063 1.032 1.032 0 010 2.063zM7.28 18.75a1.032 1.032 0 11.001-2.063 1.032 1.032 0 010 2.063zm0-3.438a1.032 1.032 0 11.001-2.063 1.032 1.032 0 010 2.063zm0-3.437a1.032 1.032 0 11.001-2.063 1.032 1.032 0 010 2.063zm3.438 6.875a1.032 1.032 0 110-2.063 1.032 1.032 0 010 2.063zm0-3.438a1.032 1.032 0 110-2.063 1.032 1.032 0 010 2.063zm0-3.437a1.032 1.032 0 110-2.063 1.032 1.032 0 010 2.063zm4.469 5.844a1.03 1.03 0 11-2.063 0V14.28a1.03 1.03 0 112.063 0v3.438zm-1.032-5.844a1.032 1.032 0 11.001-2.063 1.032 1.032 0 010 2.063z" fill="#fff"/></svg>