<svg width="20" height="21" fill="none" xmlns="http://www.w3.org/2000/svg"><g clip-path="url(#clip0_0_347)"><path d="M9.688 2.934l-7.813 7.811V20.5h16.25v-9.13L9.687 2.934z" fill="#EAEAEA"/><path d="M5 13.625h4.375V20.5H5v-6.875z" fill="#434854"/><path d="M10.625 13H12.5v1.875h-1.875V13zm2.5 0H15v1.875h-1.875V13zm0-2.5H15v1.875h-1.875V10.5zm-2.5 0H12.5v1.875h-1.875V10.5z" fill="#469FCC"/><path d="M10.625 10.5H12.5v.625h-1.875V10.5zm2.5 0H15v.625h-1.875V10.5zm-2.5 2.5H12.5v.625h-1.875V13zm2.5 0H15v.625h-1.875V13z" fill="#000"/><path d="M9.688 1.75L1.875 9.875v1.875l7.813-7.813 8.437 8.438V10.5L9.687 1.75z" fill="#000"/><path d="M19.777 10.37L10.57 1.166l-.44-.443a.625.625 0 00-.883 0l-.442.442-8.58 8.58a.624.624 0 000 .885l.441.441a.623.623 0 00.884 0l8.139-8.137 8.763 8.763a.625.625 0 00.883 0l.442-.442a.626.626 0 000-.884z" fill="#EF4D4D"/><path d="M4.653 20.5c.225-.378.345-.81.347-1.25a2.5 2.5 0 00-5 0c0 .457.132.88.347 1.25h4.306zM17.5 16.75a2.495 2.495 0 00-2.27 1.466 1.853 1.853 0 00-.855-.216 1.875 1.875 0 00-1.875 1.875c0 .22.045.429.115.625h7.039A2.48 2.48 0 0020 19.25a2.5 2.5 0 00-2.5-2.5z" fill="#3AAD73"/><path d="M15.23 18.216a1.853 1.853 0 00-.855-.216 1.875 1.875 0 00-1.875 1.875c0 .22.045.429.115.625h2.732A2.474 2.474 0 0115 19.25c0-.37.086-.718.23-1.034z" fill="#000"/></g><defs><clipPath id="clip0_0_347"><path fill="#fff" transform="translate(0 .5)" d="M0 0h20v20H0z"/></clipPath></defs></svg>