<svg width="19" height="19" fill="none" xmlns="http://www.w3.org/2000/svg"><path d="M1.754 5.476h17.083V17.65H1.754V5.476z" fill="#FCE3C3"/><path d="M18.837 17.65H1.445V5.935h17.392V17.65zm-16.893-.498h16.394V6.432H1.944v10.72z" fill="#300604"/><path d="M18.927 17.74H1.355V5.845h17.572V17.74zm-17.393-.18h17.213V6.025H1.534V17.56zm16.894-.318H1.854v-10.9h16.574v10.9zm-16.395-.18h16.215V6.522H2.033v10.54z" fill="#300604"/><path d="M1.694 2.636h16.893v3.547H1.694V2.636z" fill="#300604"/><path d="M18.677 6.273H1.604V2.546h17.073v3.727zm-16.893-.18h16.713V2.726H1.784v3.367z" fill="#300604"/><path d="M18.837 6.433H1.445V2.387h17.392v4.046zm-16.893-.5h16.394V2.887H1.944v3.048z" fill="#300604"/><path d="M18.927 6.523H1.355V2.297h17.572v4.226zm-17.393-.18h17.213V2.477H1.534v3.866zm16.894-.32H1.854V2.797h16.574v3.228zm-16.395-.18h16.215V2.977H2.033v2.868z" fill="#300604"/><path d="M14.347.502h1.63v4.185h-1.63V.502z" fill="#ED8F27"/><path d="M16.226 4.936h-2.129V.253h2.129v4.683zm-1.63-.499h1.13V.752h-1.13v3.685z" fill="#300604"/><path d="M4.305.502h1.63v4.185h-1.63V.502z" fill="#ED8F27"/><path d="M6.184 4.936H4.056V.253h2.128v4.683zm-1.63-.499h1.131V.752h-1.13v3.685z" fill="#300604"/><path d="M14.754 7.65h1.711v1.71h-1.71V7.65z" fill="#B12800"/><path d="M14.754 10.937h1.711v1.71h-1.71v-1.71zm0 3.287h1.711v1.71h-1.71v-1.71zM11.108 7.65h1.711v1.71h-1.71V7.65z" fill="#228E9D"/><path d="M11.108 10.937h1.711v1.71h-1.71v-1.71z" fill="#B12800"/><path d="M11.108 14.224h1.711v1.71h-1.71v-1.71zM7.462 7.65h1.711v1.71h-1.71V7.65z" fill="#228E9D"/><path d="M7.462 10.937h1.711v1.71h-1.71v-1.71z" fill="#B12800"/><path d="M7.462 14.223h1.711v1.711h-1.71v-1.71zm-3.646-3.287h1.711v1.712h-1.71v-1.711z" fill="#228E9D"/><path d="M3.816 14.224h1.711v1.71h-1.71v-1.71z" fill="#B12800"/></svg>