<svg width="20" height="21" fill="none" xmlns="http://www.w3.org/2000/svg"><g clip-path="url(#clip0_0_375)"><path d="M10 .5c5.523 0 10 4.477 10 10s-4.477 10-10 10l-2.609-10 2.61-10z" fill="#354A67"/><path d="M10 20.5c-5.523 0-10-4.477-10-10S4.477.5 10 .5v20z" fill="#466289"/><path d="M10 18.761l-.87-8.696 9.13.435c0 4.555-3.705 8.261-8.26 8.261z" fill="#BEC8D6"/><path d="M10 2.24c4.555 0 8.26 3.705 8.26 8.26H9.13L10 2.24z" fill="#DAE0E7"/><path d="M10 10.5v8.261c-4.555 0-8.26-3.706-8.26-8.26l4.13-1.305L10 10.5z" fill="#DAE0E7"/><path d="M10 2.24v8.26H1.74c0-4.555 3.705-8.26 8.26-8.26z" fill="#fff"/><path d="M6.61 5.931l1.129-.652-.652-1.13-1.13.652.652 1.13zM4.779 8.239l.652-1.13-1.13-.652-.652 1.13 1.13.652z" fill="#DAE0E7"/><path d="M5.431 13.89l-.652-1.129-1.13.652.652 1.13 1.13-.652zm2.308 1.831l-1.13-.652-.652 1.13 1.13.651.652-1.129z" fill="#BEC8D6"/><path d="M13.39 15.069l-1.129.652.652 1.13 1.13-.652-.652-1.13zm1.831-2.308l-.652 1.13 1.13.652.652-1.13-1.13-.652z" fill="#A3B1C4"/><path d="M14.489 5.12L10.03 9.578v1.844l5.38-5.38-.922-.922z" fill="#354A67"/><path d="M7.879 7.426l-.922.922 3.074 3.074V9.579L7.879 7.426z" fill="#466289"/><path d="M10.652 16.152H10v1.305h.652v-1.305z" fill="#A3B1C4"/><path d="M10.652 3.543H10v1.305h.652V3.543zM10 16.152h-.652v1.305H10v-1.305z" fill="#BEC8D6"/><path d="M10 3.543h-.652v1.305H10V3.543z" fill="#DAE0E7"/><path d="M16.957 10.5h-1.305v.652h1.305V10.5z" fill="#A3B1C4"/><path d="M16.957 9.848h-1.305v.652h1.305v-.652zM4.348 10.5H3.043v.652h1.305V10.5z" fill="#BEC8D6"/><path d="M4.348 9.848H3.043v.652h1.305v-.652z" fill="#DAE0E7"/></g><defs><clipPath id="clip0_0_375"><path fill="#fff" transform="translate(0 .5)" d="M0 0h20v20H0z"/></clipPath></defs></svg>