<svg width="20" height="20" fill="none" xmlns="http://www.w3.org/2000/svg"><g clip-path="url(#clip0_0_491)"><path d="M6.949 0v3.212H4.773V0a3.392 3.392 0 00-.834 6.006V9.45h3.844V6.006A3.392 3.392 0 006.949 0z" fill="#8B8B8B"/><path d="M6.949 0v3.212H5.86V9.45h1.922V6.006A3.392 3.392 0 006.95 0z" fill="#6F6F6F"/><path d="M15.565 3.893H12.79V9.45h2.776V3.893z" fill="#E69824"/><path d="M15.566 3.893h-1.389V9.45h1.389V3.893z" fill="#DD5323"/><path d="M19.438 4.39h-8.655V0h5.625l3.03 4.39z" fill="#444"/><path d="M19.438 4.39h-5.26V0h2.23l3.03 4.39z" fill="#282828"/><path d="M19.774 20H.226V8.797h19.548V20z" fill="#3D6DFA"/></g><defs><clipPath id="clip0_0_491"><path fill="#fff" d="M0 0h20v20H0z"/></clipPath></defs></svg>