<svg width="39" height="44" fill="none" xmlns="http://www.w3.org/2000/svg"><path d="M7.211 9.625h19.833c.516-.688.8-1.55.785-2.437-.016-.985-.382-1.898-1.03-2.54-.354-.349-.909-.77-1.546-.77h-.12c-1.654.066-3.213-.663-4.276-1.996C19.99.794 18.75.17 17.455.17c-1.303 0-2.548.63-3.416 1.729-1.186 1.501-2.98 2.25-4.797 2.003a3.016 3.016 0 00-.406-.027c-.406 0-.83.191-1.263.567-.646.561-1.056 1.382-1.156 2.306-.102.951.133 1.911.662 2.661l.132.216z" fill="#AB917A"/><path d="M14.636 13.23c.028 0 .055.004.082.004h14.7c.487 0 .883-.439.883-.988 0-.55-.396-.988-.883-.988H4.794c-.487 0-.883.439-.883.988 0 .55.396.988.883.988h9.76c.026 0 .054-.005.082-.005z" fill="#142245"/><path d="M26.355 31.883h2.057V19.686c0-.309-.13-.6-.325-.82a1.113 1.113 0 00-.252-.2c-.003-.002-.013-.004-.017-.007a.865.865 0 00-.455-.13c-.566 0-1.008.519-1.008 1.157V29.74c0 .045.011.091.011.138 0 .047-.01.094-.01.139v1.866zm2.769 4.125c-.42 0-.712-.379-.712-.852v-1.64h-2.056v1.64c0 .473-.385.852-.804.852h-.113c-1.157 0-2.054 1.066-2.054 2.371v.547c0 .064.021.13.021.199s-.021.135-.021.2v.636h8.379v-.647c0-.061-.02-.124-.02-.19 0-.064.02-.127.02-.188v-.556l.02-.006c0-1.304-.92-2.366-2.077-2.366h-.583z" fill="#96A4D3"/><path d="M13.863 17.834v-2.88h-7.41l1.194 11.152c3.543-.663 6.216-4.14 6.216-8.272z" fill="#AB917A"/><path d="M34.52 39.96h-1.233v.84c0 .474-.304.88-.723.88h-9.982c-.419 0-.72-.407-.72-.88v-.84h-.83l-.568 3.868h14.625l-.568-3.867z" fill="#142245"/><path d="M24.832 34.365v-3.599H8.151l1.229 11.39c.104.964.834 1.672 1.7 1.672h7.845l.716-4.86c.06-.413.377-.726.748-.726h1.437c.046-1.89 1.33-3.539 3.006-3.877zm0-14.679c0-1.582 1.122-2.872 2.525-2.872.07 0 .125-.011.193-.005l.19-1.856H15.388v2.881c0 4.999-3.256 9.234-7.554 10.001l.133 1.212h16.866v-9.36z" fill="#142245"/></svg>