<svg width="20" height="21" fill="none" xmlns="http://www.w3.org/2000/svg"><g clip-path="url(#clip0_0_501)"><path d="M10 .5L.782 7.093v1.5L10 2l9.218 6.593v-1.5L10 .5z" fill="#2C3E50"/><path d="M2.481 20.344V8.877L10 3.462l7.518 5.415v11.467H2.481z" fill="#fff"/><path d="M10 3.656l7.363 5.302v11.23H2.636V8.957L10 3.657zm0-.385L2.325 8.797V20.5h15.35V8.797L10 3.27v.001z" fill="#CCC"/><path d="M10 16.962a4.123 4.123 0 004.125-4.12A4.123 4.123 0 0010 8.72a4.123 4.123 0 00-4.125 4.121A4.123 4.123 0 0010 16.962z" fill="#E21B1B"/><path d="M12.76 13.153H9.689V10.02h.624v2.508h2.449v.625z" fill="#fff"/></g><defs><clipPath id="clip0_0_501"><path fill="#fff" transform="translate(0 .5)" d="M0 0h20v20H0z"/></clipPath></defs></svg>