<svg width="19" height="19" viewBox="0 0 19 19" fill="none" xmlns="http://www.w3.org/2000/svg">
<path d="M1.75439 5.47559H18.8368V17.6509H1.75439V5.47559Z" fill="#FCE3C3"/>
<path d="M18.8368 17.6505H1.44458V5.93359H18.8368V17.6505ZM1.94353 17.1516H18.3379V6.43254H1.94353V17.1516Z" fill="#300604"/>
<path d="M18.9267 17.7405H1.35461V5.84375H18.9267V17.7405H18.9267ZM1.53445 17.5607H18.7469V6.02359H1.53445V17.5607ZM18.4278 17.2416H1.85359V6.3427H18.4278L18.4278 17.2416ZM2.03342 17.0617H18.248V6.52254H2.03342V17.0617Z" fill="#300604"/>
<path d="M1.69409 2.63623H18.5874V6.18317H1.69409V2.63623Z" fill="#300604"/>
<path d="M18.6773 6.27319H1.60413V2.54639H18.6773V6.27319H18.6773ZM1.78396 6.09335H18.4975V2.72622H1.78396V6.09335Z" fill="#300604"/>
<path d="M18.8368 6.43258H1.44458V2.38672H18.8368V6.43258ZM1.94353 5.93363H18.3379V2.88569H1.94353V5.93363Z" fill="#300604"/>
<path d="M18.9267 6.52255H1.35461V2.29688H18.9267V6.52255H18.9267ZM1.53445 6.34271H18.7469V2.47671H1.53445V6.34271ZM18.4278 6.0236H1.85359V2.79582H18.4278L18.4278 6.0236ZM2.03342 5.84376H18.248V2.97566H2.03342V5.84376Z" fill="#300604"/>
<path d="M14.3469 0.502441H15.9764V4.68675H14.3469V0.502441Z" fill="#ED8F27"/>
<path d="M16.2258 4.93621H14.0974V0.25293H16.2258V4.93621ZM14.5964 4.43727H15.7269V0.751876H14.5964V4.43727Z" fill="#300604"/>
<path d="M4.30518 0.502441H5.93466V4.68675H4.30518V0.502441Z" fill="#ED8F27"/>
<path d="M6.18409 4.93621H4.05566V0.25293H6.18409V4.93621ZM4.55461 4.43727H5.68515V0.751876H4.55461V4.43727Z" fill="#300604"/>
<path d="M14.7543 7.6499H16.4652V9.36085H14.7543V7.6499Z" fill="#B12800"/>
<path d="M14.7542 10.9369H16.4652V12.6478H14.7542V10.9369ZM14.7542 14.2238H16.4652V15.9348H14.7542V14.2238ZM11.1083 7.6499H12.8192V9.36085H11.1083V7.6499Z" fill="#228E9D"/>
<path d="M11.1083 10.9365H12.8192V12.6475H11.1083V10.9365Z" fill="#B12800"/>
<path d="M11.1083 14.2238H12.8192V15.9348H11.1083V14.2238ZM7.46228 7.6499H9.17326V9.36085H7.46228V7.6499Z" fill="#228E9D"/>
<path d="M7.46228 10.9365H9.17326V12.6475H7.46228V10.9365Z" fill="#B12800"/>
<path d="M7.46226 14.2235H9.17324V15.9344H7.46226V14.2235ZM3.81628 10.9365H5.52726V12.6475H3.81628V10.9365Z" fill="#228E9D"/>
<path d="M3.81628 14.2236H5.52726V15.9346H3.81628V14.2236Z" fill="#B12800"/>
</svg>
