<svg width="23" height="15" fill="none" xmlns="http://www.w3.org/2000/svg"><g clip-path="url(#clip0_0_170)"><path d="M1.194 6.11a.377.377 0 01.372.287l.79 3.099a.75.75 0 01.023.185l1.588-1.983-.795-2.776L1.194 6.11z" fill="#D79B19"/><path d="M20.62 9.681H2.38l1.587-1.983h15.069l1.585 1.983z" fill="#B37417"/><path d="M19.036 7.698l.792-2.776V1.85c0-.93-.755-1.685-1.686-1.685h-4.957c-.93 0-1.685.754-1.685 1.685V7.7h7.536z" fill="#E5AC20"/><path d="M11.502 7.698v-5.85c0-.93-.755-1.684-1.686-1.684H4.86c-.93 0-1.685.754-1.685 1.685v3.073l.793 2.776h7.534z" fill="#F6C020"/><path d="M21.806 6.11a.377.377 0 00-.372.287l-.79 3.099a.753.753 0 00-.023.185l-1.585-1.983.791-2.776 1.979 1.188z" fill="#D79B19"/><path d="M2.776 14.836h-.397V13.25h1.983l-1.586 1.586zm17.448 0h.397V13.25h-1.983l1.586 1.586z" fill="#774836"/><path d="M2.356 9.496l-.79-3.1c-.098-.383-.654-.383-.752 0l-.79 3.1a.75.75 0 000 .37l.79 3.1c.05.2.227.293.397.284H2.38V9.681a.75.75 0 00-.023-.185zm20.621 0l-.79-3.1c-.099-.383-.655-.383-.753 0l-.79 3.1a.753.753 0 00-.023.185v3.569h1.168a.377.377 0 00.397-.285l.79-3.099a.74.74 0 000-.37z" fill="#FFC83E"/><path d="M20.62 9.681H2.38v3.57h18.24V9.68z" fill="#F5BE26"/></g><defs><clipPath id="clip0_0_170"><path fill="#fff" d="M0 0h23v15H0z"/></clipPath></defs></svg>