<svg width="20" height="20" fill="none" xmlns="http://www.w3.org/2000/svg"><g clip-path="url(#clip0_0_486)"><path d="M12.97 7.07a.497.497 0 11-.475-.874c1.146-.621 1.68-1.425 1.787-2.212a2.416 2.416 0 00-.166-1.232 2.855 2.855 0 00-.74-1.045c-.63-.563-1.514-.859-2.437-.63-.374.093-.698.28-.981.544-.301.28-.562.646-.79 1.08a.499.499 0 01-.882-.463c.28-.53.607-.986.995-1.348a3.196 3.196 0 011.422-.78c1.27-.315 2.479.085 3.338.854.437.39.783.877 1.001 1.414.22.542.31 1.138.227 1.741-.149 1.078-.839 2.159-2.299 2.951zm-3.818 3.934C7.264 8.468 7.22 6.066 9.51 3.833l-1.65-.911C6.538 2.407 4.113 6.198 5.05 7.21l1.286 1.908-.265.553c-.073.165-.002.28.177.36l.175.047-3.345 6.62.677 1.443 1.354-.398.348-.678-.333-.625.735-.157.171-.333-.384-.585.253-.49.734-.093.239-.464-.41-.535.262-.508.748-.122 1.02-1.945.172.094c.3.182.454.065.488-.298zm3.553 1.59l-.498 1.86-.692.273-.145.542.505.428-.132.493-.683.24-.14.521.49.48-.095.354-.672.304.45.53-.194.72-1.213.663-.947-1.242 1.806-6.743-.438-.118a.17.17 0 01-.12-.208l.184-.685a4.212 4.212 0 013.462-7.466c.01.117.008.236-.008.355-.04.296-.17.6-.407.895-.033.04-.067.08-.103.119a1.5 1.5 0 00-1.512 1.994 1.152 1.152 0 00.592.76 1.503 1.503 0 002.26-.82c.24-.21.446-.432.623-.66.345-.444.581-.916.721-1.396a4.211 4.211 0 01-2.563 7.043l-.184.685a.17.17 0 01-.208.12l-.139-.04z" fill="#747171"/></g><defs><clipPath id="clip0_0_486"><path fill="#fff" d="M0 0h20v20H0z"/></clipPath></defs></svg>