<svg width="39" height="35" fill="none" xmlns="http://www.w3.org/2000/svg"><path d="M19.103 1.393c0-.493-.29-.893-.642-.893-.354 0-.642.398-.642.893 0 .162.03.315.033.474.414-.053.817-.107 1.272-.154.003-.107-.021-.206-.021-.32zm15.449 0C34.552.9 34.264.5 33.91.5c-.354 0-.642.398-.642.893 0 .11-.022.21-.022.32.449.047.854.101 1.266.154.006-.156.04-.312.04-.474z" fill="#977659"/><path d="M26.334 12.22c3.815 0 6.92-4.231 7.046-9.495-2.027-.202-4.44-.32-7.046-.32-2.607 0-5.02.12-7.047.32.124 5.264 3.23 9.496 7.047 9.496z" fill="#AB917A"/><path d="M6.154 28.812c-.762-.74-1.245-1.805-1.245-3.025 0-1.214.483-2.281 1.245-3.02-.762-.743-1.245-1.805-1.245-3.024 0-2.286 1.668-4.076 3.796-4.076h3.258C10.939 12.657 9.62 12.734 9.62 9.5c0-1.058.023-1.96.017-2.724h3.387c0-1.706-1.374-3.087-3.064-3.087l-2.846-.836-.82.836H1.102v.817h-.99V5.96h.99v.816h3.74L1.46 12.988h1.185l3.14-5.76c-.277 1.245-.42 2.868-.403 4.935C5.413 16.22 0 19.507 0 26.663c0 7.035 2.507 7.664 5.74 7.717a4.25 4.25 0 01-.83-2.544c0-1.219.482-2.282 1.244-3.024zM34.467 2.406c-.184 6.171-3.828 11.125-8.317 11.125-4.49 0-8.13-4.954-8.318-11.125-2.751.358-4.531.883-4.531 1.475l1.332 11.896h6.405c2.128 0 3.796 1.79 3.796 4.072 0 1.22-.485 2.288-1.248 3.027.763.739 1.248 1.806 1.248 3.024 0 1.216-.485 2.282-1.248 3.02.763.745 1.248 1.811 1.248 3.027 0 .953-.307 1.816-.8 2.506.682.03 1.388.047 2.117.047 5.32 0 9.638-.876 9.638-1.95L39 3.884c.001-.595-1.782-1.122-4.533-1.478z" fill="#142245"/><path d="M21.34 17.182H8.588a2.596 2.596 0 00-2.604 2.586 2.598 2.598 0 002.604 2.586h12.75a2.597 2.597 0 002.603-2.586 2.595 2.595 0 00-2.603-2.586zM8.589 23.093a2.595 2.595 0 00-2.604 2.584 2.596 2.596 0 002.604 2.588h12.75a2.595 2.595 0 002.603-2.588 2.592 2.592 0 00-2.603-2.584H8.59zm12.751 5.911H8.588a2.595 2.595 0 00-2.604 2.586 2.595 2.595 0 002.604 2.586h12.75a2.594 2.594 0 002.603-2.586 2.595 2.595 0 00-2.603-2.586z" fill="#96A4D3"/></svg>