<svg width="44" height="44" fill="none" xmlns="http://www.w3.org/2000/svg"><g clip-path="url(#clip0_0_566)"><path fill-rule="evenodd" clip-rule="evenodd" d="M38.75 26.5c-.725 0-2.454.679-3.424 1.168-1.119.587-2.452.904-3.826.904s-2.706-.319-3.854-.92c-1.088-.546-2.715-1.15-3.396-1.15a5.256 5.256 0 00-5.25 5.25 5.256 5.256 0 005.25 5.25c.725 0 2.454-.678 3.424-1.168 1.119-.587 2.452-.904 3.826-.904s2.706.317 3.853.918C36.441 36.394 38.07 37 38.75 37A5.256 5.256 0 0044 31.75a5.256 5.256 0 00-5.25-5.25zM27 29.46a1 1 0 10-2 .002 1 1 0 002-.001zm11 0a1 1 0 10-2 .002 1 1 0 002-.001zm4 1a1 1 0 10-2 .002 1 1 0 002-.001zm-19 1a1 1 0 10-2 .002 1 1 0 002-.001zm7 1a1 1 0 10-2 .002 1 1 0 002-.001zm4 0a1 1 0 10-2 .002 1 1 0 002-.001zm-9 2a1 1 0 10-2 .002 1 1 0 002-.001zm15 0a1 1 0 10-2 .002 1 1 0 002-.001z" fill="#142245"/><path fill-rule="evenodd" clip-rule="evenodd" d="M19 36.74v2.01A5.256 5.256 0 0024.25 44c.725 0 2.454-.678 3.424-1.168 1.119-.587 2.452-.904 3.826-.904s2.706.319 3.853.92C36.441 43.395 38.07 44 38.75 44A5.256 5.256 0 0044 38.75v-2.01A7.224 7.224 0 0138.75 39c-1.587 0-4.324-1.38-4.324-1.38-.814-.428-1.821-.69-2.926-.69-1.105 0-2.112.263-2.926.69 0 0-2.737 1.38-4.324 1.38A7.224 7.224 0 0119 36.74zm11 3.72a1 1 0 10-2 .002 1 1 0 002-.001zm6 0a1 1 0 10-2 .002 1 1 0 002-.001zm6 0a1 1 0 10-2 .002 1 1 0 002-.001zm-17 1a1 1 0 10-2 .002 1 1 0 002-.001z" fill="#96A4D3"/><path fill-rule="evenodd" clip-rule="evenodd" d="M22 4c-3.855 0-7.429 1.176-10.426 3.16C10.812 6.46 9.754 6 8.5 6c-1.417 0-2.606.567-3.373 1.43C4.36 8.292 4 9.403 4 10.5c0 1.097.36 2.208 1.127 3.07.05.056.109.106.167.155.036.03.07.06.104.091A18.813 18.813 0 003 23c0 8.932 6.204 16.424 14.523 18.445A7.232 7.232 0 0117 38.75v-5.964c-3.556-1.826-6-5.521-6-9.786 0-6.065 4.935-11 11-11s11 4.935 11 11c0 1.226-.21 2.402-.582 3.504a6.129 6.129 0 002.008-.623S37.163 24.5 38.75 24.5c.751 0 1.475.114 2.156.326.058-.6.094-1.209.094-1.826 0-10.477-8.523-19-19-19zM10.377 8.758C9.977 8.308 9.417 8 8.5 8s-1.477.308-1.877.758C6.223 9.208 6 9.848 6 10.5c0 .653.223 1.292.623 1.742.4.45.96.758 1.877.758s1.477-.308 1.877-.758c.4-.45.623-1.09.623-1.742 0-.653-.223-1.292-.623-1.742z" fill="#142245"/><path d="M22 14c-4.963 0-9 4.038-9 9a8.994 8.994 0 004.107 7.545c.576-3.43 3.551-6.045 7.143-6.045 1.587 0 4.324 1.38 4.324 1.38.508.268 1.099.46 1.735.575A8.956 8.956 0 0031 23c0-4.962-4.037-9-9-9z" fill="#AB917A"/><path fill-rule="evenodd" clip-rule="evenodd" d="M40 1c-1.25 0-2.315.505-2.998 1.273C36.319 3.043 36 4.028 36 5s.319 1.958 1.002 2.727C37.685 8.495 38.75 9 40 9c1.25 0 2.315-.505 2.998-1.273C43.681 6.957 44 5.972 44 5s-.319-1.958-1.002-2.727C42.315 1.505 41.25 1 40 1zm1.502 2.602C41.185 3.245 40.75 3 40 3s-1.185.245-1.502.602C38.181 3.958 38 4.472 38 5c0 .528.181 1.042.498 1.398.317.357.752.602 1.502.602s1.185-.245 1.502-.602C41.819 6.042 42 5.528 42 5c0-.528-.181-1.042-.498-1.398zM3 0C2.083 0 1.269.38.752.96A3.05 3.05 0 000 3c0 .722.235 1.458.752 2.04C1.269 5.62 2.083 6 3 6c.917 0 1.731-.38 2.248-.96A3.05 3.05 0 006 3 3.05 3.05 0 005.248.96C4.731.38 3.917 0 3 0zm.752 2.29C3.602 2.12 3.417 2 3 2s-.602.12-.752.29C2.098 2.457 2 2.721 2 3c0 .278.098.542.248.71.15.17.335.29.752.29s.602-.12.752-.29C3.902 3.543 4 3.279 4 3a1.09 1.09 0 00-.248-.71z" fill="#96A4D3"/></g><defs><clipPath id="clip0_0_566"><path fill="#fff" d="M0 0h44v44H0z"/></clipPath></defs></svg>