<svg width="14" height="14" viewBox="0 0 14 14" fill="none" xmlns="http://www.w3.org/2000/svg">
<g clip-path="url(#clip0_35_12639)">
<path opacity="0.5" d="M13.4815 7.00004C13.4815 10.5796 10.5796 13.4815 7.00004 13.4815C3.42041 13.4815 0.518555 10.5796 0.518555 7.00004C0.518555 3.42041 3.42041 0.518555 7.00004 0.518555C10.5796 0.518555 13.4815 3.42041 13.4815 7.00004Z" fill="#1C274C"/>
<path d="M9.61222 5.03593C9.80206 5.22577 9.80206 5.53356 9.61222 5.72338L6.37148 8.96412C6.18164 9.15396 5.8739 9.15396 5.68404 8.96412L4.38774 7.66782C4.1979 7.47798 4.1979 7.17024 4.38774 6.9804C4.57757 6.79055 4.88537 6.79055 5.0752 6.9804L6.02777 7.93291L7.47625 6.48443L8.9248 5.03593C9.11464 4.8461 9.42238 4.8461 9.61222 5.03593Z" fill="white"/>
</g>
<defs>
<clipPath id="clip0_35_12639">
<rect width="14" height="14" fill="white"/>
</clipPath>
</defs>
</svg>
