<svg width="47" height="31" viewBox="0 0 47 31" fill="none" xmlns="http://www.w3.org/2000/svg">
<g clip-path="url(#clip0_35_12803)">
<path d="M44.4933 0.5H2.50667C1.12227 0.5 0 1.64068 0 3.04777V27.9522C0 29.3593 1.12227 30.5 2.50667 30.5H44.4933C45.8777 30.5 47 29.3593 47 27.9522V3.04777C47 1.64068 45.8777 0.5 44.4933 0.5Z" fill="#0E4595"/>
<path d="M17.4336 21.7892L19.5242 9.32031H22.868L20.776 21.7892H17.4336Z" fill="white"/>
<path d="M32.8566 9.58815C32.194 9.33554 31.156 9.06445 29.8596 9.06445C26.5556 9.06445 24.2282 10.7556 24.2084 13.1794C24.1898 14.971 25.8699 15.9705 27.1383 16.5669C28.4398 17.1781 28.8774 17.5679 28.8712 18.1136C28.8629 18.9494 27.8318 19.3313 26.8707 19.3313C25.5323 19.3313 24.8213 19.1423 23.7232 18.6767L23.2923 18.4785L22.823 21.2699C23.604 21.6179 25.0482 21.9195 26.5478 21.9351C30.0627 21.9351 32.3445 20.2633 32.3705 17.6751C32.383 16.2567 31.4922 15.1772 29.563 14.2873C28.3943 13.7105 27.6785 13.3256 27.6861 12.7415C27.6861 12.2232 28.2919 11.669 29.601 11.669C30.6944 11.6518 31.4865 11.8941 32.1036 12.1467L32.4033 12.2906L32.8566 9.58815Z" fill="white"/>
<path d="M41.4612 9.32031H38.8774C38.0769 9.32031 37.478 9.54235 37.1264 10.3543L32.1604 21.7813H35.6717C35.6717 21.7813 36.2458 20.2448 36.3757 19.9075C36.7594 19.9075 40.1704 19.9129 40.6581 19.9129C40.7581 20.3494 41.0649 21.7813 41.0649 21.7813H44.1676L41.4612 9.32031ZM37.3617 17.3717C37.6383 16.6533 38.694 13.8862 38.694 13.8862C38.6742 13.9194 38.9684 13.1643 39.1373 12.6961L39.3634 13.7711C39.3634 13.7711 40.0036 16.7475 40.1374 17.3716H37.3617V17.3717Z" fill="white"/>
<path d="M2.87499 9.32031L2.83228 9.57982C4.15398 9.90501 5.33451 10.3756 6.36805 10.9611L9.33504 21.7694L12.8729 21.7652L18.1371 9.32031H14.5951L11.3214 17.8232L10.9726 16.0953C10.9564 16.0426 10.939 15.9896 10.921 15.9367L9.78265 10.373C9.58023 9.58346 8.99314 9.34783 8.2669 9.32031H2.87499Z" fill="white"/>
</g>
<defs>
<clipPath id="clip0_35_12803">
<rect width="47" height="30" fill="white" transform="translate(0 0.5)"/>
</clipPath>
</defs>
</svg>
