<svg width="51" height="52" viewBox="0 0 51 52" fill="none" xmlns="http://www.w3.org/2000/svg">
<path d="M40.9594 33.1719C40.3219 35.0844 37.9312 36.6781 35.8594 36.9969C35.3813 37.1562 34.9031 37.1562 34.2656 37.1562C32.9906 37.1562 31.0781 36.8375 27.7312 35.4031C23.9062 33.8094 20.0812 30.4625 17.0531 26.1594V26C16.0969 24.5656 14.3438 21.8563 14.3438 18.9875C14.3438 15.4813 16.0969 13.7281 16.7344 12.9313C17.5312 12.1344 18.6469 11.6562 19.9219 11.6562C20.2406 11.6562 20.4 11.6562 20.7188 11.6562C21.8344 11.6562 22.6312 11.975 23.4281 13.5687L24.0656 14.8438C24.5438 16.1188 25.1812 17.5531 25.3406 17.7125C25.8187 18.6688 25.8187 19.4656 25.3406 20.2625C25.1812 20.7406 24.8625 21.0594 24.5437 21.3781C24.3844 21.6969 24.225 21.8562 24.0656 21.8562C23.9063 22.0156 23.9062 22.0156 23.7469 22.175C24.225 22.9719 25.1813 24.4062 26.4563 25.5219C28.3688 27.275 29.8031 27.7531 30.6 28.0719C30.9188 27.7531 31.2375 27.1156 31.7156 26.6375L31.875 26.3188C32.6719 25.2031 33.9469 24.8844 35.2219 25.3625C35.8594 25.6813 39.3656 27.275 39.3656 27.275L39.6844 27.4344C40.1625 27.7531 40.8 27.9125 41.1187 28.55C41.7562 29.9844 41.2781 32.0562 40.9594 33.1719Z" fill="white"/>
</svg>
