<svg width="38" height="38" viewBox="0 0 38 38" fill="none" xmlns="http://www.w3.org/2000/svg">
<path d="M20.1875 0C10.3312 0 2.375 7.95625 2.375 17.8125C2.375 21.85 3.68125 25.65 6.175 28.7375L3.68125 36.3375C3.5625 36.8125 3.68125 37.2875 4.0375 37.6437C4.15625 37.8813 4.5125 38 4.75 38C4.86875 38 5.10625 38 5.225 37.8812L13.4187 34.2C15.5563 35.15 17.8125 35.625 20.1875 35.625C30.0438 35.625 38 27.6688 38 17.8125C38 7.95625 30.0438 0 20.1875 0Z" fill="#25D366"/>
<path d="M30.5188 24.3438C30.0438 25.7687 28.2625 26.9562 26.7188 27.1938C26.3625 27.3125 26.0063 27.3125 25.5312 27.3125C24.5813 27.3125 23.1562 27.075 20.6625 26.0063C17.8125 24.8188 14.9625 22.325 12.7062 19.1188V19C11.9937 17.9312 10.6875 15.9125 10.6875 13.775C10.6875 11.1625 11.9937 9.85625 12.4688 9.2625C13.0625 8.66875 13.8937 8.3125 14.8438 8.3125C15.0813 8.3125 15.2 8.3125 15.4375 8.3125C16.2688 8.3125 16.8625 8.55 17.4562 9.7375L17.9313 10.6875C18.2875 11.6375 18.7625 12.7063 18.8812 12.825C19.2375 13.5375 19.2375 14.1312 18.8812 14.725C18.7625 15.0812 18.525 15.3188 18.2875 15.5563C18.1687 15.7938 18.05 15.9125 17.9313 15.9125C17.8125 16.0312 17.8125 16.0313 17.6937 16.15C18.05 16.7438 18.7625 17.8125 19.7125 18.6438C21.1375 19.95 22.2063 20.3062 22.8 20.5437C23.0375 20.3062 23.275 19.8312 23.6312 19.475L23.75 19.2375C24.3438 18.4063 25.2938 18.1688 26.2438 18.525C26.7188 18.7625 29.3313 19.95 29.3313 19.95L29.5688 20.0687C29.925 20.3062 30.4 20.425 30.6375 20.9C31.1125 21.9688 30.7563 23.5125 30.5188 24.3438Z" fill="white"/>
</svg>
