<svg width="48" height="48" viewBox="0 0 48 48" fill="none" xmlns="http://www.w3.org/2000/svg">
<circle cx="24" cy="24" r="24" fill="#F0F0F0"/>
<path d="M25 8C16.7 8 10 14.7 10 23C10 26.4 11.1 29.6 13.2 32.2L11.1 38.6C11 39 11.1 39.4 11.4 39.7C11.5 39.9 11.8 40 12 40C12.1 40 12.3 40 12.4 39.9L19.3 36.8C21.1 37.6 23 38 25 38C33.3 38 40 31.3 40 23C40 14.7 33.3 8 25 8Z" fill="#25D366"/>
<path d="M33.7 28.5C33.3 29.7 31.8 30.7 30.5 30.9C30.2 31 29.9 31 29.5 31C28.7 31 27.5 30.8 25.4 29.9C23 28.9 20.6 26.8 18.7 24.1V24C18.1 23.1 17 21.4 17 19.6C17 17.4 18.1 16.3 18.5 15.8C19 15.3 19.7 15 20.5 15C20.7 15 20.8 15 21 15C21.7 15 22.2 15.2 22.7 16.2L23.1 17C23.4 17.8 23.8 18.7 23.9 18.8C24.2 19.4 24.2 19.9 23.9 20.4C23.8 20.7 23.6 20.9 23.4 21.1C23.3 21.3 23.2 21.4 23.1 21.4C23 21.5 23 21.5 22.9 21.6C23.2 22.1 23.8 23 24.6 23.7C25.8 24.8 26.7 25.1 27.2 25.3C27.4 25.1 27.6 24.7 27.9 24.4L28 24.2C28.5 23.5 29.3 23.3 30.1 23.6C30.5 23.8 32.7 24.8 32.7 24.8L32.9 24.9C33.2 25.1 33.6 25.2 33.8 25.6C34.2 26.5 33.9 27.8 33.7 28.5Z" fill="white"/>
</svg>
